<?xml version="1.0" encoding="utf-8"?>
<!-- Generator: Adobe Illustrator 22.1.0, SVG Export Plug-In . SVG Version: 6.00 Build 0)  -->
<svg version="1.1" id="Calque_1" xmlns="http://www.w3.org/2000/svg" xmlns:xlink="http://www.w3.org/1999/xlink" x="0px" y="0px"
	 viewBox="0 0 1366 768" style="enable-background:new 0 0 1366 768;" xml:space="preserve">
<style type="text/css">
	.st0{fill:#057B3B;}
	.st1{fill:#137C3E;}
	.st2{fill:#E69237;}
	.st3{fill:#B7CE3C;}
	.st4{fill:#48A035;}
</style>
<g>
	<g>
		<path class="st0" d="M270,578.3h-4.6c0-9.9,2.3-28.8,7-56.8c4.6-28,7-43.9,7-47.7c0-6.9-2.3-14.3-6.8-22.1l-2.2-3.8l0.2-4.1
			c8.8-3.2,22.9-4.7,42.3-4.7c2.3,4,3.4,10.5,3.4,19.6c14.7-14.1,26.3-21.2,34.9-21.2c10.9,0,17.4,7.3,19.3,21.8
			c4.4-4.6,10.1-9.4,17.2-14.4c7.1-4.9,13.4-7.4,19.1-7.4c5.6,0,10.3,2.4,14.1,7.1c3.7,4.7,5.6,11.3,5.6,19.7
			c0,8.4-1.8,22.3-5.4,41.7c-3.6,19.4-5.4,32.4-5.4,39c0,6.6,0.7,9.9,2.2,9.9c1,0,4.3-2,10-6l2.7-1.9l4.4,11.1
			c-4.2,5.5-10,10.7-17.2,15.6c-7.3,4.9-13.6,7.4-19.2,7.4c-12.2,0-18.3-8.9-18.3-26.8c0-6.5,1.8-19.6,5.3-39.3
			c3.5-19.7,5.3-32.5,5.3-38.5c0-6-1.4-9-4.2-9c-4.7,0-10.1,2.3-16.1,6.9c-0.3,4.2-2.6,18.5-6.7,42.9c-4.2,24.4-6.2,43.4-6.2,56.8
			c-4.7,2.7-15.8,4.1-33.2,4.1c-0.3-2.3-0.5-7.9-0.5-16.7c0-8.8,1.9-23.9,5.7-45.2c3.8-21.3,5.7-34.7,5.7-40.4
			c0-5.7-1.5-8.5-4.6-8.5c-4.9,0-10.3,2.5-16.1,7.6c-0.3,1.9-2,11.2-4.9,27.8c-5.9,33.3-8.8,56.9-8.8,71
			C295.1,576.8,284.8,578.3,270,578.3z"/>
		<path class="st0" d="M436.1,543.3c0-17,5.1-30.5,15.4-40.4c10.3-9.9,22-14.8,35-14.8c8,0,14.6,2,19.8,5.9
			c5.2,3.9,7.8,9.2,7.8,15.8c0,6.6-1.7,12.2-5,16.7c-3.3,4.5-7.4,8-12.2,10.4c-9.7,4.8-18.5,7.8-26.6,9l-4.9,0.6
			c1,12.8,6.2,19.2,15.7,19.2c3.3,0,6.7-0.8,10.4-2.5c3.7-1.6,6.5-3.3,8.6-4.9l3.1-2.5l4.9,6.5c-1.1,1.5-3.3,3.5-6.5,5.9
			c-3.3,2.4-6.3,4.5-9.2,6.1c-7.9,4.4-16.5,6.5-25.9,6.5s-16.8-3.3-22.3-10C438.8,564.4,436.1,555.2,436.1,543.3z M514.8,452.8
			c0,3.8-2.5,6.9-7.4,9.2c-6.7,3.1-23.4,7.8-50.1,13.9l-3.7-8.2c12.8-6.7,24.4-13.5,34.7-20.4c10.4-6.9,16.8-11.2,19.2-12.7
			c1.4,1.9,2.9,4.9,4.6,9C513.9,447.7,514.8,450.8,514.8,452.8z M481.9,527.8c4.1-4.6,6.1-10.6,6.1-18s-2.2-11-6.5-11
			c-5.2,0-9.2,4.4-12,13.2c-2.8,8.8-4.2,17-4.2,24.6C472.3,535.3,477.8,532.4,481.9,527.8z"/>
		<path class="st0" d="M529.7,581.1c-4.7,0-8.6-1.6-11.6-4.7c-3.1-3.1-4.6-7.5-4.6-13.2s3.4-23.7,10.1-54.1
			c6.7-30.4,10.1-52.4,10.1-65.9l-1.2-9c10.6-3.7,20.6-5.5,29.8-5.5c1.4,1.9,2,5.2,2,10c0,10.9-3.4,32-10.3,63.2
			c-6.9,31.3-10.3,49.4-10.3,54.5c0,5.1,0.6,7.7,1.8,7.7l14.3-5.1l3.7,7.2c-4.6,3.7-10.3,7.1-16.9,10.2
			C540.1,579.5,534.4,581.1,529.7,581.1z"/>
		<path class="st0" d="M599,543.3c0-17,5.1-30.5,15.4-40.4c10.3-9.9,22-14.8,35-14.8c8,0,14.6,2,19.8,5.9c5.2,3.9,7.8,9.2,7.8,15.8
			c0,6.6-1.7,12.2-5,16.7c-3.3,4.5-7.4,8-12.2,10.4c-9.7,4.8-18.5,7.8-26.6,9l-4.9,0.6c1,12.8,6.2,19.2,15.7,19.2
			c3.3,0,6.7-0.8,10.4-2.5c3.7-1.6,6.5-3.3,8.6-4.9l3.1-2.5l4.9,6.5c-1.1,1.5-3.3,3.5-6.5,5.9c-3.3,2.4-6.3,4.5-9.2,6.1
			c-7.9,4.4-16.5,6.5-25.9,6.5s-16.8-3.3-22.3-10C601.7,564.4,599,555.2,599,543.3z M677.7,452.8c0,3.8-2.5,6.9-7.4,9.2
			c-6.7,3.1-23.4,7.8-50.1,13.9l-3.7-8.2c12.8-6.7,24.4-13.5,34.7-20.4c10.4-6.9,16.8-11.2,19.2-12.7c1.4,1.9,2.9,4.9,4.6,9
			C676.8,447.7,677.7,450.8,677.7,452.8z M644.8,527.8c4.1-4.6,6.1-10.6,6.1-18s-2.2-11-6.5-11c-5.2,0-9.2,4.4-12,13.2
			c-2.8,8.8-4.2,17-4.2,24.6C635.2,535.3,640.7,532.4,644.8,527.8z"/>
		<path class="st0" d="M594.4,432.5c3.2,2.1,4.5,5.8,3.8,11.2c-1,7.3-6.1,23.9-15.3,49.6L574,492c1.3-14.4,1.8-27.8,1.5-40.3
			c-0.3-12.5-0.4-20.1-0.3-23c2.3-0.1,5.7,0.2,10,1C589.6,430.5,592.7,431.4,594.4,432.5z"/>
		<path class="st0" d="M760.2,489.6c0.5,0.5,0.8,1.7,0.8,3.6c0,1.8-0.1,3.8-0.4,5.9c-0.3,2.1-0.8,6.8-1.4,14.2
			c-0.7,7.4-1.4,13.8-2,19.2c-6.9,61.3-25.6,91.9-56,91.9c-4.9,0-9.4-1.3-13.4-3.9c-4-2.6-6-5.9-6-10c0-5.4,3.3-10.4,10-14.9
			c6.7-4.5,15.7-8,27-10.4c0-0.1,0.4-2,1.2-5.7s1.4-6.7,1.6-9c-8.2,6-15.8,9-23,9c-7.1,0-13-2.8-17.6-8.4
			c-4.6-5.6-6.8-14.5-6.8-26.8c0-16.1,3.6-29.5,10.8-40.1c7.2-10.7,16.8-16,28.6-16c6.7,0,13.3,1.6,19.8,4.9
			c6.9-2.5,14.4-3.7,22.5-3.7L760.2,489.6z M699.6,600.7c-4.6,2.7-6.8,5.4-6.8,8c0,2.6,1.5,3.9,4.4,3.9c2.9,0,6.2-1.4,9.9-4.2
			c3.7-2.8,6.7-7.3,9.2-13.6C709.7,596,704.2,598,699.6,600.7z M722.8,500.2c-5.9,0-10.5,4.7-13.9,14.2c-3.4,9.5-5.1,20-5.1,31.5
			c0,11.5,2.6,17.3,7.8,17.3c3.4,0,7.4-1.3,12.1-3.9c3.8-22.9,6.5-41.7,8.2-56.6C728,501,725,500.2,722.8,500.2z"/>
		<path class="st0" d="M759.4,563.2c0-5.8,1.8-15.7,5.3-29.8c3.5-14.1,5.3-22.7,5.3-25.9c0-3.2-2.5-7.5-7.4-12.8l0.2-2.7
			c9.3-1.9,21.5-2.9,36.6-2.9c0.7,1.8,1,5,1,9.6c0,4.6-1.9,14.5-5.7,29.6c-3.8,15.1-5.7,24.5-5.7,28.2c0,3.7,1.4,5.5,4.1,5.5
			c3.9,0,8.5-1.4,13.7-4.3c0.5-3.3,1.9-9.5,4.1-18.8c4.9-21.8,7.4-37.4,7.4-46.8c4.8-1.9,13.3-2.9,25.7-2.9h3.9
			c0,6.4-1.9,18.9-5.7,37.5c-3.8,18.6-5.7,29.5-5.7,32.7c0,3.2,0.7,4.8,2,4.8c0.8,0,4.7-1.6,11.6-4.9l3.9,6.5
			c-12.1,10.1-22.7,15.1-31.9,15.1c-4.4,0-8.1-1.2-11.1-3.7c-3.1-2.5-4.8-5.7-5.2-9.6c-11,9-21,13.5-30,13.5
			c-4.8,0-8.7-1.6-11.7-4.7C760.9,573.5,759.4,569,759.4,563.2z"/>
		<path class="st0" d="M857.6,579.3h-3.9c0-6.4,1.9-18.7,5.8-36.8c3.9-18.1,5.8-28.4,5.8-30.9c0-4.5-1.9-9.3-5.7-14.3l-1.8-2.5
			l0.2-2.7c7.4-2,19.1-3.1,35.3-3.1c1.9,2.6,2.9,6.8,2.9,12.7c12.3-9.1,22-13.7,29.2-13.7c9.1,0,14.5,4.7,16.1,14.1
			c3.7-3,8.5-6.1,14.4-9.3c5.9-3.2,11.2-4.8,15.9-4.8s8.6,1.5,11.7,4.6c3.1,3.1,4.7,7.3,4.7,12.8c0,5.5-1.5,14.4-4.5,27
			c-3,12.5-4.5,20.9-4.5,25.2c0,4.3,0.6,6.4,1.8,6.4c0.8,0,3.6-1.3,8.4-3.9l2.2-1.2l3.7,7.2c-3.5,3.5-8.3,6.9-14.4,10.1
			c-6.1,3.2-11.4,4.8-16,4.8c-10.2,0-15.3-5.8-15.3-17.4c0-4.2,1.5-12.7,4.4-25.4c2.9-12.7,4.4-21,4.4-24.9s-1.2-5.8-3.5-5.8
			c-3.9,0-8.4,1.5-13.5,4.5c-0.3,2.7-2.1,12-5.6,27.8c-3.5,15.8-5.2,28.1-5.2,36.8c-3.9,1.8-13.2,2.7-27.8,2.7
			c-0.3-1.5-0.4-5.1-0.4-10.8c0-5.7,1.6-15.5,4.8-29.2c3.2-13.8,4.8-22.5,4.8-26.1c0-3.7-1.3-5.5-3.9-5.5c-4.1,0-8.6,1.6-13.5,4.9
			c-0.3,1.2-1.6,7.2-4.1,18c-4.9,21.5-7.4,36.8-7.4,46C878.6,578.3,870,579.3,857.6,579.3z"/>
		<path class="st0" d="M993.7,543.3c0-17,5.1-30.5,15.4-40.4c10.3-9.9,22-14.8,35-14.8c8,0,14.6,2,19.8,5.9
			c5.2,3.9,7.8,9.2,7.8,15.8c0,6.6-1.7,12.2-5,16.7c-3.3,4.5-7.4,8-12.2,10.4c-9.7,4.8-18.5,7.8-26.6,9l-4.9,0.6
			c1,12.8,6.2,19.2,15.7,19.2c3.3,0,6.7-0.8,10.4-2.5c3.7-1.6,6.5-3.3,8.6-4.9l3.1-2.5l4.9,6.5c-1.1,1.5-3.3,3.5-6.5,5.9
			c-3.3,2.4-6.3,4.5-9.2,6.1c-7.9,4.4-16.5,6.5-25.9,6.5c-9.4,0-16.8-3.3-22.3-10C996.4,564.4,993.7,555.2,993.7,543.3z
			 M1039.5,527.8c4.1-4.6,6.1-10.6,6.1-18s-2.2-11-6.5-11c-5.2,0-9.2,4.4-12,13.2c-2.8,8.8-4.2,17-4.2,24.6
			C1029.9,535.3,1035.4,532.4,1039.5,527.8z"/>
		<path class="st0" d="M1130.6,551.9c0,8.6-3.8,15.6-11.3,21c-7.6,5.5-16.2,8.2-25.8,8.2c-9.7,0-17.3-2-23-6.1
			c-5.7-4.1-8.5-7.7-8.5-10.8c0-1.9,2.4-5,7.2-9.3c4.8-4.3,8.8-6.9,12.1-7.9c6.8,5,12.4,13,16.8,23.9c5-0.4,7.6-2.8,7.6-7.1
			c0-6.3-5.5-15.1-16.5-26.7c-11-11.5-16.6-20.7-16.6-27.5c0-6.8,3.1-12.1,9.2-15.8c6.1-3.7,13.5-5.6,22.2-5.6
			c8.6,0,15.1,1.5,19.5,4.6c4.4,3.1,6.5,7.2,6.5,12.5c0,5.2-4.2,12.5-12.5,21.8c1,1,2.2,2.2,3.7,3.8c1.5,1.6,3.5,4.5,5.9,8.9
			C1129.4,544,1130.6,548.1,1130.6,551.9z M1119.6,505.3c0-4.8-3.3-7.2-9.8-7.2c-3.1,0-5.7,0.6-7.8,1.9c-2,1.3-3.1,2.8-3.1,4.4
			c0,3,3,7.2,9,12.7l3.1,2.7C1116.7,514.9,1119.6,510.1,1119.6,505.3z"/>
	</g>
	<g>
		<path class="st1" d="M1146.4,355.6c-12.1-6.9-30.2,1.9-27.5,17.3c2.3,12.9,19.9,11.1,25.1,1.5c0.8-1.6-1.2-3.3-2.5-2
			c-2.9,3-8.4,6.3-12.8,4.3c-9-4.1-2.5-15.6,4-17.7c15.2-5,22.3,14.6,14.4,25.2c-13.9,18.5-45.3,13.8-64.5,10.8
			c-14.7-2.3-29.4-4.9-44.1-7.5c27.6-3.3,57.5-23.5,59.3-51.9c0-0.5-0.2-0.9-0.5-1.1c-0.3-0.3-0.7-0.4-1.2-0.2
			c-14.9,5.4-27.7,13.8-40.1,23.6c-9.2,7.3-23.5,16.3-28.4,27.7c-23.8-4.2-47.7-8.3-71.8-11.3c-1.6-0.4-3.1-0.8-4.7-1.2
			c20.8-3.9,41.2-19.2,49-37.9c0.2-0.2,0.3-0.4,0.3-0.6c0.2-0.9,0.4-1.9,0.6-2.8c0.2-1.1-0.6-2-1.8-1.8c-25.9,5.5-46.7,24.3-65.3,42
			c-14.4-1.1-28.7-1.4-43.2-0.9c-6,0.2-12.1,0.5-18.2,0.9c9.3-3.3,18.1-7.9,26-14.1c4-3.1,7.8-6.7,10.9-10.8
			c4.9-6.5,5.2-12.4,7.3-20.1c0.3-1-0.6-1.9-1.6-1.6c-0.9,0.3-1.9,0.5-2.8,0.8c-0.1,0-0.1,0.1-0.2,0.1c-0.1,0-0.1,0-0.2,0
			c-19.6,8.7-45.1,25.7-52.7,46.9c-11.5,1.4-22.8,3.6-33.5,7.5c-13.9,5.1-28.2,15.4-20.7,31.7c0.4,0.8,1.7,0.2,1.4-0.6
			c-6.6-22.6,20-32,50.7-35.5c1.1,0.2,2.1,0.5,3.1,0.7c-0.2,12.9,5.3,26.2,15.2,34.3c13.5,11,28.6,11.9,45.3,11.5
			c0.1,0,0.3-0.1,0.4-0.1c0.2,0,0.4,0,0.6,0c1.1-0.1,1.7-1,1.5-2c-2.3-12.6-16.2-24.8-25.8-32c-7.3-5.5-16.9-11-26.6-13.6
			c25.2-1.6,50.3,0,60.2,0.8c1.5,0.1,3,0.3,4.5,0.4c0.7,13.5,14.6,24.7,25.3,31c12.2,7.2,32.2,14.5,46.6,11.5c0,0,0,0,0.1,0
			c0.1,0,0.2,0,0.3,0c0.1,0,0.2-0.1,0.3-0.1c0,0,0.1,0,0.1,0c0,0,0.1,0,0.1-0.1c0.1,0,0.1-0.1,0.2-0.1c0.3-0.1,0.5-0.3,0.8-0.4
			c0.8-0.4,1.1-1.6,0.6-2.3c-8.8-13.3-22.3-26.3-37.6-34.6c19.2,3,38.3,6.7,57.3,10.3c4.9,10.5,12.8,19.1,22.5,25.6
			c13.9,9.3,27.8,11.4,43.7,15c0.8,0.2,1.5-0.2,1.8-0.7c0.2-0.2,0.3-0.5,0.3-0.9c0-0.4,0-0.7-0.2-1c-3.3-12-14.2-20.3-24.7-26.1
			c-3.6-2-7.7-4.2-11.9-6.2c11,1.9,22,3.5,33.1,4.9c18.1,2.2,41.3,1.8,55.2-12.2C1159.3,380.1,1159,362.8,1146.4,355.6z
			 M913.1,328.7c0.4,0-0.2,4.2-0.2,4.4c-0.7,4.8-2.8,8.6-5.7,12.4c-4.3,5.8-10.1,10.5-16.2,14.5c-6.6,4.3-13.6,7.1-20.7,9.7
			c0.6-0.3,1.1-0.6,1.7-1c4.1-2.6,7.9-5.4,11.8-8.2c6.1-4.5,13.5-9.2,17.2-15.9c0.3-0.6-0.3-1.3-0.9-0.9c-8.1,5.2-15,12.8-22.8,18.5
			c-4.4,3.2-11.1,6.2-14.9,10.6c-0.2,0.1-0.4,0.2-0.6,0.2c0-0.1,0-0.2,0-0.3c0-0.1-0.1-0.2-0.2-0.3
			C871.5,352.8,893.4,337.4,913.1,328.7z M910.3,405c1.3,1.5,9.2,14,10.5,14.6c-14.1,1-27.6,0.1-39.7-8.1
			c-12.5-8.4-16.1-20.5-18.6-34c0.5,0.1,0.9,0.2,1.4,0.3c3.8,6.6,7.6,12.5,13.6,17.3c6.5,5.2,13.8,11.5,22,13.5
			c0.6,0.2,1.2-0.6,0.7-1.1c-5.6-5.2-12.5-9.3-18.7-13.8c-6.1-4.4-10.4-9.7-15.1-15.3c9.8,2.6,18.9,6.2,27.6,12.2
			C899.9,394.8,905.6,399.4,910.3,405z M977.9,341.3c1.2-0.6,19.8-7.9,19.7-7.5c0,0,0,0.1,0,0.1c-5.5,13.6-17.6,23.3-30.2,30.1
			c-7.8,4.2-15.3,5.5-23.3,6.7c6.3-3.7,12.5-7.6,18.7-11.4c7.1-4.4,15.3-8.6,21-14.9c0.6-0.6-0.1-1.6-0.9-1.2
			c-8.4,4.1-16.1,10.5-24,15.5c-6.3,4-12.7,7.9-18.5,12.5c-1.1,0.2-2.2,0.3-3.4,0.5c8.6-6.7,16.1-14.7,25.4-20.8
			C967.4,347.5,972.6,344.2,977.9,341.3z M976,388.1c2,1.2,30.3,25.7,30.7,27.5c-12.7,2.6-31.6-4.5-42.4-10.3
			c-11.3-6.1-23.7-15.8-27-28.8c1.5,0.1,3,0.3,4.5,0.4c2.9,4.9,8.3,8.3,12.7,11.7c7.1,5.4,14.9,13.6,23.6,15.9
			c0.8,0.2,1.6-0.7,1.1-1.4c-4.7-6.3-12.8-10.4-19.2-14.9c-5-3.5-10-6.9-14.6-10.8c2.2,0.3,4.5,0.5,6.7,0.8
			C960.4,380.6,968.3,383.1,976,388.1z M1059,358.6c11.2-8.6,22.7-15.9,35.9-20.9c-4.3,28.9-32,41.3-58.2,46.4
			c14.5-6.3,30.1-16.5,39-28.5c0.3-0.5-0.3-1.1-0.8-0.8c-7.6,5.2-14.2,11.6-21.8,16.9c-7,4.9-14.5,9-21.8,13.4
			c-0.7,0.1-1.3,0.2-2,0.3C1036.4,374.5,1048.9,366.3,1059,358.6z M1093.9,428.1c-12.7-2.6-24.2-4.7-35.8-11.4
			c-10.8-6.2-19.4-14.6-26-24.8c0.3,0,0.5,0.1,0.8,0.1c1.6,0.4,3.2,0.8,4.9,1.2c5,4.5,10.3,7.5,16.3,11.4
			c7.1,4.6,14.3,10.3,22.5,12.5c0.6,0.2,1.1-0.6,0.6-1.1c-5.7-5.6-13.7-9-20.4-13.3c-3.9-2.5-8-4.4-11.9-6.7
			c-0.7-0.4-1.4-0.9-2.1-1.4C1062.5,400,1087.1,409.8,1093.9,428.1z"/>
		<path class="st1" d="M246,389.2c13.1,13.2,35,13.6,52.1,11.5c10.4-1.3,20.8-2.9,31.2-4.6c-4,1.9-7.9,4-11.3,5.8
			c-9.9,5.5-20.2,13.2-23.3,24.6c-0.2,0.3-0.2,0.6-0.2,1c0,0.3,0.1,0.6,0.3,0.8c0.3,0.5,1,0.9,1.7,0.7c15-3.5,28-5.4,41.2-14.2
			c9.2-6.1,16.6-14.2,21.3-24.1c18-3.4,36-6.9,54.1-9.8c-14.5,7.9-27.2,20.1-35.5,32.6c-0.5,0.7-0.1,1.8,0.6,2.2
			c0.2,0.1,0.5,0.3,0.7,0.4c0,0,0.1,0.1,0.2,0.1c0,0,0.1,0,0.1,0c0,0,0.1,0,0.1,0c0.1,0,0.2,0.1,0.3,0.1c0.1,0,0.2,0,0.2,0
			c0,0,0,0,0.1,0c13.6,2.9,32.5-4,44-10.8c10.1-6,23.2-16.5,23.9-29.2c1.4-0.1,2.8-0.3,4.2-0.4c9.3-0.8,33-2.3,56.8-0.8
			c-9.2,2.5-18.3,7.7-25.1,12.9c-9,6.8-22.1,18.3-24.3,30.2c-0.2,1,0.4,1.8,1.4,1.9c0.2,0,0.4,0,0.6,0c0.1,0,0.2,0.1,0.4,0.1
			c15.8,0.4,29.9-0.5,42.7-10.9c9.4-7.7,14.6-20.2,14.4-32.4c1-0.2,2-0.4,3-0.7c29,3.3,54,12.2,47.8,33.5c-0.2,0.8,1,1.3,1.4,0.6
			c7.1-15.4-6.4-25.1-19.5-29.9c-10.1-3.7-20.8-5.8-31.6-7.1c-7.2-20.1-31.3-36.1-49.7-44.3c-0.1,0-0.1,0-0.2,0
			c-0.1,0-0.1-0.1-0.1-0.1c-0.9-0.2-1.8-0.5-2.7-0.7c-0.9-0.3-1.8,0.6-1.5,1.5c2,7.3,2.2,12.8,6.9,18.9c2.9,3.8,6.5,7.2,10.2,10.1
			c7.5,5.9,15.8,10.2,24.6,13.3c-5.8-0.4-11.5-0.7-17.2-0.8c-13.7-0.5-27.2-0.1-40.7,0.9c-17.6-16.7-37.1-34.4-61.6-39.6
			c-1-0.2-1.9,0.6-1.7,1.7c0.2,0.9,0.3,1.8,0.5,2.6c0.1,0.3,0.2,0.5,0.3,0.6c7.3,17.6,26.6,32.1,46.2,35.7c-1.5,0.3-3,0.7-4.5,1.1
			c-22.7,2.8-45.2,6.7-67.7,10.6c-4.7-10.8-18.1-19.2-26.8-26.1c-11.7-9.3-23.8-17.2-37.8-22.3c-0.5-0.2-0.8,0-1.1,0.2
			c-0.3,0.2-0.5,0.5-0.5,1c1.7,26.8,29.9,45.9,56,48.9c-13.8,2.4-27.7,4.9-41.6,7c-18.1,2.8-47.8,7.3-60.9-10.2
			c-7.5-10-0.7-28.5,13.6-23.8c6.1,2,12.2,12.8,3.7,16.7c-4.1,1.9-9.3-1.2-12-4c-1.2-1.3-3.2,0.4-2.4,1.8c4.9,9,21.5,10.7,23.7-1.4
			c2.6-14.5-14.5-22.8-25.9-16.3C237.1,363.7,236.8,380,246,389.2z M517.8,372.8c-0.1,0.1-0.1,0.1-0.2,0.3c0,0.1,0,0.2,0,0.2
			c-0.2-0.1-0.4-0.1-0.6-0.2c-3.6-4.1-9.9-6.9-14.1-10c-7.4-5.4-13.9-12.6-21.5-17.5c-0.6-0.4-1.2,0.3-0.9,0.9
			c3.5,6.3,10.5,10.8,16.2,15c3.6,2.7,7.3,5.4,11.1,7.8c0.5,0.3,1,0.6,1.6,0.9c-6.7-2.5-13.3-5.1-19.5-9.2
			c-5.7-3.7-11.2-8.1-15.2-13.6c-2.7-3.6-4.7-7.2-5.3-11.7c0-0.1-0.6-4.1-0.2-4.1C487.6,339.8,508.2,354.2,517.8,372.8z M487.1,390
			c8.2-5.7,16.8-9,26-11.5c-4.4,5.3-8.4,10.3-14.2,14.4c-5.9,4.2-12.3,8.1-17.6,13c-0.5,0.4,0,1.2,0.6,1.1
			c7.7-1.9,14.6-7.9,20.8-12.8c5.7-4.5,9.2-10.1,12.8-16.3c0.4-0.1,0.9-0.2,1.3-0.3c-2.4,12.8-5.7,24.2-17.5,32.1
			c-11.4,7.6-24.2,8.5-37.5,7.6c1.2-0.6,8.6-12.3,9.9-13.8C476.1,398.2,481.5,393.9,487.1,390z M422.6,352.5
			c8.8,5.8,15.8,13.3,24,19.7c-1.1-0.2-2.1-0.3-3.2-0.4c-5.5-4.4-11.5-8-17.4-11.8c-7.5-4.7-14.8-10.8-22.7-14.7
			c-0.7-0.4-1.4,0.5-0.9,1.1c5.3,5.9,13,9.9,19.8,14c5.9,3.6,11.7,7.3,17.6,10.8c-7.6-1.1-14.7-2.3-22-6.3
			c-11.9-6.4-23.3-15.6-28.5-28.4c0,0,0-0.1,0-0.1c-0.1-0.4,17.5,6.5,18.6,7.1C413,346.2,417.8,349.3,422.6,352.5z M432.1,378.2
			c2.1-0.3,4.2-0.5,6.3-0.7c-4.4,3.7-9.1,6.9-13.8,10.2c-6,4.2-13.7,8.1-18.1,14c-0.5,0.7,0.3,1.5,1,1.4c8.3-2.1,15.6-9.9,22.3-15
			c4.2-3.2,9.3-6.4,12-11c1.4-0.2,2.8-0.3,4.2-0.4c-3.1,12.3-14.8,21.4-25.5,27.1c-10.1,5.4-28,12.1-39.9,9.7
			c0.4-1.7,27.1-24.8,29-26C417,382.9,424.5,380.5,432.1,378.2z M359.5,385c-0.6-0.1-1.3-0.2-1.9-0.3c-6.9-4.1-14-8-20.6-12.6
			c-7.1-5-13.4-11-20.6-15.9c-0.4-0.3-1.1,0.3-0.8,0.8c8.4,11.4,23.1,21,36.8,26.9c-24.7-4.8-50.8-16.5-54.9-43.8
			c12.5,4.7,23.3,11.6,33.9,19.8C340.9,367,352.7,374.7,359.5,385z M346.7,393.7c-0.6,0.5-1.3,0.9-2,1.3c-3.7,2.2-7.6,4-11.2,6.4
			c-6.3,4-13.8,7.3-19.2,12.5c-0.4,0.4,0,1.1,0.6,1c7.8-2,14.6-7.5,21.2-11.8c5.6-3.6,10.7-6.5,15.4-10.7c1.6-0.4,3.1-0.8,4.6-1.1
			c0.2,0,0.5-0.1,0.7-0.1c-6.3,9.7-14.4,17.6-24.6,23.4c-11,6.3-21.9,8.2-33.8,10.7C304.9,408,328.1,398.8,346.7,393.7z"/>
		<g>
			<g>
				<path class="st2" d="M581.4,366.2c2.7,4.3,5.3,8.5,8,12.8c5.1,8.1,8.9,16.7,13.5,24.9c-5.4-16.9-9.3-34.3-14.8-51.1
					c-6-18.4-10.9-36.8-14.8-55.7c-3.9-18.5-2.6-55.5-30-50c-2.3,1.5-5.5,3-6.1,3.5c-4.3,3.6-6.1,7.2-6.5,11.9c3.9,0,7.3-1,10.7-3
					c0.5-0.3,1.1,0.1,0.8,0.7c-1.7,4-7.4,4.2-11.6,3.8c0,1.1,0,2.3,0.2,3.5c0.6,6.4,2.9,12.6,5.5,18.5c1.6-0.2,3.2-0.6,4.7-1.1
					c1.6-0.6,3.1-1.5,4.7-2c0.4-0.1,0.9,0.4,0.5,0.7c-2.2,2.6-6.1,3.2-9.5,3.5c0.5,1.2,1.1,2.4,1.7,3.6c1.3,2.6,2.6,5.2,3.9,7.8
					c1.4-0.1,2.7-0.5,4.1-1c1.4-0.5,2.9-1.1,4.4-0.7c0.5,0.1,0.7,0.8,0.3,1.1c-1.9,1.5-5,2.3-7.9,2.2c1.9,3.7,3.9,7.4,5.9,11.1
					c2.7,0.3,4.7-1.1,7.3-1.8c0.3-0.1,0.8,0.2,0.6,0.6c-1.4,2.4-4.3,3.2-7,2.9c2.1,3.8,4.2,7.5,6.3,11.2c3.3,0.3,6.2-1.5,9.4-2.1
					c0.4-0.1,0.6,0.5,0.4,0.7c-1.9,2.5-5.6,3.5-8.9,3.1c2,3.6,4.1,7.1,6.1,10.7c0.6,1.1,1.3,2.2,1.9,3.3c1.1-0.1,2.3-0.3,3.4-0.4
					c1.2-0.2,2.5-0.4,3.7,0c0.4,0.2,0.5,0.8,0.1,1c-1.1,0.7-2.3,0.7-3.6,0.8c-0.9,0.1-1.8,0.1-2.7,0.2c1.5,2.5,3,5.1,4.5,7.6
					c0.1,0,0.1,0,0.2,0c1.4,0.2,2.7,0.2,4.1,0c1.2-0.2,2.4-0.7,3.6-0.7c0.4,0,0.8,0.5,0.5,0.9c-1.6,1.9-5,1.8-7.5,1.3
					c2.9,4.8,5.8,9.6,8.8,14.4c0.8-0.1,1.6-0.3,2.3-0.6c1.2-0.5,2.2-1.3,3.4-2c0.4-0.3,1,0.1,0.8,0.6
					C586.1,364.9,583.7,365.8,581.4,366.2z M541.2,274.4c-2,1.9-5.3,2.3-7.9,2.3c-0.7,0-0.9-1.1-0.1-1.2c1.5-0.1,2.9-0.2,4.4-0.7
					c1.1-0.3,2.2-0.8,3.4-1C541.2,273.8,541.4,274.2,541.2,274.4z"/>
			</g>
			<path class="st2" d="M564.3,198.7c0.9-1.2,5.3-6.1,4.6-7.2c-1.4-2.4-4.9,0.3-6.9,2.2c-0.1,3.4-1,6.9-2.1,10.3
				C561.4,202.3,562.9,200.5,564.3,198.7z"/>
			<path class="st2" d="M556,180.2c-2.6,2.8-0.7,11.8,0.7,18.2c0.8-2.7,1.6-5.3,2.5-7.9c0.1-1.7,0.1-3.3,0-5
				C559.1,182.8,559.3,176.7,556,180.2z"/>
			<path class="st2" d="M563.2,220.4c-0.6-0.7-8.1,1.5-10.8,2.2c-1.4,3.6-2.7,7.2-3.9,10.9C552.9,231.6,567,224.6,563.2,220.4z"/>
			<path class="st2" d="M544.4,226.3c0.3,2.1,0.8,4.1,1.3,6.1c1.2-4.1,2.7-8.2,4.2-12.2c-0.1-0.1-0.2-0.3-0.3-0.5
				c-4.8-4.9-6.7-4.5-5.8,1.2C544,222.8,544.1,224.6,544.4,226.3z"/>
			<path class="st2" d="M550.9,210.3c0.2,1.9,0.4,3.7,0.6,5.6c1.4-4.1,2.6-8.3,3.8-12.4C550.6,193.1,550.6,207.7,550.9,210.3z"/>
			<path class="st2" d="M554.1,218.3c3.1-2.1,6.4-4,9.3-6.3c1.3-1,2.5-2.1,3.6-3.3c2-3.8,1.3-4.7-2.1-2.7c-2.5,0.3-5.2,2.6-7.3,4
				c-0.5,1.1-0.9,2.3-1.4,3.3C555.5,214.9,554.8,216.6,554.1,218.3z"/>
			<path class="st2" d="M470.8,218.4c-3.7-0.3-3.6,3.4-1.8,6.8c4.6,1.2,9.2,3.1,13.5,5.1c-1.8-2-3.5-4-5.3-6
				C477.1,224.3,472.2,218.5,470.8,218.4z"/>
			<path class="st2" d="M524.2,168c0.6-2.8,1.1-5.8,0.9-8.6c-0.1-0.7-0.1-2.8-0.6-3.2c-1-0.7-2,2.1-2.3,2.8c0,0.1-0.1,0.1-0.1,0.2
				c-0.5,1.1-1.9,0.7-2.1-0.3c-1-4.7,0.5-9.6-0.7-14.2c-0.3-1.2-1-3.8-2.2-4.4c-2-1-2.2,3-2.4,4.2c0,0.1,0,0.1-0.1,0.2c0,0,0,0,0,0
				c-0.2,0.6-0.7,0.8-1.2,0.7c-0.1,0-0.1,0-0.2-0.1c0,0-0.1,0-0.1,0c-0.1,0-0.2-0.1-0.2-0.2c0,0-0.1-0.1-0.1-0.1
				c0,0-0.1-0.1-0.1-0.2c0-0.1-0.1-0.2-0.1-0.3c0,0,0,0,0,0c-0.5-4.6-1.5-15.9-6.5-18.6c-0.5,4.1,0.4,7.9,2,11.6c4.4,8,6,17.4,9,26
				c1.6,4.6,3.3,9.3,5,13.9C522.6,174.2,523.6,171.1,524.2,168z"/>
			<path class="st2" d="M485.1,239.2c-1.7,1.1-4.9,3-5.8,4.6c-0.8,1.5-1.3,5,1.4,5.6c1.9,0.4,6.1-3.7,7.8-5c1.3-1,3.1-3.1,4.9-4.4
				c-4.6-1.9-9.1-3.6-13.7-5.4c-4.7,0.7-11.1,1.5-13.4,4.3c-6,7.3,6.2,3.1,8.7,2c3-1.3,5.9-2.9,9.1-3.7
				C485.2,237.2,486.2,238.5,485.1,239.2z"/>
			<path class="st2" d="M498.1,197.6c-4.2,1.8-10.7,1.5-4,5.4c4.4,2.6,9.7,3.5,14.6,5c-3.6-6.2-7.2-12.5-10.6-18.9
				c-3.4-6.6-7-13.1-10.7-19.6c-0.4,0.1-0.8,0-1-0.5c-2.6-3.7-8.2-6.7-12.6-7.8c-1.9-0.4-9.1-1.6-9.2,2.2c0,1,3.4,3.4,4.4,4.2
				c5.2,4.3,11.2,7.3,16.6,11.3c0.9,0.6,0.4,2-0.6,2.1c-3.4,0.4-11.6-0.3-8,5.7c1,1.6,5.3,3.3,7.3,4.2c4.4,2,9,3.4,13.7,4.5
				C498.9,195.7,499.1,197.1,498.1,197.6z"/>
			<path class="st2" d="M497.8,250.4c2.8-1.6,5.3-3.5,8-5.3c-2.2-0.9-4.5-1.8-6.7-2.7c-0.9-0.4-1.8-0.7-2.7-1.1
				c-1.7,2.3-5.3,5.8-5.6,8C489.9,256,495.5,251.7,497.8,250.4z"/>
			<path class="st2" d="M496.5,229.7c-0.2-0.2-4.5-5.4-6-5.5c-4-0.2-4.2,4.2-3.8,8c0,0.1,0,0.1,0,0.2c1.1,0.5,2.3,1.1,3.4,1.6
				c4,1.8,8.1,3.6,12.1,5.3C501.2,235.7,498.9,232.5,496.5,229.7z"/>
			<path class="st2" d="M480.5,126.6c-1.3,1.7-1.7,4.1-2.7,6c-0.1,0.4-0.4,0.6-0.7,0.7c0,0,0,0-0.1,0c-0.1,0-0.2,0-0.3,0
				c0,0,0,0-0.1,0c-0.1,0-0.2,0-0.3-0.1c0,0-0.1,0-0.1,0c-0.1,0-0.1-0.1-0.2-0.1c-0.3-0.2-0.4-0.5-0.4-0.8c-0.3-2.4-0.6-4.9-0.9-7.4
				c-0.4-2.4-0.5-7-2.3-8.8c-3.2-3.4-2.6,6.8-2.4,8.5c0.4,2.3,1,4.6,1.4,6.9c3.7,6.6,6.9,13.5,10.5,20.3c2.1,3.9,4.2,7.8,6.3,11.7
				c0.3-2.3,0.9-4.6,1.2-6.7c0.4-3.2,0.7-6.4,0.4-9.6c-0.3-3-2.3-9.4-4.1-1.9c0,0,0,0,0,0c-0.1,0.6-0.6,0.9-1.2,0.8
				c-0.5,0-0.9-0.3-1-0.9l0,0c-0.8-4.8,0-9.7,0.2-14.6C484,128.5,484,122,480.5,126.6z"/>
			<path class="st2" d="M543.2,147.7c0.7-2.4,2.3-9.6-3.3-8.4c-0.9,0.2-3.3,4-4,4.8c-0.1,0.1-0.2,0.2-0.3,0.3
				c0.6,7.1,0.8,14.2,1,21.1C538.9,159.6,541.4,153.8,543.2,147.7z"/>
			<path class="st2" d="M538.5,124.3c0.6-2.2,3.4-11.2-2.8-7.2c-1.4,0.9-2.4,4.7-3.3,7c1.1,4.2,1.9,8.7,2.5,13.2
				C536,132.9,537.4,128.6,538.5,124.3z"/>
			<path class="st2" d="M542.4,186.7c-1.2,0-3.5,1.9-5.2,3.4c-0.1,6.7-0.3,13.5-0.6,20.2c3.1-4.5,6.3-9,8.4-14.2
				C546.2,193.2,548.1,186.8,542.4,186.7z"/>
			<path class="st2" d="M536.9,171.5c0.2,4.6,0.3,9.3,0.3,13.9c1.7-2.6,3.2-5.4,4.4-8.3c1.9-4.6,4.2-17.2-3.8-8.1
				c-0.3,0.3-0.7,0.4-1,0.4C536.9,170.1,536.9,170.8,536.9,171.5z"/>
			<path class="st2" d="M516.8,180.1c-3-0.1-8.6-2-4.2,5.4c1.5,2.5,6.5,4.3,10.3,5.3c-0.3-0.9-0.6-1.7-0.9-2.6
				c-4.6-12.9-10.9-26.5-13.9-40.3c-2.7-1.3-9.3-3.4-10.1,0.2c-0.3,1.3,3.2,4.9,4.2,6.2c2.8,3.3,6.1,6.1,9.1,9.2
				c0.9,1,0.1,2.7-1.3,2.1c-1.3-0.6-7-3.4-7.6-2.9c-2.1,1.4,2.7,7.2,3.7,8.1c3.2,3,7,5.6,11.1,7.1
				C518.3,178.2,518,180.2,516.8,180.1z"/>
			<path class="st2" d="M540.9,273.8c-1.2,0.2-2.2,0.7-3.4,1c-1.4,0.4-2.9,0.6-4.4,0.7c-0.7,0-0.6,1.2,0.1,1.2
				c2.6-0.1,5.9-0.4,7.9-2.3C541.4,274.2,541.2,273.8,540.9,273.8z"/>
			<path class="st2" d="M461.7,242.3c0.3,6.5,8.7,3.5,15.5,0.5c-1.8,1.9-3.1,4.2-2.5,6.3c0.8,2.9,3.7,3,6.1,2.5
				c2.7-0.6,6.2-2.6,9.2-5c-1.7,2.8-2.5,4.9-2.1,8.1c0.1,0.6,0.6,1,1.2,0.9c6.6-0.4,13.7-5.3,19-9.7c7.4,2.9,15,5.3,23,4.9
				c-0.6,0.7-1.2,1.5-1.8,2.5c-2.9,5-2.8,10.8-2,16.4c2.6,18,13.6,35,22.1,50.7c9.3,17.2,19.3,34,29.6,50.6c5.6,8.9,11,17.6,15.7,27
				c2.8,5.6,5.6,11.7,10.7,15.5c1.2,0.9,2.5-0.4,2.1-1.6c0.5-0.4,0.9-1,0.6-1.8c-7.3-22.8-12.2-46.2-19.8-69
				c-6.3-18.9-10.6-38.9-13.7-58.6c-2.4-15.6-8-43.9-28.2-38.7c0-0.1,0-0.1-0.1-0.2c-0.1-0.1-0.2-0.2-0.3-0.4
				c-0.1-0.1-0.2-0.1-0.2-0.2c0.6-2.8,1.3-5.5,2.1-8.2c5.2-0.7,20.7-7.7,18.5-14.8c-0.8-2.7-4.3-2.5-7.7-1.8
				c6.1-3.7,13.7-8.9,12.4-13.6c-0.8-3.1-4.1-2.6-7.4-1.2c4.6-4.9,9.4-11.1,8.1-15.8c-1.8-6.3-7.1-1.4-10.2,2.9
				c-0.1-0.6-0.2-1.2-0.3-1.8c0-0.1-0.1-0.2-0.2-0.3c0.5-5.3,0.3-11.4-2.8-12.4c-6.8-2.3-5.4,11.4-5.1,13.7c0.2,2.1,0.4,4.6,0.7,6.9
				c-1.3-0.8-2.6-0.8-3.8,0c-3.6,2.2-2.8,10.2-1.8,16.4c-1.8-1.7-4-2.1-5.9,1c-3.3,5.2-0.8,16.4,2.2,21.7c-0.6,2.6-0.9,5.2-1,7.9
				c-1.4,0.6-2.9,1.2-4.2,1.7c0,0,0,0,0,0c-0.6-7.9-1.8-15.6-3.6-23.2c0.2-3.4,0.3-6.8,0.5-10.2c5.5-4.7,16-18.5,12.4-25.6
				c-1.9-3.8-5.4-3.1-8.7-1.3c4.5-7.1,10-17.6,6.4-21.9c-1.9-2.3-4.1-1.8-6.1-0.3c4-8.7,10.3-23.3,5.1-27.8
				c-2.6-2.3-5.4-0.1-7.8,2.5c2.9-8.6,8.1-21.6,3.4-25.8c-4.7-4.2-8.2,3.3-9.7,8.8c0,0,0-0.1,0-0.1c-0.2-0.6-1.1-0.5-1.1,0.1
				c-1.6,16,2,33,3,49c0.9,13.8-0.8,28.2,0.2,42.1c-2-7.1-4.2-14-6.6-21c-1.2-3.3-2.4-6.7-3.6-10c2.4-6.8,5-15.7,4-22.9
				c-0.8-5.4-3.2-5.2-5.4-2.5c-0.2-5.7,1.1-12.3-3.2-16.5c-2-1.9-3.5-1.1-4.5,0.5c-0.9-6.4-2.9-14.5-8.7-16
				c-0.6-0.1-1.1,0.4-1.2,0.9c-0.8,4.7-0.1,10,2.4,14.1c0.2,2.3,0.6,4.6,1,6.8c-3.7-3.6-10.2-6.9-12.2-0.9c-1.9,5.4,4,11.6,9.2,16.3
				c-2.8-0.8-5.3-0.6-5.7,2.9c-0.7,5.2,5.8,10.5,11.5,13.8c-2.2,0.1-4,0.8-3.9,3.8c0.3,6.5,10.9,10.5,17.2,11.6
				c6.1,17.4,11.5,34.8,14.8,53c0,0.1,0.1,0.2,0.2,0.3c-1.5,0.6-2.9,1.3-4.2,2.2c-1.2-8.6-8.1-16.2-12.2-23.6
				c-6.9-12.3-14.2-24.2-20.7-36.7c-3.6-7-7.3-13.8-11.1-20.7c1.4-5.1,1.8-11.1,1.9-16.1c0.1-4.3-0.1-10-4.5-12.2
				c-0.5-0.3-1.1,0-1.4,0.5c-0.2,0.5-0.5,0.9-0.7,1.3c0-3.2,0.4-6.4,0.5-9.7c0.1-2.2,0.5-5.5-1-7.3c-3.2-3.8-5.9,1-7.7,4.8
				c-0.3-2.7-0.7-5.3-1.2-7.9c-0.5-2.2-1.2-6.9-4.1-7.4c-3-0.5-4.3,3.7-4.4,6c-0.1,2.5,0.4,4.9,1.1,7.3c-1.8-2.9-3.6-5.8-5.7-8.6
				c-0.7-0.9-2.3-0.1-1.8,1c6.5,15.5,14.8,30.4,23,45.1c-7-5.1-20.2-10.7-22.8-3.3c-1.3,3.8,4.3,7.7,6.7,9.5c3.5,2.7,7.3,5,11,7.4
				c0.8,0.5,3.2,1.5,3.5,2.2c-0.3-1.1-7.9,0-10.5,0.4c-0.6,0.1-1.2,0.7-1.1,1.3c1.2,7.8,10.6,11.2,17,13.4c1.9,0.7,4.1,1.1,6,1.8
				c0.1,0,0.1,0,0.2,0.1c-0.3,0-0.7,0.1-1.1,0.2c-2.1,0.6-4.5,0.6-5.7,2.6c-0.2,0.3-0.1,0.8,0.1,1.1c3.9,6,15.4,7.5,22.2,9.1
				c1.8,3.1,3.7,6.2,5.5,9.3c5.7,9.5,13.9,19.6,17.6,30c0,0-0.1,0-0.1,0.1c-10-2.2-19.6-5.6-29.1-9.5c-1.2-6.8-6.6-14.2-12.2-17.5
				c-1.7-1-4-2.4-5.9-1c-2.8,2,0,5.8-1.2,7.9c-0.1-0.1-0.3-0.3-0.4-0.5c-1.1-1.2-2.1-2.5-3.2-3.7c-1.2-1.4-2.4-2.8-3.7-4.1
				c-1.7-1.7-5.6-6.6-8.6-6.2c-3.3,0.5-3.9,3.5-3.4,6.5c-5.6-4.9-14.4-10.2-19-6.6c-4.7,3.8,1.2,8.1,6.2,10.7
				c-0.2,0.5,0.1,1.1,0.7,1.3c8.4,1.8,16.2,4.3,23.9,7.1C470.2,234.5,461.5,236.7,461.7,242.3z M564.9,205.9c3.4-2,4.1-1.1,2.1,2.7
				c-1.1,1.2-2.3,2.3-3.6,3.3c-2.9,2.4-6.1,4.3-9.3,6.3c0.7-1.7,1.4-3.4,2.1-5.1c0.4-1.1,0.9-2.2,1.4-3.3
				C559.7,208.5,562.4,206.2,564.9,205.9z M562,193.7c2-1.9,5.5-4.6,6.9-2.2c0.7,1.1-3.7,6-4.6,7.2c-1.4,1.8-2.9,3.6-4.4,5.2
				C561,200.6,561.9,197.1,562,193.7z M556,180.2c3.2-3.5,3.1,2.6,3.2,5.4c0.1,1.7,0.1,3.3,0,5c-0.9,2.6-1.8,5.2-2.5,7.9
				C555.4,192,553.5,183,556,180.2z M555.3,203.5c-1.2,4.1-2.4,8.3-3.8,12.4c-0.2-1.9-0.5-3.7-0.6-5.6
				C550.6,207.7,550.6,193.1,555.3,203.5z M552.4,222.6c2.6-0.6,10.1-2.9,10.8-2.2c3.8,4.2-10.3,11.2-14.6,13
				C549.7,229.8,551,226.2,552.4,222.6z M549.7,219.8c0.1,0.2,0.2,0.3,0.3,0.5c-1.5,4-3.1,8.1-4.2,12.2c-0.5-2-1-4-1.3-6.1
				c-0.3-1.8-0.4-3.6-0.5-5.4C543,215.3,544.9,214.9,549.7,219.8z M535.7,117.1c6.2-4,3.4,4.9,2.8,7.2c-1.1,4.3-2.5,8.6-3.6,13
				c-0.6-4.5-1.4-8.9-2.5-13.2C533.3,121.8,534.3,118,535.7,117.1z M535.6,144.4c0.1-0.1,0.2-0.1,0.3-0.3c0.6-0.8,3.1-4.6,4-4.8
				c5.6-1.2,4,6,3.3,8.4c-1.8,6-4.3,11.9-6.5,17.8C536.4,158.6,536.2,151.5,535.6,144.4z M536.9,171.5c0-0.7-0.1-1.4-0.1-2.1
				c0.3,0,0.7-0.1,1-0.4c8-9.1,5.7,3.5,3.8,8.1c-1.2,2.9-2.7,5.7-4.4,8.3C537.3,180.8,537.2,176.1,536.9,171.5z M537.2,190.1
				c1.7-1.5,4-3.4,5.2-3.4c5.6,0.1,3.8,6.5,2.6,9.4c-2.1,5.1-5.2,9.7-8.4,14.2C537,203.5,537.2,196.8,537.2,190.1z M512.6,185.5
				c-4.4-7.4,1.2-5.5,4.2-5.4c1.2,0,1.5-1.9,0.4-2.3c-4.1-1.5-7.9-4.1-11.1-7.1c-0.9-0.9-5.7-6.6-3.7-8.1c0.7-0.5,6.4,2.3,7.6,2.9
				c1.4,0.6,2.2-1.1,1.3-2.1c-3-3.1-6.4-5.9-9.1-9.2c-1-1.3-4.5-4.9-4.2-6.2c0.7-3.6,7.3-1.5,10.1-0.2c3.1,13.8,9.3,27.4,13.9,40.3
				c0.3,0.9,0.6,1.7,0.9,2.6C519.1,189.8,514.1,188,512.6,185.5z M517.1,163.5c-3-8.6-4.6-18-9-26c-1.6-3.7-2.4-7.6-2-11.6
				c5,2.7,6,14,6.5,18.6c0,0,0,0,0,0c0,0.1,0,0.2,0.1,0.3c0,0.1,0.1,0.1,0.1,0.2c0,0,0.1,0.1,0.1,0.1c0.1,0.1,0.1,0.1,0.2,0.2
				c0,0,0.1,0,0.1,0c0.1,0,0.1,0.1,0.2,0.1c0.5,0.1,1.1-0.1,1.2-0.7c0,0,0,0,0,0c0-0.1,0-0.1,0.1-0.2c0.2-1.2,0.4-5.2,2.4-4.2
				c1.2,0.6,1.9,3.2,2.2,4.4c1.3,4.6-0.2,9.5,0.7,14.2c0.2,1,1.6,1.4,2.1,0.3c0-0.1,0.1-0.1,0.1-0.2c0.3-0.7,1.4-3.5,2.3-2.8
				c0.5,0.4,0.5,2.6,0.6,3.2c0.2,2.9-0.3,5.8-0.9,8.6c-0.6,3.1-1.7,6.2-2.2,9.4C520.4,172.7,518.7,168.1,517.1,163.5z M482.1,151.7
				c-3.5-6.7-6.8-13.6-10.5-20.3c-0.5-2.3-1-4.6-1.4-6.9c-0.3-1.6-0.9-11.8,2.4-8.5c1.8,1.9,1.9,6.4,2.3,8.8
				c0.4,2.4,0.6,4.9,0.9,7.4c0,0.3,0.1,0.6,0.4,0.8c0.1,0,0.1,0.1,0.2,0.1c0,0,0.1,0,0.1,0c0.1,0,0.2,0.1,0.3,0.1c0,0,0,0,0.1,0
				c0.1,0,0.2,0,0.3,0c0,0,0,0,0.1,0c0.3-0.1,0.6-0.3,0.7-0.7c1-1.9,1.4-4.3,2.7-6c3.4-4.6,3.5,1.9,3.4,4c-0.2,4.9-1,9.7-0.2,14.6
				l0,0c0,0.5,0.5,0.9,1,0.9c0.5,0.1,1.1-0.2,1.2-0.8c0,0,0,0,0,0c1.8-7.5,3.8-1.2,4.1,1.9c0.3,3.2,0,6.4-0.4,9.6
				c-0.3,2.1-0.8,4.4-1.2,6.7C486.3,159.5,484.2,155.6,482.1,151.7z M494.1,203c-6.7-3.9-0.1-3.6,4-5.4c1-0.5,0.8-1.9-0.2-2.1
				c-4.7-1.1-9.3-2.5-13.7-4.5c-2-0.9-6.4-2.5-7.3-4.2c-3.5-5.9,4.7-5.2,8-5.7c1-0.1,1.5-1.5,0.6-2.1c-5.4-4-11.4-7-16.6-11.3
				c-0.9-0.8-4.4-3.3-4.4-4.2c0.2-3.7,7.4-2.6,9.2-2.2c4.4,1.1,10,4.1,12.6,7.8c0.3,0.4,0.7,0.5,1,0.5c3.6,6.5,7.3,13,10.7,19.6
				c3.4,6.4,6.9,12.7,10.6,18.9C503.7,206.5,498.4,205.6,494.1,203z M537.1,250.6c0.6-0.5,3.8-2,6.1-3.5c27.4-5.6,26.2,31.5,30,50
				c4,18.9,8.8,37.3,14.8,55.7c5.5,16.8,9.4,34.3,14.8,51.1c-4.6-8.3-8.4-16.9-13.5-24.9c-2.7-4.3-5.3-8.5-8-12.8
				c2.3-0.4,4.7-1.3,5.5-3.3c0.2-0.5-0.3-0.9-0.8-0.6c-1.1,0.7-2.1,1.5-3.4,2c-0.7,0.3-1.5,0.4-2.3,0.6c-3-4.8-5.9-9.6-8.8-14.4
				c2.5,0.5,5.8,0.6,7.5-1.3c0.3-0.4,0-0.9-0.5-0.9c-1.2,0-2.4,0.5-3.6,0.7c-1.4,0.2-2.7,0.2-4.1,0c-0.1,0-0.2,0-0.2,0
				c-1.5-2.5-3-5.1-4.5-7.6c0.9-0.1,1.8-0.1,2.7-0.2c1.3-0.1,2.5-0.1,3.6-0.8c0.4-0.2,0.3-0.9-0.1-1c-1.2-0.5-2.4-0.2-3.7,0
				c-1.1,0.1-2.3,0.3-3.4,0.4c-0.6-1.1-1.3-2.2-1.9-3.3c-2-3.5-4.1-7.1-6.1-10.7c3.3,0.4,7-0.5,8.9-3.1c0.2-0.3,0-0.8-0.4-0.7
				c-3.2,0.7-6.2,2.5-9.4,2.1c-2.1-3.7-4.2-7.5-6.3-11.2c2.7,0.3,5.6-0.5,7-2.9c0.2-0.4-0.2-0.7-0.6-0.6c-2.6,0.8-4.6,2.2-7.3,1.8
				c-2-3.7-4-7.3-5.9-11.1c2.8,0,6-0.7,7.9-2.2c0.4-0.4,0.3-1-0.3-1.1c-1.5-0.4-2.9,0.2-4.4,0.7c-1.4,0.5-2.7,0.8-4.1,1
				c-1.3-2.6-2.7-5.2-3.9-7.8c-0.6-1.2-1.1-2.4-1.7-3.6c3.4-0.3,7.3-0.9,9.5-3.5c0.3-0.4-0.1-0.9-0.5-0.7c-1.6,0.5-3.1,1.4-4.7,2
				c-1.5,0.6-3.1,0.9-4.7,1.1c-2.6-5.9-4.9-12.1-5.5-18.5c-0.1-1.2-0.2-2.4-0.2-3.5c4.2,0.5,10,0.3,11.6-3.8c0.2-0.6-0.4-1-0.8-0.7
				c-3.5,2-6.9,3-10.7,3C530.9,257.8,532.8,254.2,537.1,250.6z M455.1,224.3c-0.3-0.2-0.8-0.4-1.5-0.8c-3.4-2-6.5-6.2-0.5-6
				c3.7,0.1,8.4,3.5,11.6,6.8C461.4,223.8,458.2,223.7,455.1,224.3z M505.8,245.1c-2.7,1.7-5.2,3.7-8,5.3c-2.2,1.3-7.9,5.6-7-1.1
				c0.3-2.2,3.9-5.7,5.6-8c0.9,0.4,1.8,0.7,2.7,1.1C501.3,243.3,503.5,244.2,505.8,245.1z M486.8,232.2c-0.3-3.8-0.2-8.2,3.8-8
				c1.5,0.1,5.8,5.3,6,5.5c2.3,2.8,4.6,6,5.7,9.5c-4.1-1.7-8.1-3.5-12.1-5.3c-1.1-0.5-2.2-1-3.4-1.6
				C486.7,232.3,486.8,232.2,486.8,232.2z M493.4,240.1c-1.8,1.3-3.6,3.4-4.9,4.4c-1.6,1.3-5.9,5.4-7.8,5c-2.8-0.6-2.2-4.2-1.4-5.6
				c0.9-1.6,4.1-3.5,5.8-4.6c1.1-0.7,0-2-1-1.8c-3.2,0.8-6.1,2.4-9.1,3.7c-2.5,1.1-14.8,5.3-8.7-2c2.4-2.8,8.7-3.6,13.4-4.3
				C484.3,236.5,488.8,238.3,493.4,240.1z M469,225.2c-1.9-3.4-2-7.1,1.8-6.8c1.4,0.1,6.3,5.9,6.4,6c1.8,1.9,3.6,4,5.3,6
				C478.2,228.4,473.6,226.5,469,225.2z"/>
			<path class="st2" d="M453.1,217.5c-6-0.1-2.9,4,0.5,6c0.7,0.4,1.2,0.7,1.5,0.8c3.1-0.6,6.4-0.5,9.6,0
				C461.5,221,456.8,217.6,453.1,217.5z"/>
		</g>
		<g>
			<g>
				<g>
					<path class="st3" d="M670.4,212.1c0,0,0.1-0.1,0.2-0.1c-0.1-0.4-0.1-0.9-0.1-1.3c-0.1,0.2-0.1,0.4-0.2,0.6c0,0.3,0,0.6,0,0.9
						C670.3,212.2,670.3,212.1,670.4,212.1z"/>
					<path class="st3" d="M719.2,238.3c-8.8-22.8-33.1-18.7-53.1-22.1c-3.5,1.3-7.6,1.4-11.3,1.8c-12.3,1.2-24.6,2.1-32.1,11.9
						c2.9,1.5,5.9,1.8,9.3,2.7c0.5,0.1,0.4,0.8,0,1c-3.5,1.4-7.4,0-10.4-2.2c-0.6,0.9-1.2,1.8-1.7,2.9c-1.3,2.6-2.2,5.4-2.8,8.3
						c0.8,0.4,1.7,0.8,2.6,1.1c1.4,0.4,2.9,0.4,4.4,0.8c0.3,0.1,0.4,0.6,0.1,0.7c-2.4,1.2-5.1,0.3-7.4-1.1
						c-0.6,3.5-0.7,7.2-0.4,10.8c0.6,0.2,1.2,0.4,1.8,0.5c1.3,0.2,2.7,0.2,3.9,0.7c0.5,0.2,0.2,0.8-0.1,1c-1.6,0.6-3.6,0.4-5.3-0.3
						c0.3,2.9,0.9,5.7,1.7,8.4c4,1,8.1,1,12.4,1c0.5,0,0.6,0.6,0.2,0.8c-3.3,2.4-7.8,1.9-11.9,0.4c0.2,0.7,0.5,1.3,0.7,2
						c1.4,3.5,3.3,6.5,5.5,9.2c1.5,0.4,3,0.6,4.5,0.6c2.6,0.1,5.2-0.3,7.7,0.1c0.7,0.1,0.5,1,0,1.2c-2.9,1.2-6.5,1.4-9.9,0.8
						c3.7,3.9,7.9,7.2,12.3,10.6c3.6,0.7,7.2,1.4,10.9,2.1c0.3,0.1,0.3,0.6,0,0.7c-2.3,0.6-4.8,0.6-7.2,0.3c2.5,2.2,4.9,4.5,7.1,7
						c1.6,0.3,3.1,0.4,4.8,0.4c2,0,4-0.3,5.9,0.5c0.4,0.2,0.4,0.6,0,0.8c-2.3,1-5.6,1.2-8.5,0.8c2.3,2.8,4.5,5.7,6.4,8.7
						c0.7,0.1,1.4,0.2,2.2,0.2c1.3,0.1,2.8-0.1,4,0.5c0.4,0.2,0.3,0.8,0,1c-1.2,0.9-3.1,0.7-4.9,0.3c2.3,3.9,4.3,7.9,6,12.2
						c0.7,0,1.4,0,2.1,0c1.5-0.1,2.7-0.1,4,0.5c0.3,0.1,0.3,0.6,0,0.8c-1.5,0.8-3.5,0.9-5.4,0.7c1.1,3.1,2.1,6.4,2.9,9.7
						c0.4,0.1,0.9,0.1,1.3,0.2c1,0.1,2.3,0,3,0.8c0.2,0.3,0.2,0.6-0.1,0.8c-1,0.7-2.7,0.1-3.8-0.1c0,0,0,0,0,0c1,4.5,1.7,9,2.3,13.5
						c0.4,0.1,0.8,0.1,1.3,0.2c1,0.1,2.1,0,3.1,0.4c0.4,0.2,0.3,0.7,0,1c-1.1,0.7-2.6,0.6-4.1,0.2c0.5,4.6,0.9,9.2,1.2,13.8
						c1.2,0.2,2.4,0.5,3.5,1.4c0.2,0.2,0,0.6-0.3,0.6c-1.1-0.1-2.1-0.3-3.1-0.5c0,0.4,0,0.7,0.1,1.1c0.4,7-0.3,13.6-0.6,20.6
						c-0.2,5.4,0.8,9.5,2.1,14.1c1.1-8.2,3.1-16.2,4.2-24.4c1.6-11.9,1.9-24.7,1.2-36.8c-1-17.2,3.8-27.4,14.5-40.9
						C710.7,286.5,729.1,263.7,719.2,238.3z"/>
				</g>
			</g>
			<path class="st3" d="M615.2,150.6c6.1,0.3,9.7,3,14,7.2c6.8,6.7,14.1,13,20.8,19.8c1.5,1.5,3,3.1,4.5,4.7c0.2-1,0.4-2,0.4-3.1
				c-0.1-2.5-0.8-5-1.4-7.4c-0.9-3.5-2.3-7.1-2.3-10.7c-6.4-6.2-15.7-10.1-19.3-18.9c-1.7-4.2-2.7-9-3.8-13.7
				c-0.6,0.2-1.3,0.2-1.8-0.4c-3.8-4.9-11.6-1.9-16.9-2c-6.4-0.1-12.4-2.4-18.8-2.6c4.5,15.9,19.2,25.9,22.7,42
				c2.6,11.6,3.5,22.5,17.4,25.6c8.4,1.9,15.7-2.9,23.7-3.4c0,0-0.1-0.1-0.1-0.1c-0.5,0.1-0.9-0.3-0.9-0.8c0,0,0,0,0-0.1
				c-3-3.2-6.1-6.2-9.1-9c-9.2-8.6-18.5-19.6-29.6-25.6C614.1,151.7,614.4,150.5,615.2,150.6z"/>
			<path class="st3" d="M668.9,159.5c2.8-5.4-0.2-11.3,0.8-16.9c0.6-3.6,1.5-3.4,2.7-6.8c2.5-6.9,2.8-11.4,1.6-18.7
				c-1-6.2-2.7-12.2-3.6-18.3c-1-6.5-0.1-13.2-1.4-19.7c-1.1-5.3-3.6-10.3-5.6-15.2c-4.7-11.3-7.4-24.4-15.8-33.6
				c-5.1,12.2-12.3,25.1-14.5,37.9c-1.1,6.5,1.6,11,1.5,17.4c-0.1,5.1-2.3,10.2-3.9,15c-2.8,8.5-3.3,15.2-0.7,23.9
				c2.6,8.9,3,17.9,9.7,25c3.3,3.5,8.1,6.4,12,9.8c0.4-0.3,1-0.3,1.2,0.3c0.1,0.3,0.2,0.7,0.3,1.1c0.2,0.3,0.5,0.5,0.7,0.8
				c-0.8-3.3-1.4-6.5-1.9-9.9c-3.1-21.2-1.8-43.3-1.8-64.7c0-1.1,1.4-1.1,1.8-0.2c3.8,9.4,2.2,20.2,2.2,30.1
				c0,11.6-0.1,23.1,1.4,34.6c0.9,6.3,2.5,12.5,4.3,18.7C662.4,166.2,666.7,163.7,668.9,159.5z"/>
			<path class="st3" d="M654.6,165.3c-0.1-0.2-0.2-0.3-0.3-0.4c0.4,1.2,0.8,2.4,1.2,3.7C655.2,167.4,654.9,166.3,654.6,165.3z"/>
			<path class="st3" d="M716.3,59.3c-0.3-10-2.5-19.8-3.7-29.7C702.6,39.5,692,50.1,688.3,64c-1.5,5.6-1.8,11.4-3.9,16.9
				c-3.1,7.9-7.9,13.5-10,21.4c2.1,11.6,5,21.1,1.9,32.3c2.4,1.9,3.2,6.4,4,9.1c1.4,4.4,3.2,7.3,6.3,10.2c2.2-13.7,1.2-27.3,2.8-41
				c1.3-11,2.7-22.1,4.2-33.1c0.2-1.4,2.1-0.9,2.3,0.3c1.4,13.3-2.3,26-3.2,39.1c-0.8,10.8-0.5,21.6-2.2,32.3
				c-0.1,0.4-0.1,0.7-0.2,1.1c6.7-2.9,11.5-6.2,15.2-13.1c2.5-4.6,5.2-9.1,7.7-13.6c7-12.6,6.8-22.1,4.2-35.9
				C715.3,79.9,716.6,69.7,716.3,59.3z"/>
			<path class="st3" d="M694.1,187.8c-0.1,0.1-0.2,0.2-0.4,0.3c2.6,5.6,5.7,12.8,14.4,10.8c4-1,7.1-5.5,9.4-8.5
				c3.9-5.1,8.5-9.5,12.5-14.5c8.9-11.3,9.1-26.2,14.1-39.3c-12.1,5.8-26.3,8.6-36.4,17.4c-8.6,7.4-8.9,18.8-13,28.4
				c2.7-2.7,5.5-5.4,8.4-7.9c7.3-6.2,12.3-14.2,19.5-20.3c0.6-0.5,1.8,0,1.5,0.9C718.3,169.7,705.1,177.2,694.1,187.8z"/>
			<path class="st3" d="M609.4,166.6c1.1,5.1,0.8,10.3,3.2,15.1c3,6.3,8.8,10.3,15.4,12.2c9.9,2.8,18.6-2.2,28.1-4.1
				c4.1,4.8,7.6,10,9.8,15.6c0.5,2.5,0.9,5.1,1.2,7.7c-0.8,0.1-1.5,0.3-2.3,0.5c-0.6,0.1-0.9,0.7-0.9,1.2c-7.9,1.5-18.8-0.1-25,0.9
				c-8.9,1.4-16.5,6.3-21.3,14.1c-5.9,9.7-7,22.6-4.2,34.2c-0.2,0.3-0.2,0.7,0.2,0.9c0,0,0,0,0,0c1.4,5.3,3.7,10.3,6.7,14.5
				c5.7,7.9,13.9,13.1,21.2,19.3c9.3,7.9,16.1,18,20.6,29.2c0,0.1,0,0.1,0.1,0.2c0.7,1.7,1.3,3.5,1.9,5.2c4.5,13.9,5.8,29,6.5,43.5
				c0.3,6.8-0.9,13.5-0.7,20.2c0.2,5.9,2.4,10.1,4.4,15.6c0.6,1.7,3.2,1.1,2.8-0.8c-0.1-0.5-0.2-0.9-0.4-1.3
				c2.5-10.4,5.5-20.7,6.6-31.3c1.4-13.3,0.7-26.6,0.6-39.9c-0.2-24.4,27-41,36.4-62.3c7.5-16.8,9.2-38.9-4.5-53.3
				c-5.4-5.6-12.4-7.4-19.9-8.5c-7.7-1.2-16.2-3.1-24.2-2.6c-0.5-7.1,12.6-16.6,19.5-22.3c3.4,13.3,17.3,16.4,26.9,5.4
				c6.6-7.7,15.2-15.9,19.6-25.1c5.7-11.9,5.8-25.6,12-37.4c0.9-1.7-1-3.8-2.7-2.7c-13.1,8-30.3,10.5-42,20.9c-10,9-10,23.6-15,35.4
				c-1.5,1.5-3.1,3.1-4.6,4.5c-3,2.9-9.8,8.2-13.1,13.7c5.9-16.2,13.4-31.1,17.1-48.2c10.2-2.9,15-7.3,20-16.6
				c5.1-9.5,12.2-18.8,13.8-29.8c0.7-4.9,0.1-9.7-0.8-14.5c-1.7-8.8-2.7-16.9-2.6-25.9c0.3-15.2-2.7-29.1-4-44.1
				c-0.1-1.5-1.9-2.4-3.1-1.3c-10.4,10.3-22.1,21.3-26.8,35.6c-2.9,8.7-2.6,17.2-6.9,25.5c-2.1,4.1-4.2,7.8-5.5,11.7
				c-0.7-6.4,0-12.8-1.5-19.1c-1.7-7.4-5.5-14.2-8.2-21.2c-4.2-10.9-7.2-22.5-16-30.7c-1-0.9-2.2-0.4-2.7,0.7
				c-3.1,7.9-6.3,15.7-9.5,23.6c-2.1,5.3-5.8,11.2-6.8,16.9c-1.1,6.3,2.7,11.7,2.6,18c-0.2,7.7-4.7,14.9-6,22.4
				c-0.8,4.8-0.6,9.4,0.8,14.1c0.1,0.3,0.2,0.7,0.3,1c-2.3-1.6-5.5-1.7-8.7-1.7c-4.4,0.1-8.2,0.8-12.6,0.3c-6-0.8-11.3-2.3-17.4-2.1
				c-1.4,0.1-2.2,1.2-1.9,2.5c1.8,10.3,7.5,18.6,13.8,26.9C604.1,154.6,607.9,159.5,609.4,166.6z M694.1,187.8
				c10.9-10.6,24.2-18.1,29.8-32.8c0.3-0.9-0.9-1.4-1.5-0.9c-7.1,6.2-12.2,14.1-19.5,20.3c-2.9,2.5-5.7,5.2-8.4,7.9
				c4.1-9.6,4.4-20.9,13-28.4c10.1-8.7,24.3-11.5,36.4-17.4c-4.9,13.1-5.1,28-14.1,39.3c-4,5-8.6,9.4-12.5,14.5
				c-2.3,3-5.4,7.5-9.4,8.5c-8.7,2.1-11.8-5.2-14.4-10.8C693.9,188,694,187.9,694.1,187.8z M656.9,184.9c1.5-3.2,0.9-8.1-0.4-12.9
				c2,6.6,4.1,13.2,6.1,19.8C660.8,189.4,658.9,187.1,656.9,184.9z M719.2,238.3c9.9,25.4-8.5,48.2-23.4,66.9
				c-10.7,13.5-15.6,23.7-14.5,40.9c0.7,12,0.4,24.8-1.2,36.8c-1.1,8.2-3.1,16.2-4.2,24.4c-1.3-4.5-2.3-8.6-2.1-14.1
				c0.3-7,1-13.6,0.6-20.6c0-0.4,0-0.7-0.1-1.1c1,0.2,2.1,0.4,3.1,0.5c0.3,0,0.5-0.4,0.3-0.6c-1-0.8-2.2-1.2-3.5-1.4
				c-0.3-4.6-0.7-9.2-1.2-13.8c1.5,0.4,3,0.5,4.1-0.2c0.3-0.2,0.4-0.8,0-1c-0.9-0.5-2-0.4-3.1-0.4c-0.4,0-0.8-0.1-1.3-0.2
				c-0.6-4.6-1.3-9.1-2.3-13.5c0,0,0,0,0,0c1.1,0.2,2.8,0.8,3.8,0.1c0.3-0.2,0.3-0.6,0.1-0.8c-0.7-0.8-2-0.7-3-0.8
				c-0.5-0.1-0.9-0.1-1.3-0.2c-0.8-3.3-1.8-6.6-2.9-9.7c1.9,0.2,3.8,0,5.4-0.7c0.3-0.1,0.3-0.6,0-0.8c-1.3-0.6-2.5-0.6-4-0.5
				c-0.7,0-1.4,0-2.1,0c-1.7-4.3-3.7-8.3-6-12.2c1.8,0.4,3.7,0.5,4.9-0.3c0.3-0.2,0.4-0.8,0-1c-1.2-0.7-2.7-0.4-4-0.5
				c-0.7-0.1-1.5-0.1-2.2-0.2c-1.9-3-4.1-5.9-6.4-8.7c2.9,0.5,6.2,0.2,8.5-0.8c0.4-0.2,0.4-0.6,0-0.8c-1.9-0.8-3.9-0.5-5.9-0.5
				c-1.7,0-3.2-0.1-4.8-0.4c-2.2-2.4-4.6-4.7-7.1-7c2.4,0.3,4.9,0.2,7.2-0.3c0.3-0.1,0.3-0.6,0-0.7c-3.6-0.7-7.3-1.3-10.9-2.1
				c-4.3-3.4-8.6-6.8-12.3-10.6c3.4,0.6,6.9,0.4,9.9-0.8c0.5-0.2,0.7-1.1,0-1.2c-2.6-0.4-5.1,0-7.7-0.1c-1.6,0-3.1-0.3-4.5-0.6
				c-2.2-2.7-4.1-5.7-5.5-9.2c-0.3-0.6-0.5-1.3-0.7-2c4.1,1.4,8.6,2,11.9-0.4c0.3-0.3,0.3-0.8-0.2-0.8c-4.3,0-8.4,0.1-12.4-1
				c-0.8-2.7-1.4-5.5-1.7-8.4c1.8,0.7,3.7,0.9,5.3,0.3c0.4-0.1,0.6-0.8,0.1-1c-1.2-0.5-2.6-0.5-3.9-0.7c-0.6-0.1-1.2-0.3-1.8-0.5
				c-0.3-3.6-0.2-7.3,0.4-10.8c2.2,1.4,5,2.3,7.4,1.1c0.3-0.2,0.2-0.6-0.1-0.7c-1.4-0.4-2.9-0.4-4.4-0.8c-0.9-0.2-1.8-0.6-2.6-1.1
				c0.6-2.9,1.5-5.7,2.8-8.3c0.5-1,1.1-2,1.7-2.9c3,2.2,6.9,3.6,10.4,2.2c0.4-0.2,0.5-0.9,0-1c-3.4-0.9-6.4-1.2-9.3-2.7
				c7.5-9.9,19.8-10.8,32.1-11.9c3.7-0.3,7.8-0.5,11.3-1.8C686.1,219.6,710.4,215.5,719.2,238.3z M670.2,211.3
				c0.1-0.2,0.1-0.4,0.2-0.6c0,0.4,0,0.9,0.1,1.3c-0.1,0-0.1,0-0.2,0.1c0,0-0.1,0.1-0.1,0.1C670.3,211.9,670.2,211.6,670.2,211.3z
				 M676.3,188.9c-2.5,5.8-5,11.6-6.6,17.7c-0.4-2-1.1-4-2-6c-1.5-9.1-4.4-18.1-7.1-27.1c0.1-0.1,0.2-0.2,0.3-0.3
				c3.6-4.8,10-8.4,12-14.4c0.5-1.4,0.7-3,0.7-4.5c0.3-7.7-1.7-7.3,1.5-16.4c0.5,1.2,1.1,2.3,1.5,3.5c0.7,2,1.3,4.1,2.1,6.1
				c1.6,3.7,3.9,6.8,7.3,8.9C684.1,167.8,680.9,178.2,676.3,188.9z M684.4,80.9c2.1-5.4,2.4-11.3,3.9-16.9
				c3.7-13.9,14.3-24.5,24.4-34.4c1.1,9.9,3.4,19.7,3.7,29.7c0.3,10.4-1,20.5,1,30.8c2.7,13.8,2.8,23.2-4.2,35.9
				c-2.5,4.6-5.2,9-7.7,13.6c-3.7,6.9-8.5,10.2-15.2,13.1c0.1-0.4,0.1-0.7,0.2-1.1c1.7-10.8,1.4-21.5,2.2-32.3
				c0.9-13.2,4.6-25.8,3.2-39.1c-0.1-1.2-2.1-1.7-2.3-0.3c-1.5,11-2.9,22.1-4.2,33.1c-1.6,13.7-0.6,27.3-2.8,41
				c-3.1-2.8-4.9-5.8-6.3-10.2c-0.8-2.7-1.6-7.2-4-9.1c3.1-11.3,0.2-20.7-1.9-32.3C676.5,94.4,681.4,88.8,684.4,80.9z M630.4,100.5
				c1.6-4.8,3.8-9.8,3.9-15c0.2-6.3-2.6-10.9-1.5-17.4c2.2-12.8,9.4-25.7,14.5-37.9c8.5,9.2,11.2,22.3,15.8,33.6
				c2.1,5,4.5,9.9,5.6,15.2c1.4,6.5,0.4,13.1,1.4,19.7c0.9,6.2,2.6,12.2,3.6,18.3c1.2,7.3,0.9,11.8-1.6,18.7
				c-1.2,3.4-2.1,3.2-2.7,6.8c-1,5.6,2.1,11.5-0.8,16.9c-2.2,4.1-6.5,6.7-9.4,10.4c-1.8-6.2-3.4-12.4-4.3-18.7
				c-1.6-11.5-1.5-23-1.4-34.6c0-9.9,1.7-20.7-2.2-30.1c-0.4-0.9-1.8-0.9-1.8,0.2c0,21.4-1.3,43.5,1.8,64.7c0.5,3.3,1.2,6.6,1.9,9.9
				c-0.2-0.3-0.5-0.5-0.7-0.8c-0.1-0.4-0.2-0.8-0.3-1.1c-0.2-0.6-0.8-0.6-1.2-0.3c-3.9-3.5-8.7-6.3-12-9.8c-6.7-7.1-7-16.1-9.7-25
				C627.2,115.7,627.6,109.1,630.4,100.5z M655.5,168.5c-0.4-1.3-0.8-2.5-1.2-3.7c0.1,0.1,0.2,0.3,0.3,0.4
				C654.9,166.3,655.2,167.4,655.5,168.5z M609.3,126.1c5.2,0.1,13.1-2.9,16.9,2c0.5,0.6,1.1,0.6,1.8,0.4c1.1,4.7,2.1,9.5,3.8,13.7
				c3.6,8.8,13,12.7,19.3,18.9c0,3.6,1.4,7.2,2.3,10.7c0.6,2.4,1.3,4.9,1.4,7.4c0,1.1-0.1,2.1-0.4,3.1c-1.5-1.6-3.1-3.2-4.5-4.7
				c-6.7-6.8-14-13.2-20.8-19.8c-4.3-4.2-7.9-7-14-7.2c-0.8,0-1.1,1.1-0.4,1.5c11.1,6,20.4,17.1,29.6,25.6c3,2.8,6.1,5.8,9.1,9
				c0,0,0,0,0,0.1c-0.1,0.5,0.3,1,0.9,0.8c0,0,0.1,0.1,0.1,0.1c-8,0.5-15.2,5.2-23.7,3.4c-13.9-3.1-14.9-14-17.4-25.6
				c-3.6-16.1-18.3-26.1-22.7-42C596.9,123.7,602.9,126,609.3,126.1z"/>
		</g>
		<g>
			<g>
				<path class="st0" d="M732,419.1c-0.2,0-0.4,0-0.6-0.1c-0.8-0.3-1.1-1.2-0.8-2c1.6-4,3.7-6.4,5.8-8.8c0.6-0.7,1.2-1.4,1.8-2.2
					c2.5-3.1,2.9-5.2,3.2-8c0.2-1.7,1-7.3,3.6-10.1c1.2-1.3,2-3.1,2.8-5.2c0.3-0.7,0.6-1.5,1-2.2c0.6-1.2,1.1-2.8,1.6-4.4
					c0.7-2.1,1.4-4.1,2.2-5.3c0.4-0.7,1.4-0.9,2.1-0.5c0.7,0.4,0.9,1.4,0.5,2.1c-0.6,0.9-1.2,2.8-1.9,4.7c-0.6,1.6-1.1,3.3-1.7,4.7
					c-0.3,0.7-0.6,1.4-0.9,2.1c-0.9,2.2-1.8,4.3-3.4,6.1c-1.5,1.6-2.5,5.4-2.8,8.4c-0.3,3-0.9,5.8-3.9,9.5c-0.6,0.8-1.3,1.5-1.9,2.3
					c-2,2.3-3.8,4.4-5.3,7.9C733.1,418.8,732.6,419.1,732,419.1z"/>
			</g>
			<g>
				<path class="st0" d="M742.9,422c-0.2,0-0.3,0-0.5-0.1c-0.8-0.3-1.2-1.2-0.9-1.9c1.5-4.1,1.9-4.7,3.5-7.2l1.2-1.8
					c1.7-2.7,3.9-6,4.2-7.1c0-0.2,0.1-0.5,0.2-0.8c0.4-1.8,1.3-5.4,0.8-8.1c-0.7-3.8,0-9.5,2.8-12.9c2.6-3.1,4.4-6.6,4.4-7.8
					c0-0.8,0.7-1.5,1.5-1.5s1.5,0.7,1.5,1.5c0,2.5-2.6,6.8-5.1,9.7c-2.1,2.6-2.8,7.3-2.2,10.4c0.6,3.3-0.3,7.3-0.8,9.4
					c-0.1,0.3-0.1,0.5-0.2,0.7c-0.3,1.6-2,4.1-4.6,8.1l-1.2,1.8c-1.5,2.3-1.8,2.7-3.2,6.6C744.1,421.6,743.5,422,742.9,422z"/>
			</g>
			<g>
				<path class="st0" d="M761.2,423c0,0-0.1,0-0.1,0c-0.8-0.1-1.4-0.8-1.4-1.6l0.1-1.3c0.3-3.9,0.5-7,1.5-10.3
					c1-3.4,1.1-10.3,1-12.3c-0.1-1.9-1.5-5.7-2.4-7.6c-1.3-2.9,1.7-9.9,5.4-15c0.5-0.7,1.4-0.8,2.1-0.3c0.7,0.5,0.8,1.4,0.3,2.1
					c-4.2,5.8-5.5,11-5.1,11.9c0.9,2,2.5,6.2,2.7,8.7c0.2,2.3,0,9.6-1.1,13.4c-0.9,3-1.1,6-1.4,9.7l-0.1,1.3
					C762.7,422.4,762,423,761.2,423z"/>
			</g>
			<g>
				<path class="st0" d="M778,273.2c2.4-11.1,13.5-43,18.7-67.9c5.2-24.9,13-63.3,15-73.1c2.1-9.9,3.6-18.7,4.7-20.2
					c0,0,4.1-8.8,4.1-10.4c0-1.6,2.1-2.1,3.1,2.6c1,4.7,6.2,16.1,4.1,33.2c-2.1,17.1-10.4,49.5-10.4,49.5s14.5-30.8,20.7-47.9
					c6.2-17.1,9.3-25.4,11.4-30.1c2.1-4.7,6.2,1.6,5.7,7.3s-4.7,24.4-7.3,32.7c-2.6,8.3-5.2,17.6-5.2,17.6s12.4-19.7,20.7-27.5
					c8.3-7.8,27-25.4,17.1-4.7c-9.9,20.7-15,32.1-15.6,37.3c-0.5,5.2,8.3-7.8,14.5-15s9.3-7.8,14-13c4.7-5.2,9.3-2.1,0,10.4
					c-9.3,12.4-33.7,57.6-43.6,71c-9.9,13.5-27.5,42-35.3,53.4c-7.8,11.4-16.1,28.5-11.9,41c4.1,12.4,16.1,32.7,9.3,46.2
					c-6.7,13.5-25.4,12.4-34.2,11.9c0,0-8.2-2-11.2,0.3c-3,2.3-6.7-0.9-9.4-2.3c-2.7-1.3-9.4-2.7-9.8-3.7c-0.3-1-1.2-3.7-3.2-4.5
					c-2-0.8-14.6-8.1-17.8-13.1c-3.2-5-11.1-21,4.5-31.3c15.6-10.3,29.3-12.4,35.7-21.4C775.3,289.9,775.6,284.3,778,273.2z"/>
			</g>
			<g>
				<path class="st0" d="M723.9,407.2c-0.4,0-0.8-0.2-1.1-0.5c-0.5-0.6-0.5-1.6,0.1-2.1c3.7-3.3,6.5-6.1,8.4-8.7
					c0.7-0.9,1.4-2.2,2.2-3.6c1.3-2.3,2.6-4.7,4.2-6.3c3.1-3.1,6.8-7.3,7.5-9.7c1.1-3.3,2.7-6.4,3.7-7.9c0.5-0.7,1.4-0.9,2.1-0.4
					c0.7,0.5,0.9,1.4,0.4,2.1c-0.9,1.4-2.4,4.4-3.4,7.2c-1.2,3.5-6.2,8.7-8.3,10.8c-1.3,1.3-2.6,3.6-3.7,5.6c-0.8,1.5-1.6,2.9-2.4,4
					c-2,2.7-4.9,5.7-8.8,9.2C724.6,407.1,724.3,407.2,723.9,407.2z"/>
			</g>
		</g>
	</g>
	<g>
		<path class="st4" d="M627.4,652.9h-9.6v61.6h9.2v5.1h-28.1v-5.1h9.2V659l-24.6,50h-6.8L552,659v55.5h9.2v5.1H537v-5.1h9.2v-61.6
			h-9.7v-5.1h20.9l25.2,51.1l25.2-51.1h19.6V652.9z"/>
		<path class="st4" d="M707.6,683.7c0,5.7-0.9,10.8-2.7,15.6c-1.8,4.7-4.5,8.7-8,12.2c-3.2,3.2-6.8,5.6-10.8,7.1
			c-3.9,1.6-8.4,2.4-13.4,2.4c-4.9,0-9.3-0.8-13.4-2.4c-4.2-1.7-7.8-4.1-10.8-7.1c-3.6-3.6-6.3-7.7-8.1-12.2
			c-1.7-4.6-2.6-9.8-2.6-15.6c0-5.6,0.9-10.8,2.6-15.6c1.8-4.5,4.5-8.6,8.1-12.2c3.2-3.2,6.8-5.6,10.8-7.1c3.9-1.6,8.4-2.4,13.4-2.4
			c10.5,0,18.9,3.4,25.2,10.2C704.4,663.4,707.6,672.4,707.6,683.7z M696.6,683.7c0-10.6-2-18.7-6-24c-4-5.4-10-8.1-17.8-8.1
			c-7.8,0-13.8,2.7-17.8,8.1c-4,5.5-6,13.5-6,24c0,10.6,2,18.6,6,24c4.1,5.4,10,8.1,17.8,8.1c7.8,0,13.8-2.7,17.8-8.1
			C694.6,702.3,696.6,694.3,696.6,683.7z"/>
		<path class="st4" d="M794.9,652.9h-9.7V721h-5.8l-46-60.5v54h9.7v5.1h-25.2v-5.1h9.7v-61.6h-9.7v-5.1h18.4l43.1,56.6v-51.5h-9.7
			v-5.1h25.2V652.9z"/>
		<path class="st4" d="M859.5,700c0,7-2.2,12.2-6.7,15.7c-4.5,3.5-11.1,5.3-19.9,5.3c-3.9,0-7.9-0.4-12-1.2c-4.2-0.8-8.4-2-12.5-3.6
			v-16.4h5.5c0.1,5.5,1.6,9.5,4.7,12.1c3,2.6,7.6,3.9,13.7,3.9c5.6,0,10-1.1,13-3.3c3-2.4,4.5-5.7,4.5-10c0-3.5-0.9-6.1-2.8-8
			c-1.7-1.8-5.5-3.6-11.4-5.4l-9.5-2.9c-6.7-2-11.5-4.6-14.5-7.8c-2.8-3-4.2-7.3-4.2-12.8c0-6.1,2.2-10.8,6.5-14.2
			c4.3-3.4,10.4-5,18.2-5c3.2,0,6.8,0.4,10.9,1.1c3.8,0.7,8,1.7,12.7,3.2V666h-5.4c-0.5-4.9-2.2-8.6-5.1-11
			c-2.8-2.2-7.1-3.4-12.9-3.4c-5.2,0-9,1.1-11.5,3.2c-2.7,1.9-4,4.9-4,9c0,3.4,1,6.1,3.1,8.1c2,2,6.2,4,12.6,5.8l8.9,2.7
			c6.5,2,11.2,4.5,14,7.5C858.1,690.8,859.5,694.9,859.5,700z"/>
	</g>
</g>
</svg>
