<?xml version="1.0" encoding="utf-8"?>
<!-- Generator: Adobe Illustrator 22.1.0, SVG Export Plug-In . SVG Version: 6.00 Build 0)  -->
<svg version="1.1" id="Calque_1" xmlns="http://www.w3.org/2000/svg" xmlns:xlink="http://www.w3.org/1999/xlink" x="0px" y="0px"
	 viewBox="0 0 212.8 253.7" style="enable-background:new 0 0 212.8 253.7;" xml:space="preserve">
<style type="text/css">
	.st0{stroke:#000000;stroke-miterlimit:10;}
	.st1{stroke:#000000;stroke-width:0.25;stroke-miterlimit:10;}
</style>
<title>Melanie</title>
<path class="st0" d="M197.1,91.5c-0.2,2.2-1,4.2-0.7,6.4c0.3,3,1.5,5.6,1.4,8.8c-0.3,6.5-2.3,12.9-5.8,18.4c-3,4.9-4.9,10-8.8,14.4
	s-5.8,10.2-12.6,9.5c-11.4-1.1-24-10.3-30.1-19.7c-1.4-2.2-3.1-4.5-4.4-6.8c-1.9-3.3-1.6-6.3-1.8-9.9c-0.2-4.8,0.1-10-0.6-14.8
	c-0.1-0.5-0.8-0.3-0.7,0.2c1.1,6.9-0.4,14.2,1,21.1c0.5,2.5,2,4.4,3.4,6.5c1.6,2.4,3,4.9,4.8,7.2c4,4.9,9,8.9,14.6,11.9
	c4.7,2.4,10.6,5.5,16,5.2c3.9-0.3,5.6-2.9,7.6-5.9c1.8-2.5,4-4.6,5.8-7.1c2.2-2.9,3.1-5.8,4.8-8.9c3.2-6.1,6-10.8,7-17.8
	c0.4-2.3,0.5-4.7,0.3-7c-0.2-1.4-0.8-2.7-1-4.1c-0.5-2.8,0.2-5,0.4-7.6C197.8,91,197.1,91,197.1,91.5L197.1,91.5z"/>
<path class="st0" d="M118.8,115.3c1.9-7,8.3-11.5,13.5-16.1c6.4-5.6,13.2-10.8,20.3-15.6c8.7-6,17.4-4,27.2-2.5
	c4,0.6,8.3,0.8,11.9,2.7c6.3,3.1,6.5,8.9,5.2,15c-0.1,0.5,0.6,0.7,0.7,0.2c1.8-8.1,0.1-14.2-8.3-16.9c-5.1-1.6-10.9-1.9-16.3-2.8
	c-4.3-0.8-8.8-0.8-13.1-0.1c-5.2,0.9-9.9,5-14,8.1s-7.9,6.2-11.9,9.3c-6.1,4.8-14.1,10.7-16.2,18.5c0,0.2,0.1,0.4,0.3,0.4
	C118.5,115.6,118.6,115.5,118.8,115.3L118.8,115.3z"/>
<path class="st0" d="M116.5,115.6c-4.1-0.1-4.4-8.6-4.2-11.3c0.1-2.5,0.8-5,0.7-7.5c-0.1-2.7-0.8-5.3-0.6-8.1
	c0.5-8.2,7.9-11.7,13.9-16.1c1.9-1.6,4-3.1,6.1-4.5c2.9-1.6,6.3-2.4,9.4-3.3c0.2-0.1,0.3-0.3,0.3-0.5c-0.1-0.2-0.3-0.3-0.5-0.3l0,0
	c-3.5,1-7.1,1.8-10.3,3.8c-3.7,2.3-7.1,5.2-10.6,7.8c-5.7,4.2-9.2,7.2-9.2,14.6c0,4.1,0.7,7.7,0.2,11.8c-0.3,2.2-0.3,4.4,0,6.6
	c0.4,2.8,1.1,7.7,4.7,7.8C117,116.3,117,115.6,116.5,115.6L116.5,115.6z"/>
<path class="st0" d="M142.9,64.2c3.2-2.6,7.3-3,11.1-4s7.8-2.2,11.7-3c9-2.1,18.3-1.9,27.2,0.7c5.9,1.6,7.3,6.3,9.2,11.5
	c1.4,3.7,3,6.8,2.6,10.8c-0.4,4.2-0.2,20.8-6,22.7c-0.4,0.2-0.3,0.9,0.2,0.7c5.2-1.7,5.7-12.7,6-17.1c0.3-4.9,1.2-9-0.6-13.7
	c-1.6-4.2-2.9-10.2-6.3-13.3c-2.9-2.7-7.7-3-11.4-3.8c-4.9-1.1-9.9-1.2-14.8-0.4c-6,1.1-12,2.5-17.9,4.3c-4,1.1-8.1,1.5-11.4,4.2
	C141.9,64,142.5,64.5,142.9,64.2L142.9,64.2z"/>
<path class="st0" d="M114,79.5c0-4.8,1.7-9.7,2.2-14.5c0.7-5.7,2.2-11.2,4.7-16.4c2.1-4.5,5.5-7.7,9-11.1s7-7,11.4-9.1
	c10.3-5,24.6,0.4,34,5.1c4.8,2.3,8.9,5.7,12,10c3,4.4,4.8,9.6,7.2,14.4c0.2,0.4,0.9,0.1,0.6-0.4c-2.7-5.4-4.7-11.5-8.5-16.2
	c-3.2-3.7-7.2-6.7-11.7-8.8c-9.3-4.5-22.5-9.4-32.7-5.4c-4.2,1.6-7.7,4.8-10.9,7.8c-3.9,3.7-8,7.2-10.6,12c-2.4,4.5-4.1,9.4-5,14.4
	c-0.6,3.4-0.7,6.8-1.4,10.2c-0.7,2.6-1.1,5.3-1.2,7.9c0,0.2,0.2,0.3,0.4,0.3C113.8,79.8,113.9,79.7,114,79.5L114,79.5z"/>
<path class="st0" d="M115.8,56.6c-2,0-4,0.7-5.5,2l0.6,0.5c0.6-0.7,1.3-1.4,2.1-2c0.4-0.3-0.2-0.8-0.5-0.5c-0.8,0.6-1.6,1.4-2.2,2.2
	c-0.3,0.4,0.3,0.7,0.6,0.5c1.4-1.1,3.2-1.7,5-1.8C116.2,57.4,116.2,56.6,115.8,56.6L115.8,56.6z"/>
<path class="st0" d="M108.9,54.2c-0.5,0.2-0.9,0.3-1.4,0l0.1,0.5c1.2-1.8,3.4-2.7,4.5-4.5c0.1-0.2,0-0.4-0.1-0.5
	c-0.2-0.1-0.4,0-0.5,0.1l0,0c-1.1,1.9-3.3,2.7-4.5,4.5c-0.1,0.2,0,0.4,0.1,0.5c0.6,0.3,1.3,0.3,1.9,0
	C109.6,54.7,109.4,54,108.9,54.2L108.9,54.2z"/>
<path class="st0" d="M111.1,48.7c0.9-0.2,1.9-0.5,2.7-1c0.2-0.1,0.2-0.3,0.1-0.5c-1.1-1.8-3.3-2.3-4.4-4.1l-0.3,0.6
	c0.9,0,1.9,0.1,2.8,0.2c0.5,0,0.5-0.7,0-0.8c-0.9-0.1-1.8-0.2-2.8-0.2c-0.2,0-0.4,0.2-0.4,0.4c0,0.1,0,0.1,0.1,0.2
	c1.1,1.8,3.3,2.3,4.4,4.1l0.1-0.5c-0.8,0.5-1.6,0.8-2.5,0.9C110.4,48,110.6,48.7,111.1,48.7L111.1,48.7z"/>
<path class="st0" d="M109.8,35.7c1.5-0.5,3.1-0.4,4.6-0.8c0.2-0.1,0.3-0.3,0.2-0.5c0-0.1-0.1-0.2-0.2-0.2c-1.7-0.8-3.1-2-4.2-3.6
	l-0.3,0.6c1,0,2,0.2,2.9,0.6c0.2,0.1,0.4-0.1,0.5-0.3c0.3-1.4-0.8-2.2-1.7-3.2l-0.3,0.6l0.7,0.2c0.4,0.2,0.8-0.4,0.4-0.6
	c-0.3-0.2-0.6-0.3-1-0.3c-0.2,0-0.4,0.2-0.4,0.4c0,0.1,0,0.2,0.1,0.2c0.6,0.7,1.7,1.4,1.5,2.5l0.5-0.3c-1-0.4-2.1-0.6-3.1-0.6
	c-0.2,0-0.4,0.2-0.4,0.4c0,0.1,0,0.1,0.1,0.2c1.1,1.7,2.6,3,4.4,3.9l0.1-0.7c-1.5,0.4-3.1,0.3-4.6,0.8c-0.2,0.1-0.3,0.3-0.3,0.5
	S109.7,35.8,109.8,35.7L109.8,35.7L109.8,35.7z"/>
<path class="st0" d="M112.7,23.3c3.4-0.6,7-1.1,10.1-2.7c0.2-0.1,0.2-0.3,0.1-0.5c-0.4-0.9-3-5.1-1.1-5.4c0.7-0.1,1.5,1.2,2.5,0.9
	c1.5-0.5,0.6-2.4,0.2-3.3l-0.3,0.6c0.7,0,1.4,0.2,2,0.4c0.2,0.1,0.4-0.1,0.5-0.3s-0.1-0.4-0.3-0.5c-0.7-0.2-1.5-0.3-2.2-0.4
	c-0.3,0-0.4,0.3-0.3,0.6c1.3,2.6-0.7,2.2-2.1,1c-0.2-0.1-0.4-0.1-0.5,0c0,0,0,0-0.1,0.1c-0.6,0.8-0.9,1.7-0.7,2.7
	c0.2,0.9,1.4,2.3,1.3,3.1c-0.1,2-7.4,2.7-9.3,3C112.1,22.6,112.3,23.4,112.7,23.3z"/>
<path class="st0" d="M128.5,10.3c0.5,0.4,1.2,0.7,1.9,0.7c0.2,0,0.4-0.2,0.4-0.4v-0.1c-0.5-2.4-2.3-4.2-3.6-6.2l-0.5,0.5
	c2.7,1.6,5.3,3.4,8.2,4.5c0.5,0.2,0.6-0.6,0.2-0.7c-2.9-1.1-5.4-2.9-8.1-4.5c-0.2-0.1-0.4,0-0.5,0.2c-0.1,0.1-0.1,0.2,0,0.3
	c1.2,2,3,3.7,3.5,6l0.4-0.5c-0.5,0-1.1-0.2-1.5-0.6C128.5,9.3,128.1,10,128.5,10.3L128.5,10.3z"/>
<path class="st0" d="M138.1,6.4c1.6-1.7,1.1-3.8,1.5-5.9c0.1-0.5-0.6-0.7-0.7-0.2c-0.4,1.9,0.1,4.1-1.4,5.6
	C137.2,6.2,137.7,6.7,138.1,6.4L138.1,6.4z"/>
<path class="st0" d="M141.4,2.1c1.8,1.7,3.8,3,5.5,4.7c0.3,0.3,0.7,0,0.6-0.4s-0.1-0.6-0.2-0.9L146.7,6c0.5,0.3,1,0.6,1.4,0.9
	c0.2,0.1,0.4,0.1,0.5-0.1V6.7c0.1-0.5,0.3-1,0.4-1.5l-0.7,0.1c0.3,0.5,0.8,0.9,1.4,1.2c0.2,0.1,0.4,0,0.5-0.1l0,0
	c1-1.7,1.6-3.6,1.9-5.6c0.1-0.5-0.6-0.7-0.7-0.2c-0.3,1.1-0.5,2.2-0.8,3.2s-0.8,2.7-1.7,1.2c-0.1-0.2-0.3-0.2-0.5-0.1
	c-0.1,0-0.2,0.1-0.2,0.2c-0.1,0.5-0.3,1-0.4,1.5l0.6-0.2c-0.5-0.3-1-0.6-1.4-0.9c-0.2-0.1-0.4,0-0.5,0.2c0,0.1-0.1,0.2,0,0.3
	c0.1,0.3,0.2,0.6,0.2,0.9l0.6-0.4c-1.6-1.8-3.7-3.1-5.5-4.8C141.6,1.2,141,1.7,141.4,2.1z"/>
<path class="st0" d="M154.9,3c0,1.1-0.5,5.7,1.9,5c1-0.3,1.9-1.6,2.6-2.3c0.8-1,1.7-2,2.7-2.9c0.4-0.3,0-0.9-0.4-0.6
	c-1.5,1.1-2.6,2.8-3.9,4.1c-0.3,0.3-0.7,0.8-1,0.9c-0.7,0.2-0.8-0.6-0.9-1.1c-0.1-1-0.1-2.1,0-3.1c0-0.2-0.2-0.3-0.4-0.3
	C155.1,2.7,155,2.8,154.9,3L154.9,3z"/>
<path class="st0" d="M163.6,8.7c0.6-1.4,1.5-2.5,2.7-3.4l-0.6-0.4c-0.5,1.6-1.1,3.2-1.6,4.7c-0.1,0.2,0.1,0.4,0.3,0.5
	c1.2,0.4,2.5-0.8,3.3-1.5c1.3-1.2,2.4-2.7,3.8-3.9c0.4-0.3-0.2-0.8-0.5-0.5c-1,0.8-1.8,1.9-2.7,2.8s-2.4,2.8-3.6,2.4l0.3,0.5
	c0.6-1.6,1.1-3.2,1.6-4.7c0-0.2-0.1-0.4-0.3-0.5c-0.1,0-0.2,0-0.3,0c-1.3,0.9-2.4,2.2-3,3.7C162.7,8.8,163.3,9.2,163.6,8.7
	L163.6,8.7z"/>
<path class="st0" d="M174.1,11.5c1.2-0.5,2.4-0.9,3.6-1.2c0.5-0.1,0.3-0.8-0.2-0.7c-1.2,0.3-2.4,0.7-3.6,1.2
	C173.5,11,173.7,11.7,174.1,11.5z"/>
<path class="st0" d="M178.7,16.1c0.8-0.2,1.6-0.5,2.4-0.7c0.5-0.1,0.3-0.9-0.2-0.7c-0.8,0.3-1.6,0.5-2.4,0.7
	c-0.2,0.1-0.3,0.3-0.3,0.5C178.3,16,178.5,16.1,178.7,16.1L178.7,16.1z"/>
<path class="st0" d="M180.8,17.2c0.3,2-0.4,3.8-0.7,5.7c0,0.2,0.2,0.4,0.4,0.4h0.1c0.8-0.4,1.7-0.8,2.4-1.4c1-0.6,2.3,0,3.4-0.3
	c0.2-0.1,0.3-0.3,0.2-0.5s-0.2-0.3-0.4-0.2c-1.1,0.3-2.1-0.3-3.2,0.1s-1.6,1.2-2.6,1.5l0.5,0.4c0.3-2,1-3.7,0.7-5.7
	C181.6,16.7,180.8,16.7,180.8,17.2L180.8,17.2z"/>
<path class="st0" d="M188.6,27.8c-1.7,0.1-3.6,0.6-4.6,2.1c-0.1,0.2,0,0.4,0.1,0.5c0,0,0,0,0.1,0c2.7,1,5.6,0.9,8.4,1.4
	c0.5,0.1,0.7-0.6,0.2-0.7c-2.8-0.5-5.7-0.4-8.4-1.4l0.2,0.5c0.8-1.3,2.6-1.7,4-1.8C189.1,28.6,189.1,27.8,188.6,27.8L188.6,27.8z"/>
<path class="st0" d="M186.7,35.5c0.2,0,0.3-0.2,0.3-0.4s-0.2-0.3-0.3-0.3c-0.2,0-0.3,0.2-0.3,0.4S186.6,35.5,186.7,35.5z"/>
<path class="st0" d="M186.7,38.4c0.2,0,0.3-0.2,0.3-0.4s-0.2-0.3-0.3-0.3c-0.2,0-0.3,0.2-0.3,0.4C186.4,38.2,186.6,38.4,186.7,38.4z
	"/>
<path class="st0" d="M187.7,41.8c0.2,0,0.3-0.2,0.3-0.4s-0.2-0.3-0.3-0.3c-0.2,0-0.3,0.2-0.3,0.4C187.4,41.6,187.5,41.7,187.7,41.8z
	"/>
<path class="st1" d="M184,84.6c-2.4,3.2-4.5,6.3-4.1,10.5c0.5,4.9,5.8,10,3.8,14.8c-0.2,0.4,0.5,0.7,0.7,0.2c1.2-3-0.4-5.9-1.7-8.7
	c-3-6.4-2.3-10.9,1.9-16.4C184.9,84.6,184.3,84.2,184,84.6z"/>
<path class="st1" d="M170.4,107.6c-1.3,1.3-1.3,2.8,0.4,3.8c2.3,1.3,4.4-0.2,6.8,0c0.5,0,0.5-0.7,0-0.8c-1.2,0-2.4,0.2-3.6,0.5
	c-1.7,0.3-5.4-0.8-3.1-3C171.3,107.8,170.8,107.3,170.4,107.6L170.4,107.6z"/>
<path class="st1" d="M166.9,90.8c-1.8-1.7-3.5-3.9-6-4.2c-2.9-0.3-6,1.7-8.7,2.4c-0.2,0.1-0.3,0.3-0.3,0.5c0.1,0.2,0.3,0.3,0.5,0.3
	c2.2-0.6,4.4-1.9,6.7-2.2c3.4-0.6,5.1,1.7,7.3,3.8C166.7,91.6,167.2,91.1,166.9,90.8L166.9,90.8z"/>
<path class="st1" d="M183.6,93c1.7-1.7,3.4-2.6,5.6-1.2c1.3,0.8,2.4,1.9,3.7,2.7c0.4,0.3,0.8-0.4,0.4-0.7c-1.7-1.1-3.3-2.9-5.3-3.5
	s-3.6,0.7-5,2.1c-0.1,0.2-0.1,0.4,0.1,0.5C183.3,93.1,183.5,93.1,183.6,93L183.6,93z"/>
<path class="st1" d="M155.6,91.1c2.4,1,5,1.4,7.6,1.3c0.2,0,0.3-0.2,0.3-0.4c0-0.2-0.2-0.3-0.3-0.3c-2.5,0.2-4.9-0.2-7.2-1.1
	C155.6,90.3,155.2,90.9,155.6,91.1L155.6,91.1z"/>
<path class="st1" d="M185,94.4c1.8,1.5,3.7,1.4,5.9,0.8c0.2-0.1,0.3-0.3,0.2-0.5s-0.2-0.3-0.4-0.2c-1.9,0.5-3.5,0.7-5.1-0.6
	C185.2,93.6,184.6,94.1,185,94.4L185,94.4z"/>
<path class="st1" d="M157.1,88c-0.5,0.7-0.7,1.6-0.6,2.4c0.1,0.2,0.3,0.3,0.5,0.2c0.2-0.1,0.3-0.2,0.2-0.4c0-0.3,0-0.7,0.1-1
	s0.2-0.6,0.4-0.9C158.1,87.9,157.4,87.5,157.1,88L157.1,88z"/>
<path class="st1" d="M161.6,91.8c0.9-1,1.3-2.4,1-3.7c-0.2-0.4-0.9-0.3-0.7,0.2c0.2,1.1-0.1,2.2-0.9,3
	C160.6,91.6,161.1,92.1,161.6,91.8L161.6,91.8z"/>
<path class="st1" d="M185.8,93.3c-0.2,0.1-0.2,0-0.2-0.2c0.1-0.3,0.2-0.6,0.5-0.8c0.3-0.3-0.2-0.9-0.5-0.5c-0.5,0.4-0.8,1.1-0.7,1.8
	c0.1,0.4,0.6,0.7,1,0.6c0,0,0.1,0,0.1-0.1C186.5,93.9,186.3,93.1,185.8,93.3L185.8,93.3z"/>
<path class="st0" d="M189.1,94.4c0.2,0,0.3-0.2,0.3-0.4c0-0.2-0.2-0.3-0.3-0.3c-0.2,0-0.3,0.2-0.3,0.4
	C188.8,94.2,188.9,94.3,189.1,94.4z"/>
<path class="st1" d="M158.1,89c-0.2,1,0,2.2,1.1,2.5s2.1-0.8,2.4-1.7c0.2-0.4-0.5-0.8-0.6-0.4c-0.3,0.6-0.8,1.5-1.5,1.4
	s-0.8-1-0.7-1.6S158.2,88.5,158.1,89z"/>
<path class="st1" d="M186.8,92.5c0,0.7,0.1,2.1,1.2,1.9c0.6-0.2,1.1-0.6,1.4-1.2c0.3-0.4-0.2-0.9-0.5-0.5c-0.2,0.3-0.5,0.6-0.8,0.8
	c-0.1,0.1-0.2,0.1-0.3,0.1c-0.2-0.1-0.2-0.9-0.2-1.1s-0.2-0.3-0.4-0.3C187,92.2,186.9,92.3,186.8,92.5z"/>
<path class="st1" d="M155.6,119.6c5,0.4,10.1,0.4,15.2,0.1c4.8-0.3,9.1,2,13.8,2.8c0.5,0.1,0.7-0.7,0.2-0.7
	c-4.1-0.7-7.5-2.5-11.7-2.9c-2.6-0.3-5.3,0.5-7.9,0.6c-3.2,0-6.4-0.2-9.6-0.5C155.1,118.8,155.1,119.5,155.6,119.6z"/>
<path class="st1" d="M157.1,120.8c6,5.4,19,10.7,25.6,3.8c0.3-0.3-0.2-0.9-0.5-0.5c-6.1,6.3-19,1.2-24.5-3.8
	C157.3,119.9,156.7,120.5,157.1,120.8z"/>
<path class="st1" d="M164.6,129.6c4.4,2.3,12.1,4.9,15.9,0.1c0.3-0.4-0.2-0.9-0.5-0.5c-3.6,4.5-10.9,2-15-0.2
	C164.6,128.7,164.2,129.4,164.6,129.6L164.6,129.6z"/>
<path class="st1" d="M149.1,113.9c-1.4,0.2-2.4,1.5-2.2,2.9c0.1,0.4,0.2,0.8,0.4,1.1c0.3,0.4,0.9,0,0.6-0.4
	c-0.9-1.3-0.1-2.6,1.3-2.9C149.8,114.5,149.6,113.8,149.1,113.9L149.1,113.9z"/>
<path class="st1" d="M190.7,120.1c1,0.8,0.1,2.1-0.6,2.7c-0.4,0.3,0.2,0.8,0.5,0.5c1-0.9,1.9-2.7,0.6-3.8
	C190.8,119.2,190.3,119.8,190.7,120.1z"/>
<path class="st1" d="M169.1,140.5c2-0.6,3.9-0.2,5.9,0c0.5,0.1,0.5-0.7,0-0.8c-2.1-0.2-4-0.6-6.1,0c-0.2,0.1-0.3,0.3-0.3,0.5
	C168.7,140.4,168.9,140.6,169.1,140.5L169.1,140.5z"/>
<path class="st0" d="M116.6,116.8c-3.7,11-15.9,15.5-19.4,26.3c-1.7,5.5-1.3,11.4,1.1,16.7c2.6,5.2,8,6,12.6,8.8
	c0.4,0.3,0.8-0.4,0.4-0.6c-5.7-3.5-11.4-4-13.4-11.7c-1.6-6.1-1-12.6,2.6-17.9c5.4-7.7,13.8-12,16.9-21.3
	C117.5,116.6,116.7,116.4,116.6,116.8z"/>
<path class="st0" d="M132.6,115.9c-0.8,2.7,0.6,6.1,1.5,8.7c1.4,4.3,3.2,8.5,4.8,12.7c2.2,5.6,3.4,11.5,1.2,17.2
	c-2.4,6.4-7.7,13.9-15.1,14.6c-0.5,0.1-0.5,0.8,0,0.8c10.4-0.9,18-14.4,16.9-24.1c-0.6-4.9-2.7-9.4-4.5-14c-1.6-4-5.5-11.2-4.2-15.7
	c0.1-0.2-0.1-0.4-0.3-0.5C132.9,115.6,132.7,115.7,132.6,115.9L132.6,115.9z"/>
<path class="st0" d="M126.9,128c1.1,13.2,5.9,27.8-4.4,38.8c-0.3,0.4,0.2,0.9,0.5,0.5c10.5-11.2,5.8-25.9,4.7-39.4
	C127.6,127.5,126.8,127.5,126.9,128z"/>
<path class="st0" d="M195,124.6c0.4,5.9,2.4,11.9,3.4,17.8c1,5.6,2.1,11.3,3.5,16.8c1.2,4.6,2.8,8.6,6.2,12l3.1,2.5
	c0.3-1.3-3.9-1.2-4.7-1.4c-5.5-1.2-8.4-5-10.8-9.7c-0.2-0.4-0.9-0.1-0.6,0.4c1.5,2.9,3.3,6,5.9,8c3.3,2.5,7.5,2.1,11.4,3.3
	c0.4,0.1,0.7-0.5,0.3-0.7c-8.7-3.9-10.2-14.7-11.9-22.9c-0.8-3.7-1.5-7.3-2-11c-0.7-5-2.6-9.9-2.9-14.9
	C195.8,124.2,195,124.2,195,124.6L195,124.6z"/>
<path class="st0" d="M195.2,163.7c-0.1,5.7,3.5,12.3,5.9,17.4c0.5,1.2,1.2,2.3,2,3.3c3.2,4.1-0.3,1.1-1.9-0.6
	c-3.2-3.6-5.2-8.1-7.5-12.3c-0.2-0.4-0.9,0-0.6,0.4c3.2,5.9,6.3,14,13.2,16.5c0.2,0,0.4-0.1,0.5-0.3c0-0.1,0-0.2,0-0.3
	c-1.7-2.4-3.7-4.4-5-7c-0.8-1.6-1.3-3.2-2-4.8c-1.5-3.7-3.8-8.1-3.8-12.2c0-0.2-0.2-0.3-0.4-0.3
	C195.4,163.4,195.2,163.5,195.2,163.7L195.2,163.7z"/>
<path class="st0" d="M193.6,173.9c1.3,6.3,3.7,12.3,2.2,18.8c-0.7,3.2-2.1,6.8-4.9,8.7c-2.1,1.5-4.9,2.1-7.4,3
	c-0.4,0.2-0.3,0.9,0.2,0.7c5.6-2,9.8-3.4,12-9.4c2.7-7.6,0.1-14.4-1.4-21.9C194.2,173.2,193.5,173.4,193.6,173.9L193.6,173.9z"/>
<path class="st0" d="M181.3,149.2c3.6,10.7,5.3,22,5,33.3c-0.2,8.1-2,15.1-9.9,18.6c-0.4,0.1-0.2,0.7,0.2,0.7
	c6.8-0.3,10.5-2.9,15.1-7.8c0.3-0.4-0.2-0.9-0.5-0.5c-2.5,2.7-5.1,5.6-8.7,6.8c-0.7,0.3-5.5,0.4-5.6,1.5c0.3-0.2,0.7-0.4,1-0.5
	c3.5-1.8,6.4-4.8,8-8.4c2.4-6.1,1.4-14.7,0.9-21c-0.6-7.8-2.2-15.4-4.8-22.8C181.9,148.5,181.1,148.7,181.3,149.2L181.3,149.2z"/>
<path class="st0" d="M179.2,153.3c6.7,14.4-3.5,29.7,0.9,44.3c0.1,0.5,0.9,0.3,0.7-0.2c-4.4-14.6,5.7-30-1-44.5
	C179.7,152.5,179,152.9,179.2,153.3z"/>
<path class="st0" d="M184.5,206.3c2.1,3.2,5.1,6.4,8.9,7.4c0.2,0.1,0.4-0.1,0.5-0.3s-0.1-0.4-0.3-0.5l0,0c-3.6-1-6.4-4-8.4-7
	C184.9,205.6,184.2,206,184.5,206.3L184.5,206.3z"/>
<path class="st0" d="M118.7,118.2c1.4,5.7,0.1,11.9-1.1,17.5c-1,4.6-1,9.3-1.7,13.9c-1,7-0.7,14.3,2,21c2.2,5.6,5.6,10.2,11.2,12.7
	c2.6,1.2,10,4.1,12.8,1.6c0.1-0.1,0.1-0.3,0.1-0.5c-0.4-0.6-1.2-0.4-1.9-0.7c-2.7-0.8-5.2-2.2-7.4-4c-0.5-0.5-1.7-2.5-2.2-2.6
	c-0.9-0.2,2.5,2.7,2.6,2.7c5.8,2.8,14.1,3.6,20.1,1.1c0.3-0.1,0.4-0.6,0-0.7c-6.4-1.2-16.8-3-20.4-8.9c-0.3-0.4-0.9,0-0.6,0.4
	c3.4,5.6,12.3,7.4,18,8.7c0.6,0.1,2.3,0.2,2.7,0.6c-0.9-0.9-6,0.6-7.4,0.6c-4.9,0-11.6-0.8-15.2-4.6c-0.2-0.1-0.4-0.1-0.5,0
	s-0.1,0.3-0.1,0.4c2.1,3.4,5.4,4.7,8.7,6.6c0.7,0.4,1.9,0.1,0.9,0.7c-0.7,0.4-2.9-0.1-3.6-0.2c-1.8-0.3-3.5-0.8-5.1-1.5
	c-4.7-1.8-8.5-5.4-10.7-10c-4.8-9.4-3.4-18.3-2.4-28.3c0.5-4.7,1.3-9.2,1.9-13.9c0.6-4.3,1-8.8,0-12.9c-0.1-0.2-0.3-0.3-0.5-0.2
	C118.8,117.9,118.7,118.1,118.7,118.2L118.7,118.2z"/>
<path class="st0" d="M99.1,139.5c-2.1,4.6-6,9.9-5.5,15.2c0.4,4.7,3.8,9.6,7.3,12.5c4.7,3.9,10.2,6.1,14.7,10.4
	c3.8,3.8,6.8,9.1,12.1,10.9c0.5,0.2,0.6-0.6,0.2-0.7c-4.9-1.7-8.2-7.1-11.8-10.7c-3-2.9-6.3-5.4-9.9-7.5c-4.8-2.7-8.4-5.9-10.7-11.1
	c-2.9-6.6,1.6-12.7,4.3-18.6C100,139.5,99.3,139.1,99.1,139.5z"/>
<path class="st1" d="M187.9,86.2c1.7-0.5,3.2-1.4,5-1.3c0.5,0,0.5-0.7,0-0.8c-1.9-0.1-3.5,0.8-5.2,1.3c-0.2,0.1-0.3,0.3-0.3,0.5
	C187.4,86.1,187.7,86.2,187.9,86.2L187.9,86.2z"/>
<path class="st1" d="M169.1,82.9c-5.7-3-10.3-1.7-15.7,1.3c-0.4,0.2-0.1,0.9,0.4,0.7c5.2-2.8,9.4-4.2,15-1.3
	C169.2,83.8,169.6,83.2,169.1,82.9L169.1,82.9z"/>
<path class="st0" d="M90.7,153.3c-6.1,2.9-12.3,5.5-18.1,8.9c-5.4,3.1-11.3,5.3-16.4,9c-0.4,0.3,0,0.9,0.4,0.6
	c5.1-3.7,11-5.9,16.4-9c5.9-3.4,12-6,18.1-8.9C91.5,153.7,91.1,153.1,90.7,153.3z"/>
<path class="st0" d="M52.5,175.9C64,167,82.2,179.8,90.6,188c6.4,6.4,6.5,15.1,6.2,23.6c-0.3,9.6-2.7,18.3-6.2,27.2
	c-0.2,0.4,0.6,0.6,0.7,0.2c4.2-10.1,6.3-21,6.3-32c0-8.9-1.8-15.5-8.5-21.4c-8.8-7.8-25.7-19.1-37.2-10.2
	C51.6,175.7,52.1,176.2,52.5,175.9L52.5,175.9z"/>
<path class="st0" d="M47.8,178.6c-4.3,4.3-10.5,7.7-10,14.6c0,0.2,0.2,0.4,0.4,0.4c0.1,0,0.1,0,0.2-0.1c1-0.7,2-1.6,2.8-2.6
	c3.4-3.8-1.1,0.4-2,1.3c-2.1,2.2-3.4,5.1-5.7,7.2c-3,2.8-8.5,5.7-9.2,10.1c-0.1,0.2,0.1,0.4,0.3,0.5h0.1c2.5-0.1,1.4-0.3,0.8,0.7
	c-1,1.7-3.8,3-5.2,4.1c-2.5,1.8-5,3.8-7.3,6c-4.8,4.8-8.7,10.4-12.8,15.7c-0.3,0.4,0.4,0.8,0.6,0.4c4.1-5.3,7.9-10.9,12.7-15.6
	c4.4-4.4,9.8-7.6,14.3-11.8c0.3-0.3,0-0.7-0.4-0.6c-4.9,0.8,0.3-3.4,1.8-4.8s3.3-2.7,4.8-4.1c1.1-1.1,2.2-2.3,3.1-3.7
	c2.1-2.9,4.6-4.8,7-7.3c0.1-0.1,0.1-0.4,0-0.5s-0.2-0.1-0.4-0.1c-1,0.3-1.9,0.9-2.7,1.6c-0.7,0.5-1,1.6-1.9,1.7
	c-0.8,0.6-1,0.3-0.5-0.9c0.1-1.1,0.5-2.2,1.1-3.1c2-3.4,5.8-5.7,8.5-8.5C48.6,178.8,48.1,178.3,47.8,178.6L47.8,178.6z"/>
<path class="st0" d="M171.1,152.1c-5.5,6.1-10.1,13.3-11,21.1c-0.3,3.9,0.3,7.9,1.6,11.7c0.8,2.6,1.7,4.9,1.7,7.6
	c-0.1,2.5-1.1,4.9-1.7,7.3c-1.9,6.6,1.4,10,6.7,14.7c3.6,3.1,6.8,6.5,9.4,10.2c3.3,4.6,4.9,9.3,6.7,14.4c0.1,0.2,0.3,0.3,0.5,0.3
	c0.2-0.1,0.3-0.3,0.3-0.4l0,0c-2.6-7.3-5.3-13.3-10.7-19.4c-2.5-2.6-5.2-5.1-8-7.5c-4.7-4.2-5.5-7.6-3.8-13.2
	c0.8-2.7,1.7-5.4,1.3-8.2c-0.5-4.5-2.9-8.6-3.3-13.1c-0.9-9.2,4.7-17.9,11-24.8C172.1,152.2,171.5,151.8,171.1,152.1L171.1,152.1z"
	/>
<path class="st0" d="M142.7,168.5c3.4,5.8,9.4,7,15.7,6.9c0.2,0,0.3-0.2,0.3-0.4s-0.2-0.3-0.3-0.3c-6,0.1-11.8-1-15-6.5
	c-0.1-0.2-0.4-0.2-0.5-0.1C142.7,168.2,142.6,168.4,142.7,168.5L142.7,168.5z"/>
<path class="st0" d="M165.2,173.2c2.4-0.5,4.7-1.3,6.8-2.5c1.9-1.4,3.5-3.2,4.6-5.3c0.1-0.2,0-0.4-0.2-0.5s-0.3,0-0.4,0.1
	c-1.1,2.1-2.7,4-4.8,5.3c-2,1-4,1.8-6.2,2.2c-0.2,0.1-0.3,0.3-0.2,0.5C164.8,173.1,165,173.2,165.2,173.2L165.2,173.2z"/>
<path class="st0" d="M148.1,153.5c3,4.4,7.9,6.8,13,7.9c0.5,0.1,0.7-0.6,0.2-0.7c-4.9-1-9.7-3.2-12.6-7.5
	C148.5,152.7,147.8,153.1,148.1,153.5L148.1,153.5z"/>
<path class="st0" d="M147.6,147.5c4.1,1.8,7.9,4.1,12.2,5.1c0.2,0.1,0.4-0.1,0.5-0.3s-0.1-0.4-0.3-0.5c-4.3-1.1-8.1-3.3-12.1-5.1
	C147.6,146.7,147.2,147.4,147.6,147.5L147.6,147.5z"/>
<path class="st0" d="M173.3,154.5c1.2-1.1,2.5-2.1,3.3-3.6c0.2-0.4-0.4-0.8-0.6-0.4c-0.7,1.5-2,2.4-3.1,3.4
	C172.4,154.3,173,154.8,173.3,154.5z"/>
<path class="st0" d="M171.1,162.9c0.2,0,0.3-0.2,0.3-0.4s-0.2-0.3-0.3-0.3c-0.2,0-0.3,0.2-0.3,0.4
	C170.9,162.8,171,162.9,171.1,162.9z"/>
<path class="st0" d="M88.5,180.8c4.6-2.6,8.8-5.9,13.1-8.9c0.4-0.3,0-0.9-0.4-0.6c-4.3,3.1-8.5,6.3-13.1,8.9
	c-0.2,0.1-0.2,0.4-0.1,0.5C88.2,180.8,88.4,180.9,88.5,180.8z"/>
<path class="st0" d="M204.4,188.1c1.5,5.7,0.7,11.2-1.1,16.7c-1.1,3.5-2.6,7.2-2.2,10.8c0.2,1.4,0.8,2.8,1.1,4.2
	c0.7,2.8-0.1,5.7-1.2,8.4c-1.6,3.8-5.3,6.6-6.2,10.6c-0.1,0.4,0.6,0.6,0.7,0.2c0.9-4.2,4.9-7.2,6.4-11.3c1.6-4.5,0.8-7,0.1-11.4
	c-0.9-4.9,1.7-9.7,3-14.4c1.3-4.5,1.3-9.3,0.2-13.9C205,187.6,204.3,187.8,204.4,188.1L204.4,188.1z"/>
</svg>
