<svg xmlns="http://www.w3.org/2000/svg" viewBox="0 0 450.45 184.07"><defs><style>.a{fill:#f9d574;}.b{fill:#10a2a2;}</style></defs><title>mouton-chien</title><path class="a" d="M129.52,24.75a15.09,15.09,0,0,0-6-3.3c-1.45-.36-3.83-.22-4,1.73-.14,1.69,1.89,2.95,3.19,3.55,1.54.7,3.55,1.2,5,0,.62-.51-.27-1.38-.88-.88-1,.78-2.66.15-3.63-.3-.72-.34-2.72-1.39-2.4-2.44.77-2.5,6.84,1.63,7.83,2.48.6.52,1.48-.36.87-.88Z"/><path class="a" d="M141.65,41.39a9.83,9.83,0,0,0,12,2.93l-.91-.7c-.8,4.09,5.13,1.45,3.64-2.37-.29-.74-1.49-.42-1.2.33a2.21,2.21,0,0,1-.12,2.06c0,.08-1.4,1.73-1.13.31a.63.63,0,0,0-.91-.7,8.57,8.57,0,0,1-10.33-2.48c-.46-.65-1.54,0-1.07.62Z"/><path class="a" d="M153.32,40.48c-1.17-.31-2.31-.88-2.53-2.17l-.6.78a4.73,4.73,0,0,1,4.18,2.1c.51.61,1.38-.27.88-.88a5.82,5.82,0,0,0-5.06-2.46.64.64,0,0,0-.6.79c.3,1.71,1.84,2.62,3.4,3a.62.62,0,0,0,.33-1.2Z"/><path class="a" d="M155.41,38.26a6.63,6.63,0,0,0-.66-1.4c-.27-.41-1-.41-1.13.14a6.17,6.17,0,0,0-.09,1.42.62.62,0,0,0,1.24,0,5.68,5.68,0,0,1,0-1.09l-1.13.15a4.93,4.93,0,0,1,.53,1.11c.27.74,1.47.42,1.2-.33Z"/><path class="a" d="M139.88,21.68c4.93,3.61,11.81,8.29,13.34,14.58.18.78,1.38.45,1.19-.33-1.62-6.69-8.66-11.49-13.9-15.32-.65-.47-1.27.61-.63,1.07Z"/><path class="a" d="M152,46.08c-3.35,6.43-17.65-1.12-23.28-1a.62.62,0,0,0,0,1.24c6-.14,20.4,8,24.35.37.37-.71-.7-1.34-1.07-.63Z"/><path class="a" d="M132.24,20.35c2.38,1.28,7.5.45,7.83-3.1.15-1.56-1.81-3.28-2.88-4.09a35.22,35.22,0,0,0-5.88-3,7.55,7.55,0,0,0-1.61-.8c-4.85-1.17-8.39,3.25-12.42,4a11.36,11.36,0,0,0-5,2c-3,2-1.89,2.31-4,5.14-.47.65.61,1.27,1.07.63,1.5-2.07,2.4-4.77,5.05-5.81,1.66-.65,3.78.4,5.38-.17,2.32-.84,3.59-4.11,6.45-4.35a10.68,10.68,0,0,1,6.2,1.64l1.52.66q3.06,1.21-1.08,6.21c-.71-.38-1.33.7-.63,1.07Z"/><path class="a" d="M108.64,20.19a46.44,46.44,0,0,0-21.27,6.06c-2.75,1.67-3.7,4.75.11,5.56,5,1.07,11.48-1.78,16.23-3.06a27.74,27.74,0,0,1,3.92-1c.28,0,1-.32,1.28-.18-.23-.13-2.41,1.94-2.63,2.09a16.48,16.48,0,0,1-13.43,1.17c-.74-.3-1.06.9-.33,1.19,5.16,2.05,15,1.06,17.54-4.72.14-.32.07-.84-.37-.91-2-.31-4.37.62-6.31,1.14a113.94,113.94,0,0,1-11.21,2.78c-.92.15-4.35.94-5.14.13-2.58-2.67,4.61-4.79,5.5-5.12,5.31-2,10.35-3.75,16.11-3.9.79,0,.8-1.27,0-1.25Z"/><path class="a" d="M109.19,20.38c-1.61,1.46-1.41,5-.1,6.61v-.87c-1.5,1.61-2.15,3.66-.56,5.43.53.6,1.41-.28.88-.88-1.18-1.3-.4-2.65.56-3.68a.62.62,0,0,0,0-.87c-.88-1.06-1-3.89.1-4.87.59-.53-.29-1.41-.88-.87Z"/><path class="a" d="M115.41,17.84c-1.76,2.59-1.56,2.91-.88,5.81-.42-1.79,1.64,6.61,2.26,7.29,1.42,1.55,4.49,1.51,5.6,2.79,1.51,1.75,1.43,6.57,1.8,8.53.88,4.61,2.12,2,4.52,7.75.8,1.92.62,4.52.9,6.43.94,6.4,4.86,10.69,3,17.74a.63.63,0,0,0,.43.76c3.57.87,3.08,13.78.2,15.41a.61.61,0,0,0-.28.7c.43,1.55-1.59,10.84-2.21,12.65-.73,2.16-9.79,14.61-12.71,13.54a.63.63,0,0,0-.7.28l-3.24.16a.63.63,0,0,0-.76-.43c-4.85.72-6.91-1.86-10.9-1.76-3.39.09-7.7,7.57-10.13.17a.64.64,0,0,0-.92-.37c-4.56,2.89-12.69,6.24-16.13-.66-.75-1.51-.69-3.21-1.51-4.65-1-1.67-3.48-3.28-4-5.23-.25-1,.32-2.29,0-3.34-1.35-5-3.83-6.64-2.07-12.66a.62.62,0,0,0-1.2-.33,18.05,18.05,0,0,0,0,9.94c.58,2.11,1.48,4.2,2,6.39a11.12,11.12,0,0,0,1.09,3.69c1.16,2.28,2.37,1.06,4,4.69.47,1,.37,2.33.87,3.34a6.92,6.92,0,0,0,4.2,3.72c2.86,1,7.21-.3,9.93-1.32,4.45-1.69,1.79-.18,5.22,1.52,1.75.86,1.65.41,3.12,0,4.44-1.14,4-3.58,8.43-2.86,1.48.24,4.49.8,6,1.23,3.73,1.09,4.18,2.21,8.06.23,1.72-.88,1.75-.53,3.31-2.08,2.11-2.1,4.08-5.24,6.06-7.54a14.06,14.06,0,0,0,2.72-4.12,105,105,0,0,0,5-16.49A37.16,37.16,0,0,0,137,78c-.3-1.91-1.53-2.51-2-3.87-1.27-4-.88-8-2.2-12.19-1.44-4.56-1.69-9.14-3-13.73-1-3.49-1.44-1.6-3-3.74S124.25,36,125,33.9a.65.65,0,0,0-.44-.77c-4.43-1.43-5.77-1.8-7.14-6.21-.82-2.61-3-5.46-1-8.45.45-.66-.62-1.28-1.07-.63Z"/><path class="a" d="M71.1,115.54c-2.77.15-4.71-1.65-7.41-1.24s-.9,1.06-3.5,1.7-4.17-.52-6.29-.91c-3.61-.66-6.7-.72-10.3-2-2.91-1-6.34-2.65-9-3.63-.55-.21-1.51-1.47-2.1-1.8-.12-.07-.3,0-.4-.08-1.6-.81-4.16-.4-6-2.08-3.26-2.91-2.7-7.35-4-10.85-1.68-4.5-4-6.58-2.24-11.9.25-.76-.95-1.09-1.19-.33-1,2.94-1.5,6.37-.46,9.38.32.92,1.46,2.2,1.83,3.17.77,2,.53,3.63,1.33,5.69s3.63,7,5.62,8c2.17,1.09,3.37.37,5.57,1.39,2.82,1.3,3.88,3.22,6.94,4.17,2.56.79,6,2,8.86,2.09s3.62-.14,6.43.83c3.38,1.18.21.54,4,.72.44,0,3.13-1,2-.8,5.25-.82,6.19-.08,10.28-.3.79,0,.8-1.29,0-1.24Z"/><path class="a" d="M95.81,33.13c-9,14.36-32.63,9-46.73,8.33-3.63-.16-6.95-1.41-10.54-1.14a38.93,38.93,0,0,0-13.41,4.09c-7.55,3.67-9.51,10.19-14.75,16.42-1.9,2.26-5.72,5.77-6,9-.27,2.9.38,5.31-.17,8.41C2.8,86,4.19,94,2.49,101.68c-1.18,5.4-4.77,11.12-.33,15.95,2.26,2.47,5.38,6.57,9,7.36a18.25,18.25,0,0,0,9.66-1.23c2.85-1.22,2.34-1.68,3.87-4,2.3-3.47,7.68-7.07,8.13-11.7.07-.8-1.17-.79-1.25,0-.22,2.38-6.75,8.37-8,9.16a.63.63,0,0,0-.31.54c.88,7.6-17.78,7.23-16.79,1.08a.63.63,0,0,0-.43-.76c-9.21-3-3.1-11-2-15.92.63-2.86,0-5.64.18-8.56s.92-5.2.89-7.87c-.1-7.17,1.2-1.28,1.46-9.8.24-7.76,2.8-12.64,8.66-18.19a17.3,17.3,0,0,0,3.24-3.8c1.12-1.8,1.75-4.84,3.49-6.37,1.57-1.41,5.42-2.9,7.19-3.56,14.48-5.35,30.36,1.55,45.35.19,3.45-.32,7.07-.36,10.37-1.26-3.19.86,6.11-2,6.22-2.08.54-.25,1.23,0,1.77-.32,2.46-1.28,2.76-4.7,4.07-6.79.43-.68-.65-1.3-1.07-.62Z"/><path class="a" d="M33.6,112.5a3,3,0,0,0,1.16,2.85c1.36,1.13,1.11.34,1.49,2.31a5.2,5.2,0,0,0,4.24,4.13c4.48,1,11.35-1.16,13.91-5.11.44-.67-.63-1.29-1.07-.62-3.12,4.81-16.67,8-15.86-.79,0-.36-.31-.59-.62-.62l-2-2.15c0-.8-1.21-.8-1.24,0Z"/><path class="a" d="M16.45,55.1c-5.24-1.9-8,1.38-11,5.26-2.5,3.16-4.29,7-.39,9.82.65.47,1.27-.61.62-1.07C1.88,66.42,5.2,62.55,7.28,60c2.53-3.08,4.6-5.27,8.84-3.74.75.28,1.08-.92.33-1.19Z"/><path class="a" d="M9.86,124.39c2.94,9,5,20.21,4.47,29.73-.1,1.86-.84,3.56-.62,5.44.07.58.64,1.08.8,1.61.68,2.28,2.43,4.88,2.79,7.73.06.45.69.92,1.06.44l7.15-3.69c.43,0,.83-.53.54-.93-3.87-5.4-4.17-10.14-4.81-16.49-.79-7.94-2.87-15.48-.48-23.38a.62.62,0,0,0-1.2-.33c-2.89,9.54-.3,20.6,1,30.27.57,4.34,5.48,9.89-.57,11.08.27-.05-1.7,1.16-1.65,1.19.31.2-.55-3.8-.61-4.08-.66-2.86-1.95-5.7-2.12-8.86-.57-10.06-1.37-20.45-4.52-30.06-.25-.76-1.45-.44-1.2.33Z"/><path class="a" d="M18.32,169.31a17.22,17.22,0,0,0,0,3,.64.64,0,0,0,.46.6,10.72,10.72,0,0,0,4.94.16c1.73-.38,3.17-.92,5-.48a.63.63,0,0,0,.7-.91c-1.37-2.81-3.88-4.61-6.05-6.76-.57-.56-1.45.32-.88.88,2.1,2.07,4.53,3.8,5.86,6.5l.7-.91a8.25,8.25,0,0,0-4.07.08,11.19,11.19,0,0,1-5.83.24l.45.6a17.23,17.23,0,0,1,0-3c.09-.79-1.15-.79-1.24,0Z"/><path class="a" d="M38.94,121.3c2.39,6.79,4.3,13.53,4.28,20.79,0,4.45-2.26,11.1-.37,15.42s6.73,4.29,10.52,2.39a.63.63,0,0,0,.29-.7c-3.28-12.79-8.94-31.71.6-42.6.53-.6-.35-1.48-.88-.88C45.17,125.09,48,136.77,50,148c.51,2.75,2,6.36,1.82,9.12l.32,1.36-8.52-6c-.51-1.33.43-4.74.56-6.29.72-8.91-1.13-16.84-4.08-25.22-.27-.74-1.47-.42-1.2.33Z"/><path class="a" d="M46.25,162.16c.78,5.63,8.39,5,12.54,4.73.35,0,.76-.38.6-.79-1.2-2.92-4.63-4.41-6.79-6.53-.57-.56-1.45.32-.88.88,1.94,1.89,5.41,3.4,6.47,6l.6-.78c-3.57.26-10.66,1.08-11.35-3.82-.1-.78-1.3-.45-1.19.33Z"/><path class="a" d="M79.14,121.3c1.08,4.16,3.46,7.86,4.4,12a63,63,0,0,1,1,13.76c-.11,5.06-1,10.14-1.35,15.18-.38,5.59-2.19,16.71,6.36,14.94,3-.62,4.57-1.52,4.63-4.58.06-2.79-2-6.27-2.54-9-1.28-5.9-.51-10.93.56-16.79,1.66-9.15-1.12-18.55-.2-27.71.08-.8-1.16-.79-1.24,0-.73,7.25.71,14.8.61,22.09-.07,4.88-1.75,9.42-1.85,14.29-.11,5.66,4.5,13.87,1.39,18.14-6.11,8.39-6.79-5.88-6.59-9.6.23-4.43.74-8.83,1.14-13.25a72.3,72.3,0,0,0,0-12.31c-.51-6.46-3.47-11.39-5.07-17.54a.62.62,0,0,0-1.19.33Z"/><path class="a" d="M84.78,178.44c.28,1.71,2.36,2.94,3.71,3.73,1.55.9,3.69,2.07,5.56,1.88,4.72-.48.89-6.73-.59-8.54-.5-.62-1.38.27-.88.88,1.15,1.4,4.64,7.18.37,6.33a13.11,13.11,0,0,1-4-1.73c-1-.61-2.75-1.57-3-2.88-.13-.78-1.32-.45-1.2.33Z"/><path class="a" d="M98.38,120.14c.66,7.54.94,15.09,1.64,22.61.58,6.17-.66,11.91-.25,18,.24,3.55,2.47,13.71,7.24,13.92,4.51.2,5.74-5.7,5.29-8.73-.5-3.4-3-6.84-3.66-10.45a49.64,49.64,0,0,1-.4-12.48c.37-4.13,1.55-8,1.61-12.13.06-4.46-.51-7.59,2-11.73a.62.62,0,0,0-1.07-.63c-3.68,6.13-2.61,14.59-3.4,21.45-1,9.15.24,15.83,2.82,24.42,2.8,9.3-5.42,9-7.86,2.06-1.86-5.27-.86-9.42-.46-14.66.8-10.42-1.33-21.24-2.24-31.63-.07-.79-1.31-.79-1.24,0Z"/><path class="a" d="M106.9,174.4c.79,1.55,2.74,2.42,4.28,3s4.07,1.42,5.75.58c3.86-1.92-2.34-7.29-3.44-9-.43-.66-1.51,0-1.07.63.84,1.31,6.19,6.27,3.72,7.34-1.23.54-3.26-.23-4.43-.67s-3.08-1.22-3.74-2.51c-.37-.71-1.44-.09-1.07.62Z"/><path class="b" d="M193.5,52c-3.53-1.72,2.63-4.62,4-5.62,3.44-2.62,7-5,10.43-7.5A14.5,14.5,0,0,0,212.08,34c3-5.19,4.95-7.41,10.74-9.76,1-.41.57-2.07-.45-1.65-3.55,1.43-7.35,2.81-9.57,6.14-1.72,2.56-2.33,5.59-4.71,7.74s-5.54,3.34-8,5.33-14.4,8.18-7.42,11.6c1,.48,1.86-1,.87-1.49Z"/><path class="b" d="M224.78,22.15c1.6-3.69.82-7.13.38-11-.18-1.57-.91-5.59.06-7.09-.18-1.33.25-1.55,1.3-.66a1.61,1.61,0,0,1,1.53,1.29c.82,1.05,1.27,2.87,1.81,4.05a20.29,20.29,0,0,0,6.59,8.18c3.35,2.59,5.81,5.33,5.28,9.91-.34,2.86-1.43,6.65-4.22,8-1,.5-.12,2,.86,1.48,4-2,5.87-8.69,5.21-12.88A10.17,10.17,0,0,0,240,17.53c-3.41-3.12-6.63-5.24-8.7-9.66-.9-1.95-3.09-9.67-6.65-7.48-4.42,2.71.13,17.38-1.39,20.89-.43,1,1,1.88,1.48.87Z"/><path class="b" d="M244.17,27.09c11.43,5.67,15.57,15.78,11.93,28.08-.38,1.28-3.74,14.66-5.49,14.07a.87.87,0,0,0-1,.39c-1,1.89-1,1.73-.66,3.85.17,1.09,1.83.63,1.66-.46-.27-1.76,2.17-2.33,3-3.75,2.21-3.8,3.48-11,4.56-15.2,3.24-12.52-1.46-22.65-13.17-28.46-1-.49-1.85,1-.86,1.48Z"/><path class="b" d="M258.06,39.83c3.26,2.47,7.17,3.66,10.8,5.45,3.9,1.93,7.37,4.68,11.27,6.69L280,50.63a11.79,11.79,0,0,1-6,3.53.86.86,0,0,0-.51,1.26c1.11,2-3.46,1.82-4,1.66-1.05-.34-1.5,1.31-.46,1.65,2.62.86,7.81-.71,5.9-4.18l-.51,1.26c2.81-.52,4.77-2,6.8-4a.87.87,0,0,0-.17-1.35c-3.9-2-7.38-4.75-11.28-6.69-3.62-1.79-7.53-3-10.79-5.45-.88-.67-1.73.82-.87,1.48Z"/><path class="b" d="M281.43,51.5a22.21,22.21,0,0,0,9.07,1.31,118.62,118.62,0,0,1,18.35.58c6.12.68,11.75-1.2,17.88-1.6,18.06-1.18,37.77-.39,54.1,8.27,9.11,4.83,18.2,10.27,25.79,17.29,8,7.41,12.3,17,18.88,25.39,5.24,6.71,12.76,12.12,17,19.59,3.84,6.79,5.82,16.74,6.25,24.46.06,1.1,1.78,1.11,1.72,0-.88-15.61-6.49-26.48-16.88-37.61C425.85,100.91,421,91,413.82,82.41c-6.35-7.6-14.23-13.48-22.77-18.35-16.21-9.25-32.19-14.33-50.95-14.34-6.67,0-13.26.34-19.89,1-6.94.68-13.32-.32-20.13-.44-6.36-.11-11.89,1.92-18.19-.42-1-.38-1.49,1.27-.46,1.66Z"/><path class="b" d="M396.29,78.78c1.66,1.71,11,12.2,5.46,10.44a.85.85,0,0,0-1.08.82c.16,3.62,1.07,6.43,1.84,10,.93,4.23.28,9.48,1,13.15a48.77,48.77,0,0,0,5.21,14.35c3.12,5.09,5.12,2.22,7,10.61.82,3.67-.41,7.27.12,10.89.69,4.66,2.09,5.55,2,11.12-.11,5.4-.8,10.79-.93,16.2a.86.86,0,0,0,1.72,0c.22-9.67.89-18-.69-27.34-1-5.61,1.11-12.34-2.32-17.38-2.47-3.62-4.7-5.29-6.59-9.81-1.28-3.06-2.87-6.5-3.29-9.74-.32-2.43.32-5-.19-7.62-.59-3-5.15-13.67-.19-12.41a.86.86,0,0,0,1.05-1c-1.54-5.56-4.93-9.32-8.88-13.4-.77-.8-2,.42-1.21,1.21Z"/><path class="b" d="M409.76,171c-1.23,1.64-2.41,4.18-.21,5.58,1.88,1.2,4.62,1,6.74.92,1.1,0,1.11-1.75,0-1.71a14.83,14.83,0,0,1-5.19-.37c-2-.67-.74-2.38.14-3.55.66-.89-.82-1.74-1.48-.87Z"/><path class="b" d="M359.27,79.62c-.83,13.27,1.47,23.71,9.52,34.4,8.61,11.43,21.22,16.8,30.89,27.06,4.76,5,12.46,18.23,6.93,25.47-1.77,2.32-4.81,2.13-6.43,4.79-4.14,6.77,4,5.81,8.29,5.55,1.1-.06,1.11-1.78,0-1.71-9.06.53-.4-6.49.92-10.67,2.07-6.51-1.51-15.92-5.3-21.1-7.25-9.89-17.73-14-26.35-22C365.53,110.14,360,96.09,361,79.62c.07-1.1-1.65-1.1-1.71,0Z"/><path class="b" d="M402.52,97.43C409.8,108.4,415,119,426,126.89a.86.86,0,0,0,1.26-.51c-.51,2.56,9.12,8.05,10.18,9.41a.86.86,0,0,0,1.35-.17c2.19-4.08,2,.42,3.58,3.07,1.72,2.86,5,5.38,5.79,8.62.26,1.07,1.92.62,1.66-.46-1-4.11-3-4.16-5.51-8-1.7-2.57-1.82-5.44-4-7.76a.87.87,0,0,0-1.35.17c-1.25,2.92-.6,1.29-1.93,1.29-3.43,0-7.84-6.42-9.48-8.82-.39-.56-1.42-.57-1.57.21-.23,1.14-13.69-13.46-14.18-14.19-2.86-4.26-5-9-7.84-13.23-.6-.92-2.09-.06-1.48.87Z"/><path class="b" d="M284.1,76.58l1.43,3.94a.86.86,0,0,0-.82.62c-1.93,7.09-1,16.68.84,23.69,3.24,12.1-1.4,22.93-4.26,34.69-.81,3.32-2.1,6.75-2.09,10.21,0-.86,1.32,8.78.27,8.27a.88.88,0,0,0-1.18.31c-2.48,4.28-3.91,9.08-6.64,13.2-.49.74,0,2-.46,2.65q-2.83,4.53-7.15,4-3.77.39-4.22-4.86c.61-.92-.88-1.78-1.48-.86-4.08,6.18,1.66,8.78,8.23,7.53,3-.57,3.76,0,5.68-2.76.67-1,5.83-17.95,7.86-17a.89.89,0,0,0,1-.14c2.21-2.84-.2-7.23-.23-10.34-.12-11.3,6.48-22.52,8.36-33.45.39-2.23-4.94-34.07-2-34a.87.87,0,0,0,.83-1.09,29.46,29.46,0,0,0-2.53-5.47c-.53-1-2-.1-1.49.87Z"/><path class="b" d="M193.21,54.88c5.66,4.1,7,4.45,13.63,4.35,4.28-.07,9.55-.86,13.76-.23,8.5,1.27,9,4.93,12.69,10.86,3.48,5.59,7.2,9.62,8.68,16.21,1,4.4.25,7.23,4.05,10.37a.87.87,0,0,0,1.35-.17c-.24.52,2.08-5,2.39-4.85a.83.83,0,0,0,.83-.23c1.78-1.94,2-4.12,2.65-6.71.26-1.07-1.39-1.53-1.65-.45-.21.88-.91,5.9-2.73,5.26a.86.86,0,0,0-1.05.6q-5.13-.81-4.16-5.13a36.38,36.38,0,0,0-.2-4.55,22.75,22.75,0,0,0-1.11-3.06,9.48,9.48,0,0,0-1.65-1.64,29.7,29.7,0,0,1-5.31-5.26c-2.41-3.26-3.51-8.43-6.79-11.08-3-2.41-3.75-1.94-8-1.88-9.68.14-18.38,2-26.52-3.89-.9-.65-1.76.84-.87,1.48Z"/><path class="b" d="M247.64,96.58c2.61,1.89,4.1,4.93,6.13,7.37,2.2,2.64,5,4.41,6.88,7.37.59.93,2.08.07,1.48-.86-1.94-3.08-4.88-5-7.15-7.72-2.13-2.6-3.71-5.63-6.47-7.65-.9-.65-1.75.84-.87,1.49Z"/><path class="b" d="M261.4,101.92c-.42,3.51-2.15,8.66-.79,12.13a.87.87,0,0,0,1.57.2c.3-.43,4.27,20.36,4.27,20.66.05,4.76-1.18,9.16-1.48,13.77-.32,4.78,3,3.49,1.51,11-1.67,8.24-11.37,7.19-13.5,13.93-.95,3-.08,3.79,3,4.44,1.08.23,1.54-1.42.46-1.65-5.63-1.2,8-9,8.07-9.07a14.8,14.8,0,0,0,2.59-4.51c1.92-4.26,1.83-6,1.2-10.16-2-13,.58-26-3.42-39.34a.9.9,0,0,0-.83-.63c-.37,0-3.24,0-3.08.4s2.11-10.56,2.18-11.14c.13-1.1-1.58-1.09-1.72,0Z"/><path class="b" d="M212.32,35.48c2,.9,3.58,2.48,5.43,3.67l.87-1.48c-2.41-1.31-5.67-2-7.19.93l1.34-.17a1.26,1.26,0,0,1,.3-1.92c.83-.72-.38-1.93-1.21-1.21a3,3,0,0,0-.3,4.34.87.87,0,0,0,1.35-.17c1-2,3.27-1.17,4.84-.32a.86.86,0,0,0,.87-1.48c-1.85-1.19-3.4-2.77-5.44-3.67-1-.44-1.87,1-.86,1.48Z"/><path class="b" d="M227.56,5.44a42.73,42.73,0,0,1,2.05,10.38,15.31,15.31,0,0,1,0,4.38q-.39,3.27-2.87,3.75a.64.64,0,0,0-.29.16c-.46.88-.93,1.19-.8,2.24.17,1.37,2.3,2,1.39,3.62a.86.86,0,0,0,1.48.86c.79-1.37.52-1.72.15-3.11a7.83,7.83,0,0,0-.9-1c-.36-1.15,0-1.64,1.13-1.45.34-.37,1-.44,1.43-.85,1.72-1.82,1.11-6.44,1-8.59A44.57,44.57,0,0,0,229.21,5c-.34-1-2-.59-1.65.46Z"/><path class="b" d="M228,36.06c1.06.6,2.09,1.24,3.19,1.74s1.87-1,.86-1.48-2.13-1.14-3.18-1.74-1.83.94-.87,1.48Z"/><path class="b" d="M232.7,42.53c-2.7,2.74-4.1,7.46-1.87,10.89.6.92,2.09.06,1.48-.87-1.81-2.78-.58-6.59,1.61-8.8.77-.79-.44-2-1.22-1.22Z"/><path class="b" d="M289,116.35c4,1,6.77.78,10.58.51,3.21-.24-1.56-1.94,5,.2s14.93.48,21.39-1.54a32.21,32.21,0,0,0,9-4c.63-.45,8.64-9.49,9.3-8.57a.87.87,0,0,0,1.35.17c5.38-5.85,7.49-4.75,14.95-.74,1,.52,1.84-1,.86-1.48-2.52-1.36-7.81-5.28-11.08-4.84-1.46.2-6.1,3.92-6.42,3.48a.87.87,0,0,0-1.48,0c-5,7.86-10.81,13.09-20.24,15.24-7.77,1.77-15.49,2.25-22.65-1.88a.87.87,0,0,0-1.26,1c1.08,3.34-7.55,1.18-8.87.84a.86.86,0,0,0-.46,1.65Z"/><path class="b" d="M356.4,101.56c4.26,16.63,17.7,22.66,29.35,33.81,6.64,6.35,8.73,8.72,7.74,19.6-.19,2.14.22,6-1.48,7.66-2.69,2.69-5.74.83-6.57,5.25a.9.9,0,0,0,.4,1c3.22,1.76,8.34,1.45,11.56-.27,6.42-3.43,5.71-11.17,8.14-17.22.41-1-1.25-1.47-1.66-.45-1.85,4.63-6.55,16.56-11.62,17.32-5.65.84.36-3.28.72-3.9,2.4-4.11,3.72-11.33,3.25-16.09-.65-6.59-5.94-11-10.5-15.29-11.09-10.36-23.6-15.94-27.68-31.84a.86.86,0,0,0-1.65.45Z"/><path class="b" d="M390.38,161.69c-2.1-1.42-5.59.59-7.19,2-.79.67-1.68,1.71-1.39,2.83.35,1.37,2.05,1.62,3.22,1.73s1.09-1.62,0-1.72c-.37,0-1.2-.05-1.49-.37s-.07,0,0-.15c.06-.59,1.06-1.24,1.48-1.53,1-.68,3.33-2.1,4.55-1.27.92.62,1.78-.87.87-1.48Z"/></svg>