<svg xmlns="http://www.w3.org/2000/svg" viewBox="0 0 139.65 139.65"><defs><style>.a{fill:#055;stroke:#055;stroke-miterlimit:10;}</style></defs><title>panierIb</title><path class="a" d="M132.24,74.78h-.14c0-3.63.05-7.27.09-10.9.08-16.72-6.37-31.72-17.87-43.8S86.66.42,69.83.5,38.22,7.49,26.58,19s-19,27.19-19,43.88c0,3.63-.05,7.27-.09,10.9H7.34A7.29,7.29,0,0,0,.5,80.68a6,6,0,0,0,6.71,5.78h.15v.14c-.16,15.32.5,28.6,9,37.93,8.78,9.67,25.39,14.67,53.46,14.62,3.12,0,6.11-.06,8.94-.17h0a129.55,129.55,0,0,0,19.45-2.1h.11c11.21-2.23,18.91-6,24.19-11.64a29.1,29.1,0,0,0,5.35-8.16,2,2,0,0,0,.15-.33c3.55-8.17,4-18.21,4-29.21V87.4h.15c3.81-.15,7-3.21,7-6.72S136,74.54,132.24,74.78ZM11.89,62.66A58,58,0,0,1,29.62,21.87c10.91-10.71,24.85-17,40.54-17a57.49,57.49,0,0,1,41.3,18.21c10.7,11.28,16.63,25.45,16.45,41q-.07,5.44-.14,10.85c-41.38,1.83-75-3.7-116-1.49C11.82,69.88,11.86,66.26,11.89,62.66Zm113.19,49.75-1.26-1.15,2.13-2C125.7,110.35,125.41,111.42,125.08,112.41Zm-17,17.24-1.44-1.36c1.82-1.93,3.68-3.83,5.57-5.73l3.34,3.16a35.13,35.13,0,0,1-7.47,3.95Zm-13.59,3.46q-2.67-2.55-5.27-5.11c1.8-2,3.61-3.88,5.44-5.79q3,3,6.17,6-2.11,2.26-4.2,4.57c-.69.17-1.41.29-2.14.41Zm-52.12-.64-4.6-4.89q2.82-3.1,5.64-6.17l5.79,6.16q-2.36,2.63-4.71,5.29C43.76,132.74,43.05,132.61,42.36,132.47ZM23.21,125l3.15-3.4c1.9,2,3.8,4,5.73,6l-1.34,1.49A36.07,36.07,0,0,1,23.21,125ZM11.54,89q1.94,1.78,3.82,3.58-1.87,1.91-3.75,3.86Q11.51,92.85,11.54,89Zm1.34,19,2.17,2.11-1.27,1.33C13.43,110.32,13.14,109.17,12.88,108Zm-.64-6.5q3-3.11,5.94-6.16c1.9,1.84,3.78,3.71,5.65,5.59q-2.94,3-5.88,6.11c-1.88-1.87-3.77-3.72-5.7-5.54Zm96.49,1.15c-2,1.85-3.93,3.69-5.83,5.54q-3-2.92-5.88-5.83,2.9-2.73,5.82-5.45,2.91,2.86,5.9,5.74Zm-3-8.48,5.94-5.55q2.92,2.84,5.94,5.66l-6,5.61q-3-2.85-5.9-5.72ZM85.69,113.34q2.94,3,5.94,5.94-2.77,2.84-5.49,5.75-3-3-6-6c1.85-1.9,3.71-3.79,5.58-5.65ZM77.25,116c-2-2-3.86-4-5.76-6,1.88-1.87,3.76-3.73,5.65-5.56q2.81,3,5.7,5.94C81,112.25,79.09,114.12,77.25,116Zm11.26-5.45c1.88-1.85,3.77-3.68,5.68-5.51,1.91,2,3.87,3.9,5.87,5.87q-2.85,2.76-5.65,5.58-3-3-5.92-5.94Zm5.68-11.12q-2.86-2.91-5.65-5.82c1.93-1.79,3.87-3.59,5.82-5.38C96.21,90.17,98.1,92.09,100,94c-2,1.82-3.91,3.63-5.84,5.44Zm-2.86,2.7q-2.86,2.73-5.7,5.49c-1.91-2-3.81-4-5.68-5.91,1.9-1.82,3.81-3.62,5.73-5.45,1.85,2,3.73,3.92,5.64,5.87ZM77.19,98.81q-2.76-2.94-5.48-5.88c1.92-1.8,3.84-3.58,5.77-5.36,1.79,1.94,3.61,3.89,5.44,5.84q-2.9,2.69-5.74,5.4Zm-2.84,2.71c-1.89,1.82-3.78,3.67-5.66,5.53-1.88-2-3.72-4-5.54-5.94q2.84-2.77,5.7-5.5Zm-22.5,11q2.79,3,5.66,6c-1.85,2-3.71,4-5.56,6-2-2.06-3.86-4.1-5.75-6.12Q49,115.38,51.85,112.47Zm-8.45,2.94-5.59-6q2.88-3,5.76-5.89l5.51,5.94C47.19,111.44,45.29,113.41,43.4,115.41Zm11.25-5.83q2.84-2.89,5.67-5.7c1.84,2,3.69,4,5.57,6q-2.81,2.84-5.61,5.75C58.39,113.58,56.51,111.58,54.65,109.58Zm5.79-11.39L55,92.31q2.89-2.76,5.78-5.45l5.36,5.85c-1.91,1.8-3.83,3.63-5.75,5.47ZM57.6,101q-2.85,2.8-5.7,5.68l-5.48-5.92c1.92-1.91,3.84-3.8,5.76-5.65l5.42,5.88ZM43.74,97.82Q41,94.91,38.29,92c2-1.91,3.9-3.8,5.85-5.65,1.79,1.92,3.59,3.85,5.38,5.79-1.94,1.86-3.87,3.73-5.8,5.64Zm-2.87,2.86q-2.9,2.89-5.78,5.87c-1.85-2-3.69-3.88-5.54-5.78q2.93-3,5.85-5.88c1.81,1.9,3.62,3.83,5.45,5.78ZM26.79,97.94Q24,95.08,21.16,92.32c2-2,4-4,5.95-5.94,1.86,1.87,3.7,3.75,5.54,5.65-2,2-3.91,3.91-5.88,5.9Zm-.14,5.8c1.86,1.91,3.72,3.83,5.57,5.78q-2.89,3-5.78,6.09c-1.88-2-3.76-3.88-5.64-5.78q2.91-3.09,5.83-6.1ZM35,112.41l5.62,6c-1.89,2-3.78,4.07-5.67,6.13l-5.69-6Q32.1,115.45,35,112.41Zm17.16,18.24,3.38,3.54c-2.07-.16-4.06-.36-5.94-.6.84-1,1.7-2,2.56-2.92Zm2.74-3.07c1.83-2,3.68-4.06,5.52-6q2.91,3.07,5.91,6.16-2.72,3-5.44,6.16-3-3.12-6-6.25Zm8.27-9q2.77-2.94,5.57-5.79,2.85,3,5.79,6-2.76,2.88-5.49,5.87c-2-2-3.94-4.07-5.87-6.1Zm14.3,3.25q3,3,6,6.09-2.7,3-5.35,6Q75,130.86,72,127.77c1.8-2,3.62-4,5.45-5.9ZM86.54,131c1,.95,1.95,1.9,2.93,2.85-1.88.21-3.85.39-5.9.52,1-1.12,2-2.24,3-3.35Zm17-5.61q-3.11-3-6.14-5.94,2.79-2.84,5.64-5.62,3,2.92,6.09,5.86c-1.89,1.9-3.75,3.81-5.59,5.71ZM105.88,111c1.92-1.86,3.86-3.71,5.83-5.57q3,2.88,6.09,5.76c-2,1.88-3.92,3.76-5.84,5.63-2-1.93-4.07-3.86-6.08-5.81Zm8.76-8.34,6-5.64q3,2.84,6.16,5.65l-6.08,5.72q-3.07-2.85-6.11-5.72Zm9.06-8.5c1.32-1.22,2.64-2.45,4-3.71,0,2.44-.09,4.81-.21,7.11q-1.89-1.68-3.75-3.38Zm-3-2.78-4-3.7c2.64,0,5.31,0,8-.11-1.36,1.29-2.7,2.57-4,3.83Zm-17.77-.13Q101,89.4,99.15,87.5c2.54.07,5.09.13,7.67.16Zm-17.14-.56c-1.2-1.28-2.41-2.56-3.6-3.84l7.43.31ZM69,90l-3.53-3.84,7.34.32L69,90ZM52.37,89.4l-3.53-3.83q3.69.09,7.36.23l-3.83,3.61Zm-16.8-.24q-1.8-1.87-3.63-3.75,3.78,0,7.51,0l-3.88,3.77Zm-17.24.42Q16.44,87.77,14.52,86c2.61-.14,5.19-.26,7.76-.34C21,86.93,19.65,88.25,18.33,89.58Zm-3,26,2.52-2.65c1.89,1.89,3.78,3.82,5.67,5.77l-3.47,3.69c-.26-.26-.52-.54-.77-.81a24.36,24.36,0,0,1-3.95-6Zm50.5,19.14c1.14-1.32,2.27-2.63,3.41-3.91,1.29,1.32,2.6,2.64,3.91,4H69.46c-1.24,0-2.39,0-3.57-.06Zm53.48-12.27c-.23.26-.49.5-.73.74q-1.81-1.69-3.62-3.4c1.91-1.89,3.86-3.78,5.83-5.67l2.59,2.4a24,24,0,0,1-4,5.93Zm12.88-39.07c-45.28,2.06-80.92-4.26-124.94-1a2.16,2.16,0,0,1-2.4-1.87,1.93,1.93,0,0,1,0-.24,2.62,2.62,0,0,1,2.47-2.48c44.29-3.16,79.8,3.31,124.92,1a2.25,2.25,0,0,1,2.47,2c0,.06,0,.11,0,.17A2.56,2.56,0,0,1,132.22,83.36Z"/></svg>