<?xml version="1.0" encoding="utf-8"?>
<!-- Generator: Adobe Illustrator 22.1.0, SVG Export Plug-In . SVG Version: 6.00 Build 0)  -->
<svg version="1.1" id="Calque_1" xmlns="http://www.w3.org/2000/svg" xmlns:xlink="http://www.w3.org/1999/xlink" x="0px" y="0px"
	 viewBox="0 0 261.4 262.3" style="enable-background:new 0 0 261.4 262.3;" xml:space="preserve">
<style type="text/css">
	.st0{fill:#1D1D1D;}
	.st1{fill:#1D1D1D;stroke:#000000;stroke-miterlimit:10;}
</style>
<title>Peter</title>
<path class="st0" d="M117.4,61.7v-1.2c1,0,1.9-0.3,2.8-0.8c0.9-0.5,1.8-1.1,2.8-1.6c1.1-0.6,2.3-0.8,3.5-0.7
	c1.1,0.2,2.2,0.7,3.2,1.4l0.6,0.4c0.6,0.5,1.3,1,2,1.4c0.7,0.4,1.6,0.5,2.4,0.4c-0.8,0.4-1.7,0.4-2.6,0.2c-0.9-0.2-1.7-0.6-2.5-1
	l-0.6-0.4c-0.2-0.1-0.5-0.3-0.7-0.4c-0.4-0.3-0.9-0.5-1.4-0.6c-1-0.2-2-0.1-2.9,0.3c-1,0.4-1.9,1.1-2.9,1.7
	C119.9,61.3,118.6,61.6,117.4,61.7z"/>
<path class="st0" d="M120.5,61.8l0.9-0.8c1.5,1.6,3.8,2.4,5.9,2l0.7-0.1c1.6-0.1,3.2-0.5,4.7-1.2c-1.4,1.1-3,2-4.7,2.5l-0.6,0.1
	c-1.3,0.2-2.6,0-3.8-0.3C122.5,63.5,121.3,62.8,120.5,61.8z"/>
<path class="st0" d="M98.8,61.2l-0.2,1.2c-1.6-0.3-3.1-0.8-4.6-1.3c-1.4-0.3-2.9-0.1-4.3,0.4L89,61.8c-0.8,0.2-1.7,0.3-2.5,0.3
	c-0.4,0-0.9,0-1.3,0c-0.4,0-0.8-0.2-1.1-0.5c0.3,0.2,0.7,0.3,1.1,0.2c0.4-0.1,0.8-0.2,1.2-0.3c0.8-0.3,1.6-0.6,2.3-0.9l0.6-0.2
	c1.6-0.7,3.3-0.8,5-0.5c0.8,0.2,1.6,0.5,2.3,0.8C97.3,60.9,98,61.1,98.8,61.2z"/>
<path class="st0" d="M96.8,63.5l0.8,0.9c-1.3,1.1-2.9,1.8-4.6,1.8c-0.3,0-0.6,0-0.8,0c-1.7-0.4-3.3-1.1-4.7-2
	c1.6,0.5,3.3,0.8,4.9,0.7H93C94.4,64.9,95.7,64.4,96.8,63.5z"/>
<path class="st0" d="M113.1,59.8l-1.1,0.5c-0.4-0.8-0.5-1.7-0.4-2.5c0.1-0.8,0.4-1.6,0.8-2.4c0.8-1.4,1.9-2.6,3.1-3.6
	c1.2-1,2.5-1.9,3.9-2.6c0.8-0.3,1.5-0.6,2.4-0.7c0.4,0,0.8,0,1.2,0c0.3,0,0.5,0,0.8,0.1c1.6,0.5,3.2,1.1,4.8,1.8
	c-1.7-0.3-3.4-0.5-5.1-0.6c-0.2,0-0.5,0-0.7,0c-0.3,0-0.7,0-1,0.1c-0.7,0.1-1.4,0.3-2,0.6c-1.3,0.6-2.5,1.4-3.6,2.4
	c-1.1,0.9-2,2-2.8,3.2C112.7,57.3,112.6,58.6,113.1,59.8z"/>
<path class="st0" d="M105,59.6l-1.2,0.4c-0.6-1.6-1.8-2.9-3.3-3.8c-1.6-0.9-3.3-1.6-5-2.2c-0.8-0.3-1.7-0.6-2.6-0.8
	c-0.8-0.2-1.7-0.2-2.5,0c-0.9,0.2-1.7,0.5-2.4,1c-0.4,0.2-0.8,0.5-1.1,0.7l-0.6,0.4c-1.5,0.8-3,1.5-4.6,2.1c1.4-1,2.7-2.1,4-3.2
	l0.7-0.5c0.4-0.3,0.8-0.5,1.2-0.7c0.9-0.5,1.8-0.8,2.8-1c1-0.2,2-0.2,3,0c1,0.3,1.8,0.6,2.7,0.8c1.8,0.6,3.5,1.3,5.2,2.2
	C103,56.1,104.3,57.7,105,59.6z"/>
<path class="st0" d="M104.9,85.6l0.9,0.9c-0.7,0.7-1.5,1.2-2.3,1.6c-0.8,0.4-1.7,0.6-2.7,0.7c-1.8,0.3-3.5,0.2-5.1,0.5
	c-0.8,0.1-1.6,0.4-2.3,0.8c-0.7,0.4-1.3,0.9-1.8,1.5c-0.5,0.6-1,1.3-1.5,2c-0.2,0.3-0.5,0.7-0.6,1.1s-0.2,0.4-0.3,0.6
	c-1,1.3-1.7,2.8-2.1,4.4c0-1.8,0.4-3.5,1.1-5.1c0-0.1,0.1-0.2,0.2-0.3l0.2-0.4c0.2-0.4,0.4-0.8,0.7-1.1c0.5-0.7,1-1.4,1.6-2.1
	c0.6-0.7,1.4-1.2,2.2-1.7c0.8-0.4,1.7-0.7,2.6-0.8c1.8-0.3,3.5-0.3,5.1-0.5c0.8-0.1,1.6-0.3,2.3-0.7
	C103.7,86.7,104.3,86.2,104.9,85.6z"/>
<path class="st0" d="M115.2,87.1l1-0.7c0.6,0.8,1.5,1.3,2.5,1.4c1.1,0.2,2.2,0.2,3.3,0.1c1.1-0.1,2.3-0.1,3.4-0.2
	c1.2-0.1,2.4,0.1,3.6,0.5c1.2,0.4,2.2,1,3.2,1.8c0.9,0.8,1.7,1.7,2.4,2.7c0.6,1,1.1,2,1.6,3.1l0.4,0.8l0.2,0.4l0.2,0.3
	c0.1,0.2,0.2,0.4,0.4,0.6c0.3,0.7,0.8,1.4,1.3,1.5c0.4,0,0.7-0.2,0.9-0.5c0.3-0.3,0.5-0.6,0.7-1c-0.1,0.4-0.3,0.8-0.5,1.2
	c-0.2,0.5-0.7,0.8-1.2,0.9c-0.5,0-1.1-0.2-1.4-0.6c-0.4-0.3-0.7-0.6-1-1l-0.2-0.3l-0.3-0.4c-0.3-0.5-0.5-1-0.8-1.6
	c-0.4-1-0.9-2-1.5-2.9c-1.2-1.8-2.9-3.1-4.9-3.7c-1-0.3-2.1-0.4-3.1-0.4c-1.1,0-2.2,0.1-3.3,0.2c-1.2,0.1-2.3,0-3.5-0.2
	C117.1,88.8,116,88.1,115.2,87.1z"/>
<path class="st0" d="M141.8,74.5l1.2,0.4c-0.8,3-1.1,6.2-1,9.3c0,1.6-0.1,3.2-0.2,4.8c-0.1,0.8-0.2,1.6-0.4,2.4
	c-0.1,0.4-0.2,0.8-0.3,1.2l-0.2,0.7c-0.8,1.5-1.8,2.9-3,4.1c0.9-1.4,1.5-3,1.9-4.6l0.2-0.7c0.1-0.4,0.2-0.7,0.3-1.1
	c0.2-0.7,0.3-1.5,0.3-2.3c0.2-1.5,0.2-3.1,0.2-4.7C140.6,80.8,141,77.6,141.8,74.5z"/>
<path class="st0" d="M78.1,89.2l1.2-0.3c0.7,2.6,1.9,5.1,3.6,7.2c0.2,0.2,0.3,0.4,0.5,0.5c0.9,1.3,2.3,2.4,3.8,3
	c-0.9-0.1-1.7-0.4-2.5-0.7c-0.8-0.4-1.6-0.9-2.3-1.5c-0.2-0.2-0.3-0.3-0.4-0.5C80.1,94.6,78.8,92,78.1,89.2z"/>
<path class="st0" d="M77.8,111.3l1.2-0.4c0.6,2.2,1.5,4.4,2.7,6.4c0.1,0.2,0.3,0.4,0.4,0.6c0.3,0.7,0.8,1.4,1.3,1.9
	c0.6,0.6,1.3,1,2.2,1.1c-0.9,0.1-1.8-0.1-2.6-0.6c-0.8-0.5-1.4-1.1-2-1.8c-0.1-0.2-0.2-0.3-0.3-0.5
	C79.4,115.9,78.4,113.6,77.8,111.3z"/>
<path class="st0" d="M86.3,120.6l1-0.7c0.7,1.1,1.6,2,2.7,2.6c1.1,0.6,2.3,1,3.6,1.2l0.8,0.2c1.6,0.5,3.1,1.3,4.5,2.3
	c-1.6-0.7-3.3-1-5-1.1l-0.6-0.1c-1.4-0.2-2.7-0.7-4-1.3C88.1,122.8,87,121.8,86.3,120.6z"/>
<path class="st0" d="M104,128v-1.3c0.4,0,0.8-0.1,1.2-0.3c0.2-0.1,0.3-0.2,0.5-0.3c0.2-0.2,0.4-0.5,0.6-0.7c0.3-0.5,0.5-1.1,0.7-1.6
	l0.1-0.2c0,0,0.1-0.2,0.1-0.1l0.1,0.5l0.3,1c0.1,0.3,0.2,0.5,0.3,0.8l0.1,0.2l0.1,0.1c0.1,0.2,0.3,0.3,0.4,0.5l0.1,0.1l0,0l0.2-0.1
	c0.1-0.1,0.3-0.2,0.4-0.4c0.1-0.2,0.2-0.3,0.3-0.5l0.1-0.3c0-0.1,0.1,0,0.1,0l0.1,0.1l0.9,0.5c0.1,0.1,0.3,0.2,0.4,0.2l0.4,0.1
	c0.8,0.1,1.7,0,2.5-0.4c0.9-0.4,1.8-1,2.6-1.6c0.4-0.3,0.8-0.7,1.2-1l0.8-0.7c1.3-1,2.6-2,4-3c-1.1,1.3-2.1,2.7-3.3,4
	c-0.7,0.6-1.4,1.2-2.1,1.8c-0.9,0.7-1.8,1.2-2.8,1.7c-1,0.4-2,0.6-3.1,0.5c-0.2,0-0.4-0.1-0.6-0.2c-0.2,0-0.4-0.1-0.6-0.3l-0.1-0.1
	l0,0c-0.1,0.1-0.3,0.3-0.4,0.4l-0.3,0.2c-0.2,0.1-0.3,0.3-0.4,0.5l-0.2,0.3l-0.1,0.1c0,0-0.1,0.1-0.1,0.1l-0.3-0.5l-0.3-0.5
	l-0.3-0.3c-0.2-0.2-0.3-0.4-0.5-0.6l-0.2-0.3c-0.3,0.4-0.7,0.7-1.1,0.9C105.2,127.9,104.6,128,104,128z"/>
<path class="st0" d="M123.2,124l-0.6-1.1c1.4-0.7,2.5-2.1,4.1-3.2c0.8-0.6,1.8-0.9,2.8-0.8c0.9,0,1.8,0.2,2.6,0.2
	c1.5-0.1,2.9-1.2,4-2.3c1.2-1.2,2.2-2.6,3.1-4c1-1.4,1.8-2.9,2.5-4.4c0.6-1.6,1-3.2,1.1-4.9c0.1-1.7,0.1-3.4,0-5.1l-0.1-2.5V95
	c0.2-1.7,0.4-3.4,0.8-5c0,1.7,0.2,3.4,0.4,5.1v1l0.1,2.6c0.1,1.7,0.1,3.5-0.1,5.2c-0.2,1.8-0.6,3.5-1.3,5.2l-0.6,1.2l-0.7,1.2
	c-0.4,0.8-0.9,1.5-1.4,2.2c-1,1.5-2.1,2.9-3.3,4.1c-0.6,0.6-1.4,1.2-2.1,1.7c-0.4,0.3-0.8,0.5-1.3,0.6c-0.5,0.1-1,0.2-1.4,0.2
	c-1,0-1.8-0.2-2.6-0.2c-0.7,0-1.5,0.2-2.1,0.7C126,121.7,124.9,123.1,123.2,124z"/>
<path class="st0" d="M100.3,98.1l0.7-1c1.4,1,3,1.9,4.6,2.6c1.6,0.7,3.3,1.2,5,1.4c1.7,0.2,3.5,0.2,5.1-0.3c0.4-0.1,0.8-0.3,1.2-0.4
	c0.4-0.2,0.8-0.4,1.2-0.6c0.3-0.2,0.7-0.4,1-0.7c0.2-0.1,0.4-0.3,0.6-0.4c1.4-0.9,2.6-2,3.6-3.3c-0.7,1.6-1.8,3.1-3,4.3l-0.7,0.5
	l-0.6,0.4l-0.6,0.3c-0.4,0.2-0.8,0.4-1.3,0.6c-0.4,0.2-0.9,0.3-1.3,0.4c-1.8,0.5-3.7,0.6-5.5,0.3c-1.8-0.3-3.6-0.8-5.3-1.5
	C103.3,100.1,101.7,99.2,100.3,98.1z"/>
<path class="st0" d="M105.7,97.7l0.5-1.1c2.6,1.2,5.4,1.7,8.3,1.3l0.7-0.1c1.6-0.1,3.3-0.5,4.8-1.1c-1.4,1.1-3,1.9-4.7,2.4l-0.6,0.1
	C111.6,99.5,108.5,99,105.7,97.7z"/>
<path class="st0" d="M109.1,92.2L110,93c-0.5,0.6-1.2,1.2-1.8,1.6c-0.7,0.4-1.4,0.8-2.2,1c-1.5,0.5-3.1,0.7-4.5,1.1
	c-0.7,0.2-1.4,0.5-2,0.8l-2.1,1c-0.7,0.3-1.4,0.6-2,1c-0.3,0.2-0.6,0.4-0.9,0.6l-0.5,0.4c-0.6,0.4-1.1,1-1.4,1.7
	c-0.2,0.8-0.1,1.6,0.3,2.3c-0.6-0.7-0.9-1.6-0.9-2.5c0.1-1,0.6-1.8,1.3-2.5l0.3-0.2c0.1-0.1,0.2-0.2,0.3-0.3c0.3-0.2,0.7-0.5,1-0.7
	c0.6-0.4,1.3-0.8,2-1.1l2-1c0.7-0.3,1.5-0.6,2.2-0.8c1.5-0.4,3-0.6,4.3-1.1c1.3-0.4,2.5-1.2,3.4-2.3L109.1,92.2z"/>
<path class="st0" d="M114.4,93.4l0.7-1c2.8,2.1,7.2,1.4,10.7,3.6c0.2,0.1,0.5,0.3,0.7,0.4c0.7,0.5,1.3,1.2,1.7,2
	c0.1,0.2,0.1,0.5,0.1,0.7c-0.1,0.2-0.2,0.4-0.4,0.6c-0.3,0.3-0.7,0.4-1.2,0.5c0.4-0.2,0.7-0.4,0.9-0.7c0.2-0.3,0.1-0.6-0.1-0.9
	c-0.5-0.6-1.2-1-1.9-1.3l-0.5-0.3c-0.8-0.4-1.6-0.8-2.5-1.1c-0.9-0.3-1.8-0.4-2.7-0.6C118,95.1,116.1,94.5,114.4,93.4z"/>
<path class="st0" d="M105.8,103l1.1,0.6c-0.3,0.5-0.3,1.1-0.2,1.6c0.1,0.2,0.2,0.4,0.3,0.6c0.9,1.4,2.1,2.5,3.5,3.2
	c-0.8-0.2-1.7-0.6-2.4-0.9c-0.9-0.4-1.6-1-2.2-1.7c-0.1-0.2-0.2-0.4-0.3-0.7C105.3,104.7,105.3,103.8,105.8,103z"/>
<path class="st0" d="M118.1,102.3l1.1-0.5c0.4,0.7,0.5,1.5,0.4,2.2c-0.2,0.7-0.5,1.4-0.9,2l-0.3,0.5l0,0l0.4-0.1
	c1.3-0.3,2.5-0.6,3.8-0.8c0.6-0.1,1.2-0.2,1.8-0.4c0.3-0.1,0.5-0.2,0.8-0.3c0.2-0.1,0.4-0.2,0.5-0.3c1.3-0.6,2.1-2.2,2.4-3.9
	c0,0.4,0,0.9,0,1.3c0,0.4-0.1,0.9-0.2,1.3c-0.2,0.9-0.8,1.8-1.6,2.4c-0.2,0.2-0.5,0.3-0.7,0.4c-0.3,0.1-0.7,0.3-1,0.4
	c-0.6,0.2-1.3,0.3-1.9,0.4c-1.2,0.2-2.4,0.4-3.6,0.7l-0.6,0.2c-0.3,0.1-0.5,0.2-0.8,0.3l-0.7,0.2h-0.2c0,0-0.2,0.1-0.1,0l0.1-0.4
	l0.2-0.7c0.1-0.3,0.2-0.5,0.3-0.8c0.2-0.4,0.4-0.7,0.6-1.1c0.3-0.4,0.6-0.9,0.7-1.4C118.4,103.2,118.3,102.7,118.1,102.3z"/>
<path class="st0" d="M93.9,104.4l0.8-0.9c2.6,2.4,5.8,4,9.3,4.7c0.3,0,0.5,0.1,0.7,0.1c1.6,0.5,3.2,0.8,4.9,0.9
	c-1.7,0.3-3.5,0.4-5.2,0.3c-0.2,0-0.4-0.1-0.6-0.1C100.1,108.7,96.7,106.9,93.9,104.4z"/>
<path class="st1" d="M53.7,63.1l0.7,1.1c-0.7,0.4-1.4,0.7-2.2,0.9c-0.9,0.2-1.8,0-2.5-0.5c-1.3-1-2.1-2.4-2.4-4
	c-0.4-1.4-0.6-2.9-0.6-4.4c-0.1-1.5,0.1-3,0.4-4.5c0.4-1.4,1-2.8,1.5-4.1c0.6-1.2,0.8-2.6,0.7-3.9c-0.1-0.6-0.4-1.2-0.8-1.7
	c-0.4-0.5-0.9-1.1-1.4-1.5c-0.6-0.5-1.1-1.2-1.4-2c-0.2-0.8-0.3-1.6-0.1-2.4c0.3-1.5,0.8-2.9,1.7-4.2c0.8-1.2,1.7-2.4,2.7-3.5
	c1-1,1.9-2.1,2.7-3.3c0.8-1.2,1.6-2.4,2.5-3.6c0.4-0.6,0.9-1.2,1.5-1.7c0.6-0.5,1.1-1,1.7-1.5c1.2-1,2.7-1.6,4.3-1.8
	c0.8-0.1,1.7,0.1,2.4,0.5c0.4,0.2,0.7,0.4,1,0.6c0.2,0.1,0.3,0.2,0.5,0.4l0.2,0.2c0.2,0.2,0.4,0.3,0.5,0.5c0.9,1.4,1.7,2.9,2.3,4.5
	c-1-1.4-2.1-2.7-3.3-3.8L66,19l-0.1-0.1l-0.1-0.1c-0.1-0.1-0.2-0.2-0.4-0.3c-0.5-0.4-1.1-0.7-1.7-0.9c-0.6-0.1-1.2-0.1-1.8,0
	c-1.3,0.4-2.5,1-3.5,1.9c-1.1,0.9-2,1.9-2.8,3c-0.8,1.1-1.6,2.4-2.4,3.5s-1.9,2.2-2.8,3.3c-0.9,1-1.7,2.2-2.5,3.3
	c-0.7,1.2-1.1,2.4-1.3,3.8c-0.1,0.6,0,1.2,0.3,1.7c0.3,0.6,0.8,1.1,1.3,1.5c1.2,1,2,2.4,2.3,4c0,1.5-0.3,3.1-0.9,4.4
	c-0.6,1.3-1,2.6-1.4,3.9c-0.3,1.3-0.4,2.7-0.3,4.1c0,1.4,0.2,2.7,0.6,4.1c0.3,1.3,0.9,2.4,1.9,3.2C51.3,64.2,52.5,63.8,53.7,63.1z"
	/>
<path class="st1" d="M65.4,16.4l-0.7-1.1c3.1-2,6.1-4.4,9.3-6.5c0.4-0.3,0.8-0.5,1.2-0.8c0.4-0.3,0.9-0.5,1.3-0.7
	c0.9-0.4,1.9-0.6,2.9-0.8C81.3,6.4,83.2,6.4,85,6c0.8-0.2,1.7-0.6,2.4-1c0.8-0.5,1.6-1,2.4-1.5c1.6-1.1,3.3-2,5.1-2.7
	c1.9-0.5,3.8-0.8,5.8-0.8h1.4h0.7h0.6l0.7,0.1c1.7,0.4,3.2,1.1,4.7,1.9c-1.6-0.4-3.3-0.6-5-0.6l-1-0.1c-0.9-0.1-1.8-0.1-2.7,0
	c-1.8,0-3.6,0.3-5.3,0.9c-1.7,0.7-3.3,1.6-4.8,2.6c-0.8,0.5-1.5,1-2.4,1.5c-0.9,0.5-1.8,0.8-2.8,1C83,7.7,81.1,7.7,79.4,8
	c-0.9,0.1-1.7,0.4-2.5,0.7C76,9.1,75.3,9.5,74.5,10C71.4,12,68.6,14.4,65.4,16.4z"/>
<path class="st1" d="M77.2,54.2l1.1-0.5c0.8,1.8,1.1,3.8,0.9,5.8c-0.1,1.9-0.3,3.8-0.5,5.7l-1.1,11.2c-0.8,7.5-1.5,14.9-1.7,22.4
	s-0.1,15,0.3,22.5c0.1,1.9,0.2,3.8,0.2,5.7c0,1.9-0.1,3.8-0.3,5.7c-0.2,1.9-0.5,3.8-0.8,5.6c-0.2,0.9-0.5,1.9-0.8,2.8
	c-0.2,0.5-0.4,0.9-0.7,1.4c-0.3,0.5-0.7,1-1.3,1.2c-0.3,0.1-0.7,0.1-1.1,0.1c-0.3-0.1-0.6-0.2-0.8-0.4c-0.2-0.2-0.4-0.4-0.6-0.6
	c-0.2-0.2-0.3-0.5-0.4-0.7c-0.4-0.9-0.6-1.9-0.7-2.9c-0.2-1.9-0.1-3.8-0.3-5.6s-0.5-3.7-0.8-5.5l-0.5-2.7c-0.1-1-0.2-1.9-0.3-2.9
	c0-3.8,0.1-7.6,0.6-11.3c0.3-3.7,0.3-7.5,0.1-11.2L67.4,94c-0.1-1.9-0.1-3.8-0.1-5.7c0.1-3.8,0.4-7.6,0.8-11.3s0.1-7.4,0.2-11.2
	c0-1.9,0.2-3.8,0.5-5.7c0.3-1.9,0.8-3.7,1.3-5.5c1-3.6,2.1-7.2,2.2-10.9s-0.7-7.3-0.9-11.1c-0.2-1.9-0.1-3.9,0.1-5.8
	c0.3-1.9,0.8-3.7,1.5-5.5c0.6-1.8,1.5-3.6,2.5-5.2c1-1.8,2.7-3.1,4.7-3.6C82,12,84,12,85.9,12.3c1.8,0.2,3.6,0.1,5.3-0.4
	c0.8-0.3,1.6-0.7,2.4-1.2l2.5-1.4l4.9-2.8c1.7-0.9,3.2-1.8,4.8-2.9c1.6-1.1,3.4-2,5.3-2.5c1-0.2,2.1-0.2,3.1,0.1
	c0.9,0.3,1.8,0.8,2.6,1.4c0.7,0.5,1.5,0.9,2.3,1.1c0.8,0.2,1.7,0.2,2.5,0c1.8-0.3,3.5-1.1,5.6-1.2c2,0,4,0.4,5.8,1.2
	c3.6,1.6,6.3,4.6,8.6,7.5c1.2,1.5,2.2,3.1,3.3,4.6c1.2,1.4,2.4,2.8,3.8,4c0.7,0.7,1.4,1.4,2,2.1c0.6,0.8,1.2,1.6,1.6,2.5
	c0.8,1.8,1.2,3.6,1.9,5.3s1.1,3.7,1.6,5.4c0.2,0.9,0.6,1.7,0.9,2.6c0.4,0.8,0.8,1.6,1.3,2.5c1.1,1.6,1.8,3.6,1.9,5.5
	c0,1-0.1,2-0.4,2.9l-0.2,0.7l-0.2,0.6l0,0c-0.1,0.2-0.2,0.5-0.3,0.7c-0.4,0.8-0.9,1.5-1.6,2.2c-0.6,0.7-1.5,1-2.3,0.8
	c0.8-0.1,1.6-0.5,1.9-1.3c0.4-0.7,0.7-1.5,0.9-2.3L158,50v-0.2l0.1-0.5c0.3-0.8,0.4-1.7,0.5-2.6c0.4-3.5-2.7-6.3-3.8-10
	c-0.6-1.8-1-3.6-1.5-5.3c-0.1-0.4-0.3-0.9-0.4-1.3s-0.3-0.9-0.5-1.3c-0.3-0.9-0.6-1.8-0.9-2.6c-1-3.5-4.3-5.5-6.8-8.3
	c-0.6-0.7-1.2-1.5-1.7-2.3c-0.5-0.8-1-1.5-1.6-2.3c-1-1.5-2.2-2.9-3.4-4.2c-2.5-2.6-5.6-4.7-9.1-5.1l-1.3-0.1c-0.4,0-0.9,0-1.3,0.1
	c-0.9,0.2-1.7,0.4-2.6,0.6c-0.9,0.3-1.9,0.4-2.8,0.5c-1,0.1-2.1-0.1-3-0.6c-0.9-0.4-1.7-0.9-2.5-1.5c-0.7-0.5-1.5-0.8-2.3-0.9
	c-1.7-0.1-3.4,0.4-4.9,1.4c-1.6,0.9-3.1,2-4.7,2.9s-3.2,1.8-4.9,2.7S95.3,11,93.7,12c-0.4,0.2-0.8,0.5-1.3,0.7
	c-0.5,0.2-0.9,0.4-1.4,0.5c-0.9,0.2-1.9,0.4-2.9,0.4c-1.9,0.1-3.8-0.3-5.5-0.2c-0.9,0-1.7,0.1-2.6,0.4c-0.8,0.3-1.5,0.7-2.1,1.3
	c-1.2,1.3-2.2,2.7-2.9,4.4c-0.7,1.7-1.3,3.4-1.8,5.1c-0.5,1.7-0.8,3.5-0.8,5.3c0,1.8,0.1,3.7,0.4,5.5c0.2,1.8,0.5,3.7,0.6,5.5
	c0.1,1.9,0.1,3.8-0.2,5.7c-0.5,3.8-1.8,7.3-2.6,10.9c-2,7.1-0.5,14.6-1.5,22c-0.3,3.7-0.6,7.3-0.6,11c0,1.8,0.1,3.7,0.2,5.5
	s0.2,3.7,0.3,5.6c0.2,3.7,0.1,7.5-0.3,11.2c-0.4,3.6-0.5,7.3-0.3,11c0.5,3.6,1.3,7.3,1.5,11c0,1.8,0.1,3.6,0.4,5.4
	c0.2,1.7,1.6,3.2,2.4,1.7c0.4-0.7,0.8-1.5,1-2.4c0.2-0.9,0.4-1.8,0.6-2.6c0.3-1.8,0.6-3.6,0.7-5.4c0.3-3.7,0.3-7.3,0-11
	c-0.5-7.4-0.5-14.8-0.3-22.3c0.2-7.4,0.9-14.8,1.7-22.2l1.1-11c0.2-1.9,0.4-3.7,0.5-5.5C78.1,57.6,77.8,55.8,77.2,54.2z"/>
<path class="st1" d="M80.1,55l-1-0.8c2.3-2.6,5.4-4.5,8.7-5.5c3.3-1,6.6-1.8,9.9-2.3c3.3-0.7,6.6-1.4,10-1.8
	c1.7-0.2,3.4-0.3,5.1-0.3c1.7,0.1,3.4,0.2,5.1,0.3c6.7,0.7,13.4,1.8,20.1,3.3l5,1.1c1.6,0.4,3.3,0.8,4.9,1.3c0.8,0.3,1.6,0.6,2.4,1
	c0.4,0.2,0.8,0.4,1.2,0.6c0.2,0.1,0.4,0.2,0.6,0.4l0.3,0.2c0.2,0.1,0.4,0.3,0.6,0.5c1.2,1.3,2,2.9,2.3,4.6c-0.7-1.5-1.8-2.8-3.2-3.7
	c-0.1-0.1-0.2-0.1-0.3-0.2l-0.1-0.1l-0.1-0.1c-0.2-0.1-0.3-0.2-0.5-0.3c-1.4-0.8-2.9-1.4-4.4-1.9c-1.6-0.5-3.2-0.8-4.8-1.2
	s-3.2-0.8-4.9-1.1c-6.5-1.5-13-2.5-19.6-3.1c-1.6-0.1-3.3-0.3-4.9-0.3c-1.6,0-3.3,0.1-4.9,0.3c-3.3,0.4-6.5,1.2-9.8,1.8
	c-3.3,0.5-6.5,1.3-9.6,2.3C85.1,50.8,82.3,52.6,80.1,55z"/>
<path class="st1" d="M140.5,54.7l1.2-0.4c1.1,4,1.1,8,1.4,11.9c0.1,1.9,0.4,3.8,0.9,5.7c0.5,1.9,1.2,3.8,2,5.6
	c3.1,7.3,6.1,14.6,8.8,22.1c2.8,7.5,4.9,15.2,6.4,23c0.4,2,0.5,4,0.3,6.1c-0.2,2-0.6,4-1.2,5.9c-0.3,1-0.6,1.9-0.9,2.8
	c-0.1,0.5-0.3,0.9-0.4,1.4l-0.2,0.7l-0.1,0.4c0,0.2-0.1,0.5-0.1,0.7c-0.3,0.7-0.3,1.4,0,2.1c0.2,0.3,0.6,0.4,0.9,0.4
	c0.4,0,0.8,0,1.2-0.1c-0.4,0.2-0.8,0.4-1.3,0.5c-0.5,0.1-1.1,0-1.4-0.4c-0.3-0.4-0.6-0.9-0.6-1.4c-0.1-0.5-0.1-0.9-0.1-1.4l0.1-0.4
	v-0.2v-0.2c0-0.3,0.1-0.5,0.1-0.7c0.4-2,1.2-3.8,1.7-5.6c0.5-1.8,0.8-3.7,0.9-5.6c0-1.9-0.1-3.8-0.6-5.7c-1.5-7.6-3.7-15.1-6.4-22.4
	c-2.7-7.3-5.6-14.5-8.7-21.7c-0.8-1.8-1.4-3.7-1.9-5.6c-0.5-1.9-0.8-3.9-0.9-5.9C141.5,62.3,141.6,58.4,140.5,54.7z"/>
<path class="st1" d="M150.6,53.8l1.2,0.2c-0.2,2.1-0.2,4.3,0.1,6.4c0.3,2.1,0.8,4.2,1.4,6.3c0.7,2,1.8,3.8,3.2,5.4
	c1.4,1.6,3,3.1,4.6,4.7c1.6,1.6,3,3.3,4.1,5.3c0.3,0.5,0.5,1,0.7,1.6c0.2,0.6,0.3,1.1,0.4,1.7c0.1,1.1,0.2,2.3,0.1,3.4
	c-0.2,2.1,0,4.2,0.7,6.3c0.7,2,1.6,4.1,2.3,6.2c0.7,2.1,1.3,4.3,1.6,6.5c0.3,2.2,0.5,4.4,0.7,6.6c0.3,4.4,0.4,8.8,0.9,13.1
	c0.4,2.2,0.8,4.4,1,6.6c0.1,1.2,0,2.3-0.3,3.5c-0.3,1.2-1,2.2-2,3c-1,0.7-2.2,1.1-3.4,1.1c-0.6,0.1-1.1,0.1-1.7,0.1H165h-0.7
	c-1.7-0.3-3.3-0.7-4.9-1c1.7-0.1,3.5-0.1,5.1-0.2h1.5c1,0,2.1-0.1,3.1-0.3c0.5-0.1,0.9-0.3,1.3-0.5c0.2-0.1,0.4-0.3,0.5-0.4l0.5-0.5
	c1.1-1.6,1.2-3.8,0.9-5.8s-0.8-4.2-1-6.4c-0.5-4.3-0.6-8.7-0.9-13c-0.2-4.3-1-8.5-2.5-12.5c-0.7-2-1.5-4-2.3-6.1
	c-0.6-2.2-0.8-4.4-0.5-6.6c0.1-1,0-2.1-0.2-3.1c-0.1-0.5-0.2-1-0.4-1.4c-0.2-0.5-0.4-0.9-0.7-1.4c-1.1-1.8-2.5-3.4-4-4.9
	c-1.5-1.5-3.1-3-4.6-4.7c-1.5-1.7-2.6-3.6-3.3-5.8c-0.7-2.1-1.2-4.2-1.5-6.4C150.3,58.3,150.3,56,150.6,53.8z"/>
<path class="st1" d="M145.1,103.2l1.2-0.4c1,2.8,2.4,5.5,4,8c0.9,1.3,1.7,2.6,2.3,4.1c0.3,0.8,0.5,1.6,0.5,2.4c0,0.8,0,1.6-0.1,2.4
	c-0.1,1.5-0.3,3-0.3,4.5c0,1.5,0.1,3,0.4,4.4c0.3,1.4,0.7,2.9,1.3,4.2c0.1,0.3,0.3,0.7,0.5,1l0.3,0.5l0.2,0.4l0.4,0.6
	c0.7,1.5,1.5,2.9,2.5,4.3c-1.4-1.1-2.6-2.4-3.7-3.8l-0.5-0.8c-0.4-0.7-0.7-1.4-1-2.1c-0.6-1.4-1-2.9-1.3-4.4
	c-0.3-1.5-0.4-3.1-0.4-4.6c0-1.5,0.2-3,0.3-4.5c0.2-1.4,0.1-2.8-0.4-4.1c-0.6-1.3-1.3-2.6-2.2-3.8
	C147.4,108.8,146.1,106.1,145.1,103.2z"/>
<path class="st1" d="M55.4,63.3l-0.2-1.2c1.8-0.3,3.5-1.2,4.9-2.4c1.4-1.3,2.7-2.7,3.8-4.3l0.4-0.6l3.4-3.7l-2.4,4.6l-0.4,0.5
	c-1.2,1.7-2.5,3.2-4,4.5C59.3,62,57.4,62.9,55.4,63.3z"/>
<path class="st1" d="M58.6,64.4l1.2-0.2c1.4,6.9,1.2,13.9,1.6,20.7c0.2,3.4,0.8,6.8,1.1,10.3c0.3,3.5,0.4,7,0.1,10.5
	c-0.1,1.7-0.4,3.5-0.5,5.2c-0.1,0.8-0.2,1.7-0.2,2.6l-0.1,1.3c0,0.4,0,0.8,0.1,1.2c0.3,1.7,0.8,3.3,1.5,4.8c0.3,0.9,0.5,1.8,0.6,2.7
	c0,1,0,1.8,0,2.6c-0.1,3.4,0.1,6.8,0.6,10.2c0.1,0.8,0.3,1.7,0.5,2.5c0.1,0.4,0.2,0.8,0.3,1.2l0.2,0.6l0.1,0.3
	c0.1,0.2,0.2,0.4,0.3,0.6c0.2,0.8,0.5,1.5,1,2.1c0.5,0.7,1.2,1.2,2,1.3c-0.9,0-1.8-0.4-2.5-1c-0.7-0.6-1.2-1.4-1.7-2.2
	c-0.1-0.1-0.1-0.2-0.2-0.3l-0.1-0.2l-0.1-0.2c-0.1-0.2-0.2-0.4-0.2-0.6c-0.5-1.7-0.9-3.4-1.1-5.1c-0.4-3.4-0.6-6.9-0.5-10.3
	c0.1-0.8,0-1.6-0.1-2.4c-0.1-0.8-0.4-1.6-0.7-2.3c-0.8-1.6-1.2-3.3-1.4-5.1c0-3.5,0.6-6.9,0.8-10.3c0.2-3.4,0.1-6.8-0.2-10.1
	c-0.2-1.7-0.3-3.4-0.6-5.1s-0.4-3.4-0.5-5.1C59.7,77.9,59.9,71,58.6,64.4z"/>
<path class="st0" d="M123.6,60.4l1.2-0.2c0,0.7,0.4,1.2,1,1.5l0.3,0.1h0.3c0.7,0.1,1.4-0.1,1.9-0.6c0.6-0.6,0.7-1.5,0.2-2.2
	c0.1,0.2,0.3,0.3,0.4,0.5c0.1,0.2,0.2,0.4,0.2,0.7c0.1,0.5-0.1,1-0.4,1.4c-0.6,0.8-1.6,1.4-2.6,1.4c-0.3,0-0.5-0.1-0.8-0.2
	c-0.3-0.1-0.5-0.2-0.7-0.4c-0.2-0.2-0.4-0.4-0.5-0.6c-0.1-0.2-0.2-0.5-0.3-0.7L123.6,60.4z"/>
<path class="st0" d="M124.5,59.5l1.3-0.1c0,0.4,0.2,0.6,0.3,0.6c0.2,0.1,0.4,0,0.6-0.2c0.4,0,0.8-0.2,0.9-0.6
	c0.2,0.5,0.2,1.1-0.1,1.6c-0.5,0.5-1.3,0.6-2,0.3c-0.3-0.2-0.6-0.5-0.7-0.8C124.6,60.1,124.5,59.8,124.5,59.5z"/>
<path class="st0" d="M89.4,61.9l1.2-0.1c0,0.7,0.2,1.4,0.7,2c0,0.1,0.1,0.1,0.2,0.2c0.1,0,0.1,0.1,0.2,0.1c0.9,0.7,3.1-0.3,3.1-2.1
	c0.2,0.9-0.1,1.9-0.9,2.5c-0.8,0.8-1.9,1-2.9,0.6c-0.2-0.1-0.4-0.3-0.6-0.5C89.8,63.9,89.5,62.9,89.4,61.9z"/>
<path class="st0" d="M91.2,61.6h1.2c0,0.4,0.1,0.8,0.4,1.2c0.3,0.2,0.7,0.3,1,0.2c0.2,0.1,0.4,0,0.5,0c0.2-0.2,0.3-0.4,0.3-0.7
	c0.2,0.3,0.3,0.6,0.3,0.9c-0.1,0.4-0.3,0.7-0.7,0.9c-0.8,0.3-1.7,0.1-2.3-0.5C91.5,63,91.2,62.3,91.2,61.6z"/>
<path class="st0" d="M119.7,57.5l-0.7-1c1.5-1.1,3.2-1.8,5-2.1c0.3,0,0.6-0.1,0.8-0.1c1.9,0.2,3.2,1.3,4.9,1.7c-1.8,0-3.5-0.7-5-0.4
	c-0.2,0-0.4,0-0.5,0.1C122.5,55.9,121,56.6,119.7,57.5z"/>
<path class="st0" d="M95,57.1l-0.4,1.2c-1.4-0.5-2.9-0.6-4.4-0.1c-0.2,0.1-0.5,0.1-0.7,0.2c-1.6,0.3-3.2,0.8-4.7,1.6
	c1.3-1.1,2.8-2.1,4.4-2.8c0.2-0.1,0.4-0.1,0.6-0.2C91.6,56.4,93.4,56.5,95,57.1z"/>
<path class="st0" d="M124.7,68.6l0.6-1.1c0.3,0.2,0.7,0.4,1,0.5c0.2,0.1,0.4,0.2,0.7,0.2c0.7,0.3,1.5,0.5,2.3,0.5
	c0.8,0,1.7-0.1,2.5,0c-0.8,0.1-1.6,0.5-2.5,0.7c-0.9,0.2-1.8,0.2-2.8,0.1c-0.2-0.1-0.4-0.1-0.6-0.2C125.4,69,125.1,68.8,124.7,68.6z
	"/>
<path class="st0" d="M94,69.3l0.7,1.1c-1.3,0.7-2.7,0.9-4.1,0.5c-0.5-0.3-1-0.7-1.4-1.1c0.6,0,1.2,0,1.7-0.1
	C91.9,70,93,69.9,94,69.3z"/>
<path class="st0" d="M126.9,82.5l0.5-1.1c0.4,0.2,0.8,0.4,1.1,0.7c0.2,0.2,0.4,0.3,0.6,0.5c1.1,1.3,2,2.8,2.6,4.4
	c-1-1.4-2.2-2.6-3.5-3.6l-0.4-0.4C127.5,82.8,127.2,82.6,126.9,82.5z"/>
<path class="st0" d="M94.3,82v1.2c0,0,0,0-0.1,0l-0.1,0.1c-0.2,0.1-0.4,0.2-0.5,0.3c-0.7,0.4-1.4,0.9-2,1.4
	c-0.6,0.5-1.2,1.1-1.7,1.8c0.4-0.8,0.8-1.6,1.3-2.3c0.5-0.7,1.1-1.4,1.8-2c0.2-0.1,0.4-0.3,0.6-0.4l0.3-0.1L94.3,82z"/>
<path class="st1" d="M143.1,112.6l1.2-0.4c0.3,1,0.8,1.8,1.5,2.6c0.7,0.8,1.5,1.5,2.3,2.3c0.4,0.4,0.8,0.9,1.1,1.3
	c0.4,0.5,0.7,1,0.9,1.6c0.3,0.7,0.2,1.4-0.1,2.1c-0.3,0.5-0.6,1-0.9,1.4c-0.3,0.4-0.5,0.9-0.6,1.3v0.1l0,0h0.1l0.2,0.1
	c1.2,0.4,2.1,1.4,2.6,2.6c0.4,1.1,0.7,2.2,0.9,3.3c0.3,1.1,0.5,2.2,0.6,3.3c0,0.6,0,1.3-0.3,1.9c-0.2,0.6-0.6,1.1-1,1.6
	c-0.8,0.8-1.7,1.5-2.7,2.1c-1.8,1.3-3.7,2.4-5.6,3.4c-3.9,2.1-7.9,3.9-12,5.4c-8.3,3.1-17,4.6-25.7,5.4c-4.3,0.4-8.7,1-13.2,0.6
	c-0.6,0-1.1-0.1-1.7-0.2c-0.6-0.1-1.1-0.2-1.7-0.4c-0.5-0.2-1.1-0.3-1.6-0.6c-0.3-0.1-0.5-0.2-0.8-0.4l-0.4-0.2
	c-0.2-0.1-0.4-0.3-0.7-0.4c-1.3-1.1-2.2-2.7-2.6-4.4c0.7,1.5,1.9,2.8,3.4,3.5c0.1,0.1,0.2,0.1,0.3,0.2l1,0.5c1.9,0.8,4,1.2,6.1,1.2
	c4.3,0,8.5-0.3,12.8-0.8c8.5-0.7,16.9-2.6,25-5.5c4-1.5,7.9-3.3,11.6-5.3c1.9-1,3.7-2.2,5.4-3.4c0.9-0.6,1.6-1.2,2.3-2
	c0.6-0.7,0.8-1.7,0.7-2.6c-0.1-0.5-0.1-1-0.3-1.5c-0.1-0.5-0.3-1.1-0.4-1.6c-0.2-1-0.4-2-0.8-3c-0.2-0.4-0.5-0.8-0.8-1.1
	c-0.3-0.3-0.7-0.5-1.2-0.6l-0.7-0.2l-0.4-0.1c0-0.1,0-0.2,0-0.4l0.1-0.8c0-0.2,0.1-0.3,0.1-0.5c0.2-0.6,0.4-1.1,0.8-1.6
	c0.3-0.4,0.6-0.8,0.8-1.3c0.1-0.4,0.1-0.7,0-1.1c-0.4-0.9-1-1.7-1.7-2.4c-0.7-0.8-1.5-1.5-2.3-2.3
	C144.1,114.7,143.5,113.7,143.1,112.6z"/>
<path class="st0" d="M79.1,127.9l1.2,0.3c-0.5,1.8-0.7,3.6-0.6,5.4c0.2,1.7,1.2,3.3,2.6,4.3c1.5,1,3.2,1.9,4.9,2.6
	c0.8,0.4,1.7,0.7,2.6,0.9c0.4,0.1,0.8,0.2,1.3,0.3c0.2,0,0.4,0.1,0.7,0.1c1.6,0.4,3.3,0.4,4.9,0.1c-1.6,0.8-3.4,1.2-5.2,1.1h-0.4
	l-0.5-0.1c-0.5-0.1-1-0.2-1.4-0.3c-0.9-0.3-1.8-0.6-2.7-1c-1.8-0.7-3.5-1.6-5.1-2.7c-0.8-0.6-1.5-1.4-2-2.2c-0.5-0.9-0.9-1.9-1-2.9
	C78.3,131.7,78.5,129.7,79.1,127.9z"/>
<path class="st0" d="M119.9,138.7l0.1-1.2c1.2,0.1,2.5,0.1,3.7,0c1.2-0.1,2.4-0.3,3.6-0.6c1.2-0.3,2.4-0.7,3.5-1.2
	c0.6-0.2,1.2-0.5,1.7-0.8l1.5-0.7l4.8-1.6l-4.4,2.8l-0.7,0.3l-0.9,0.4c-0.6,0.3-1.2,0.5-1.8,0.8c-1.2,0.5-2.4,0.9-3.6,1.2
	C125.1,138.7,122.5,139,119.9,138.7z"/>
<path class="st1" d="M62.5,144.3l0.5,1.1c-9.9,3.9-19.3,8.8-29.1,13l-7.3,3.2c-1.2,0.6-2.5,1.1-3.8,1.5c-1.3,0.4-2.6,0.7-3.9,1
	c-1.3,0.3-2.5,0.7-3.8,1.1c-1.2,0.3-2.2,1-3.1,1.9c-0.6,1-0.8,2.2-0.7,3.4c0.1,1.3,0.2,2.6,0.5,3.9l0.8,3.9c0.1,0.6,0.2,1.3,0.3,2
	s0.1,1.3,0.1,2c0.1,2.7,0.1,5.3-0.2,8c-0.6,5.2-0.3,10.6,1,15.7c0.3,1.3,0.7,2.5,1.2,3.8s0.8,2.5,1.2,3.8c0.8,2.6,1.3,5.2,1.7,7.9
	c0.1,1.4,0.2,2.7,0.2,4l0.1,2l0.1,1.5l0.1,0.7c-0.1,1.7,0,3.3,0.3,4.9c-0.7-1.6-1.2-3.3-1.5-5v-0.4l-0.1-1.4c0-2.6-0.2-5.2-0.5-7.8
	c-0.4-2.6-1-5.1-1.8-7.5c-0.8-2.5-1.7-4.9-2.3-7.6c-1.1-5.2-1.4-10.5-0.7-15.8c0.2-2.6,0.2-5.2,0-7.8c-0.1-2.5-0.9-5.1-1.3-7.7
	c-0.2-1.3-0.4-2.7-0.4-4c0-0.7,0.1-1.4,0.3-2.1c0.1-0.4,0.3-0.7,0.5-1.1c0.2-0.3,0.5-0.6,0.8-0.8c1.1-0.8,2.4-1.5,3.7-1.9
	c1.3-0.4,2.5-0.8,3.8-1.1s2.5-0.6,3.8-1c0.6-0.2,1.2-0.4,1.8-0.7l1.8-0.8l7.2-3.1C43.4,153,52.7,148.2,62.5,144.3z"/>
<path class="st1" d="M169.9,143.1l0.9-0.8c1.7,1.9,4.4,2.5,7,2.7c1.3,0.1,2.7,0.2,4.1,0.2c1.4,0.1,2.8,0.2,4.1,0.4
	c2.7,0.4,5.4,0.6,8.1,0.6c2.7,0,5.4,0,8.2-0.1c5.4-0.1,10.9-0.3,16.4-0.6s11.1-0.1,16.4,1.9c1.4,0.5,2.6,1.2,3.8,2.1
	c1.2,0.9,2,2.3,2.3,3.8c0.2,1.4,0.3,2.9,0.1,4.3c-0.1,1.4-0.3,2.7-0.4,4.1l-0.6,8.1l-0.3,4.1c-0.1,1.4-0.2,2.8-0.4,4.1
	c-0.4,2.7-0.9,5.4-0.9,8.1c0,2.7,0.2,5.4,0.6,8c0.2,1.4,0.4,2.7,0.7,4l0.7,3.5l0.1,0.7c0.1,1.7,0.2,3.4,0.2,5
	c-0.4-1.7-0.9-3.3-1.4-5l-0.3-1.8c-0.5-2.6-1-5.3-1.3-8c-0.2-1.3-0.3-2.7-0.4-4.1c-0.1-1.4,0-2.8,0.1-4.1c0.2-2.7,0.7-5.4,1-8
	l1.2-16.1c0.1-1.4,0.3-2.7,0.4-4c0.1-1.3,0-2.5-0.4-3.7c-0.5-1.1-1.3-2.1-2.4-2.7c-1.1-0.7-2.3-1.2-3.5-1.6
	c-5-1.7-10.4-1.7-15.8-1.4s-10.8,0.5-16.2,0.6c-2.7,0.1-5.4,0.1-8.1,0.1c-2.7-0.1-5.4-0.3-8.1-0.6c-2.6-0.5-5.3-0.4-8-0.7
	c-1.4-0.1-2.8-0.4-4.1-0.8C172.1,144.8,170.9,144.1,169.9,143.1z"/>
<path class="st1" d="M73.5,148.6l1.2,0.3c-0.6,1.9-0.8,3.8-0.7,5.8c0.1,2,0.5,3.9,1.1,5.8c0.6,1.9,1.3,3.8,2.1,5.7
	c0.8,1.9,1.8,3.7,2.8,5.5c2,3.7,4,7.3,5.6,11.1c1.6,3.8,2.8,7.7,4.2,11.5c0.7,1.9,1.4,3.8,2.3,5.6s2,3.6,2.8,5.6
	c1.5,3.9,2.3,7.9,2.5,11.9l0.4,6c0.3,2,0.2,4.1-0.2,6.1c-0.3,1-0.6,2-1,2.9l-1,2.5l-0.2,0.6c-0.7,1.2-1.3,2.4-1.9,3.7
	c0.2-1.4,0.5-2.7,0.8-4.1l0.5-1.3l1.1-2.8c0.4-0.9,0.6-1.8,0.8-2.8c0.2-1.9,0.1-3.9-0.1-5.8c-0.1-2-0.3-3.9-0.4-5.9
	c-0.3-3.9-1.2-7.7-2.7-11.4c-0.4-0.9-0.9-1.8-1.4-2.7c-0.5-0.9-1-1.8-1.4-2.8c-0.9-1.9-1.6-3.8-2.3-5.6c-1.3-3.8-2.5-7.6-4.1-11.3
	s-3.6-7.3-5.6-10.9c-1-1.8-2-3.6-2.8-5.5c-0.8-1.9-1.5-3.8-2.1-5.7c-0.5-1.9-0.9-3.9-1-5.9C72.7,152.6,72.9,150.6,73.5,148.6z"/>
<path class="st1" d="M162.6,142l1.2-0.3c1.7,3.9,3.6,7.8,5.1,11.8c0.7,2,1.2,4.1,1.5,6.2c0.3,2.1,0.3,4.2,0.2,6.3
	c-0.3,4.2-1.1,8.3-0.7,12.4c0.4,4.1,1.2,8.3,2.4,12.3c1.2,4,2.5,8.1,3.6,12.2c1.1,4.1,2.1,8.2,3.2,12.2s3.4,7.8,5.2,11.7
	c0.5,1,0.9,2,1.3,3l0.6,1.5l0.4,1.2c0.1,0.2,0.1,0.4,0.2,0.6c0.1,1.4,0.1,2.8-0.1,4.1c-0.2-1.4-0.6-2.8-1.2-4.1c0-0.1,0-0.2-0.1-0.3
	l-0.3-1.1c-0.7-1.9-1.5-3.9-2.4-5.7c-1.8-3.8-4-7.6-5-11.7s-2-8.1-3.1-12.1c-1.1-4-2.4-8-3.6-12c-1.2-4-2-8.2-2.3-12.3
	c-0.3-4.2,0.5-8.3,0.8-12.4c0.1-2,0.1-4.1-0.2-6.1c-0.3-2-0.8-4-1.5-6C166.1,149.7,164.2,145.9,162.6,142z"/>
<path class="st1" d="M10.8,178.8L12,179c-1,4.4-2.4,8.7-4.4,12.7c-0.5,1-1,2-1.4,3c-0.4,1-0.8,2-1.1,3.1c-0.6,2.1-1.1,4.3-1.3,6.4
	c-0.7,4.4-1,8.8-0.9,13.2c0,2.2,0.2,4.4,0.4,6.6c0.1,0.6,0.1,1.1,0.2,1.6l0.1,0.8l0.1,0.6l0.1,0.7c0,1.7,0.2,3.3,0.4,5
	c-0.6-1.6-1.1-3.3-1.6-4.9l-0.2-1.1c-0.2-1.1-0.3-2.2-0.4-3.3c-0.3-2.2-0.4-4.4-0.4-6.6c0-4.4,0.3-8.9,1-13.3
	c0.3-2.2,0.8-4.4,1.4-6.5c0.7-2.1,1.5-4.2,2.5-6.2C8.4,187.1,9.9,183,10.8,178.8z"/>
<path class="st1" d="M239.6,161.6l1.1,0.5c-0.4,1.2-0.5,2.4-0.4,3.6c0.1,1.3,0.3,2.6,0.5,3.8s0.4,2.6,0.5,4s0.1,2.6,0.2,3.9
	c0,2.5,0.8,5,2.3,7c0.8,1,1.8,1.8,2.8,2.7c1.1,0.9,2,1.9,2.7,3.1c1.2,2.4,1.8,5.1,1.9,7.9c0.2,2.7-0.2,5.4-1,8
	c-0.8,2.6-1.8,4.9-2.5,7.4c-0.2,0.6-0.3,1.2-0.4,1.9c-0.1,0.3-0.1,0.6-0.2,0.9c0,0.2,0,0.3-0.1,0.5v0.3c0,0.2,0,0.5-0.1,0.7
	c-0.3,1.6-0.5,3.3-0.4,4.9c-0.5-1.7-0.8-3.4-0.9-5.2c0-0.1,0-0.2,0-0.4l0.1-0.8c0.2-1.3,0.5-2.6,0.9-3.9c0.7-2.5,1.8-4.9,2.5-7.3
	c0.7-2.4,1-5,0.8-7.5c-0.1-2.5-0.7-4.9-1.9-7.1c-1.3-2-3.6-3.3-5.3-5.5c-1.5-2.3-2.4-4.9-2.4-7.6c-0.1-1.3-0.1-2.6-0.2-3.9
	s-0.3-2.5-0.5-3.8s-0.4-2.6-0.5-3.9C239,164.3,239.1,162.9,239.6,161.6z"/>
<path class="st1" d="M249.6,204.3l1.2-0.3c0.3,1.3,0.8,2.5,1.4,3.6c0.6,1.2,1.3,2.3,2,3.4c1.5,2.3,3,4.6,3.7,7.4
	c0.3,1.4,0.4,2.8,0.3,4.2c-0.1,1.4-0.3,2.7-0.5,4.1s-0.4,2.7-0.7,4l-0.2,1l-0.1,0.5l-0.1,0.4c-0.1,0.2-0.1,0.5-0.2,0.7
	c-0.7,1.6-1.7,3-2.9,4.2c0.9-1.4,1.5-3,1.8-4.7c0-0.1,0.1-0.2,0.1-0.3l0.1-0.5c0.2-0.6,0.3-1.3,0.5-1.9c0.3-1.3,0.5-2.6,0.7-3.9
	c0.4-2.6,0.9-5.2,0.1-7.7C255.5,213.6,251,209.8,249.6,204.3z"/>
<path class="st1" d="M187.5,170.3l1.1-0.5c2.3,4.9,5.6,9.5,7.5,14.8c1.9,5.3,3.2,10.7,3.9,16.2c0.6,5.6,0.3,11.1,1.3,16.4
	c0.6,2.7,1.3,5.3,2.4,7.8l0.8,1.9l0.7,1.7l0.3,0.6l1.4,4.8l-2.6-4.5l-0.5-1.1c-0.5-1.3-1.1-2.5-1.6-3.8c-1-2.6-1.8-5.3-2.3-8
	c-0.9-5.5-0.6-11-1.2-16.3c-0.7-5.3-2-10.6-3.8-15.7C193.1,179.8,189.9,175.3,187.5,170.3z"/>
<path class="st1" d="M83.7,221l0.8,1c-0.4,0.4-0.7,0.8-0.8,1.3c-0.1,0.6,0,1.1,0.2,1.6c0.3,1.1,1.2,1.9,2.3,2.3
	c0.5,0.1,1.1,0,1.5-0.3c0.5-0.3,0.9-0.7,1.3-1.1c0.3-0.4,0.4-0.9,0.3-1.4c0-0.1-0.1-0.3-0.1-0.4c0-0.1-0.1-0.2-0.2-0.4
	c-0.1-0.2-0.2-0.3-0.4-0.5c-0.9-1.3-2.3-2.3-3.8-2.8c1.8,0.1,3.6,0.8,4.9,2.1c0.2,0.2,0.3,0.5,0.5,0.7l0.2,0.5
	c0.1,0.2,0.1,0.4,0.1,0.6c0.1,0.8-0.1,1.7-0.7,2.3c-0.2,0.3-0.5,0.6-0.8,0.8l-0.4,0.3l-0.5,0.3c-0.7,0.4-1.5,0.5-2.3,0.3
	c-1.5-0.4-2.7-1.6-3.1-3.1c-0.2-0.7-0.3-1.5-0.2-2.3C82.7,222.3,83.1,221.6,83.7,221z"/>
<path class="st0" d="M98.7,76.7l0.9,0.9c-0.7,1.1-1.1,2.4-1,3.8c-0.1,0.8,0,1.5,0.3,2.2c0.2,0.3,0.4,0.6,0.8,0.8
	c0.2,0.1,0.4,0.1,0.6,0.2h0.6l-0.7,0.2c-0.2,0-0.5,0-0.7,0c-0.5-0.1-0.9-0.4-1.2-0.8c-0.6-0.8-0.9-1.7-1-2.6c0-0.2,0-0.4,0-0.7
	c0-0.7,0.2-1.4,0.4-2C97.9,77.9,98.2,77.3,98.7,76.7z"/>
<path class="st0" d="M102.2,81.5l-0.7,1.1c-0.4-0.2-0.8-0.6-1.1-1c-0.1-0.1-0.1-0.2-0.2-0.4c-0.1-0.2-0.1-0.4-0.1-0.6
	c0-0.3,0.1-0.7,0.3-1c0.1-0.1,0.2-0.3,0.3-0.4l0.1-0.2c0,0,0-0.1,0.1-0.1L101,79l0.8,0.5l1.1,0.9c1.1,1,2.4,1.9,3.7,2.5
	c0.2,0.1,0.4,0.1,0.7,0.2c0.7,0.3,1.5,0.4,2.2,0.3c0.8-0.1,1.6-0.4,2.3-0.8c-0.6,0.6-1.4,1.1-2.2,1.4c-0.9,0.3-1.8,0.4-2.8,0.2
	c-0.2-0.1-0.4-0.1-0.6-0.2c-1.5-0.7-2.9-1.6-4.1-2.7l-0.7-0.6l0.1,0.2C101.7,81.1,101.9,81.3,102.2,81.5z"/>
<path class="st0" d="M119.9,77.1l0.9-0.9c1.1,1.2,1.5,2.9,0.9,4.4c-0.1,0.3-0.2,0.5-0.3,0.8c-1,1.5-2.6,2.4-4.4,2.5
	c1.6-0.4,2.9-1.6,3.4-3.2C121,79.5,120.8,78.1,119.9,77.1L119.9,77.1z"/>
<path class="st0" d="M118.3,80.8l-1.1-0.6l0,0l0.1-0.3v-0.1c0,0,0-0.1,0-0.1c0,0,0-0.1-0.2,0c-0.4,0.1-0.7,0.2-1,0.4
	c-0.7,0.4-1.3,1-1.8,1.6c0.3-0.8,0.9-1.6,1.5-2.2c0.4-0.3,0.8-0.6,1.3-0.7c0.2-0.1,0.3-0.1,0.5-0.1c0.2,0,0.4,0.1,0.5,0.2
	c0.3,0.2,0.5,0.6,0.4,1c0,0.2-0.1,0.3-0.1,0.5L118.3,80.8L118.3,80.8z"/>
</svg>
