<svg xmlns="http://www.w3.org/2000/svg" viewBox="0 0 137.66 136.8"><defs><style>.a{fill:#9fdada;}.b{fill:#70c7c7;}.c{fill:none;stroke:#70c7c7;stroke-miterlimit:10;}</style></defs><title>bleu-note-1coin</title><path class="a" d="M136.56,4.91H137c-2.65,9.58-2.66,19.53-2.64,29.51,0,8.77-.69,18.07-.44,27,.28,10.18-1.7,20.27-1.35,30.61.24,6.83,4,14.94,2.79,21.65a3.72,3.72,0,0,1-.11.48h0c-7.66-.27-9.69,1.33-18.5-5.72-2.62,5.09,0,7-.88,12.66-.76,5-5.09,8.64-7,13.06l-1,.71c-5.75,3.25-18.23,0-24.64,0a252.86,252.86,0,0,1-37.87-2.54c-11.48-1.71-27.25-1.73-38.36,1.66l-1.33-.44c-3.69-8.28-3-19.87-3.52-28.73C1.78,97,1.6,89.67.78,82c-.91-8.39.64-15.34,1.05-23.77a295.83,295.83,0,0,1,2.94-30C6.22,18.73,5.92,9,.88.5H2.64C36.44,5,72.29,4,106.56,2.7,116.59,2.33,126.64,5.51,136.56,4.91Z"/><path class="b" d="M135.24,114.15l-26.37,20c1.9-4.42,6.23-8.11,7-13.06.88-5.61-1.74-7.57.88-12.66C125.55,115.48,127.58,113.88,135.24,114.15Z"/><path class="b" d="M108.87,134.15l26.37-20h0c-1.35,5.46-8.69,7.84-13.23,11.32-4.35,3.35-8.81,6.28-13.4,9.26A5.22,5.22,0,0,1,108.87,134.15Z"/><path class="c" d="M107.92,134.86c-5.75,3.25-18.23,0-24.64,0a252.86,252.86,0,0,1-37.87-2.54c-11.48-1.71-27.25-1.73-38.36,1.66l-1.33-.44c-3.69-8.28-3-19.87-3.52-28.73C1.78,97,1.6,89.67.78,82c-.91-8.39.64-15.34,1.05-23.77a295.83,295.83,0,0,1,2.94-30C6.22,18.73,5.92,9,.88.5H2.64C36.44,5,72.29,4,106.56,2.7c10-.37,20.08,2.81,30,2.21H137c-2.65,9.58-2.66,19.53-2.64,29.51,0,8.77-.69,18.07-.44,27,.28,10.18-1.7,20.27-1.35,30.61.24,6.83,4,14.94,2.79,21.65a3.72,3.72,0,0,1-.11.48c-1.35,5.46-8.69,7.84-13.23,11.32-4.35,3.35-8.81,6.28-13.4,9.26a5.22,5.22,0,0,1,.25-.59c1.9-4.42,6.23-8.11,7-13.06.88-5.61-1.74-7.57.88-12.66,8.81,7,10.84,5.45,18.5,5.72"/></svg>